%TF.GenerationSoftware,KiCad,Pcbnew,9.0.5*%
%TF.CreationDate,2026-01-28T11:34:24-05:00*%
%TF.ProjectId,lmp91000-pcb,6c6d7039-3130-4303-902d-7063622e6b69,rev?*%
%TF.SameCoordinates,Original*%
%TF.FileFunction,Paste,Top*%
%TF.FilePolarity,Positive*%
%FSLAX46Y46*%
G04 Gerber Fmt 4.6, Leading zero omitted, Abs format (unit mm)*
G04 Created by KiCad (PCBNEW 9.0.5) date 2026-01-28 11:34:24*
%MOMM*%
%LPD*%
G01*
G04 APERTURE LIST*
G04 Aperture macros list*
%AMRoundRect*
0 Rectangle with rounded corners*
0 $1 Rounding radius*
0 $2 $3 $4 $5 $6 $7 $8 $9 X,Y pos of 4 corners*
0 Add a 4 corners polygon primitive as box body*
4,1,4,$2,$3,$4,$5,$6,$7,$8,$9,$2,$3,0*
0 Add four circle primitives for the rounded corners*
1,1,$1+$1,$2,$3*
1,1,$1+$1,$4,$5*
1,1,$1+$1,$6,$7*
1,1,$1+$1,$8,$9*
0 Add four rect primitives between the rounded corners*
20,1,$1+$1,$2,$3,$4,$5,0*
20,1,$1+$1,$4,$5,$6,$7,0*
20,1,$1+$1,$6,$7,$8,$9,0*
20,1,$1+$1,$8,$9,$2,$3,0*%
G04 Aperture macros list end*
%ADD10RoundRect,0.147500X-0.172500X0.147500X-0.172500X-0.147500X0.172500X-0.147500X0.172500X0.147500X0*%
%ADD11RoundRect,0.140000X0.140000X0.170000X-0.140000X0.170000X-0.140000X-0.170000X0.140000X-0.170000X0*%
%ADD12RoundRect,0.070000X-0.530000X0.280000X-0.530000X-0.280000X0.530000X-0.280000X0.530000X0.280000X0*%
%ADD13RoundRect,0.076000X-0.524000X0.304000X-0.524000X-0.304000X0.524000X-0.304000X0.524000X0.304000X0*%
%ADD14RoundRect,0.080000X-0.520000X0.320000X-0.520000X-0.320000X0.520000X-0.320000X0.520000X0.320000X0*%
%ADD15RoundRect,0.135000X-0.135000X-0.185000X0.135000X-0.185000X0.135000X0.185000X-0.135000X0.185000X0*%
%ADD16RoundRect,0.135000X-0.185000X0.135000X-0.185000X-0.135000X0.185000X-0.135000X0.185000X0.135000X0*%
%ADD17RoundRect,0.135000X0.135000X0.185000X-0.135000X0.185000X-0.135000X-0.185000X0.135000X-0.185000X0*%
%ADD18RoundRect,0.087500X-0.225000X-0.087500X0.225000X-0.087500X0.225000X0.087500X-0.225000X0.087500X0*%
%ADD19RoundRect,0.087500X-0.087500X-0.225000X0.087500X-0.225000X0.087500X0.225000X-0.087500X0.225000X0*%
%ADD20RoundRect,0.140000X-0.140000X-0.170000X0.140000X-0.170000X0.140000X0.170000X-0.140000X0.170000X0*%
%ADD21RoundRect,0.150000X-0.512500X-0.150000X0.512500X-0.150000X0.512500X0.150000X-0.512500X0.150000X0*%
%ADD22R,0.990600X0.711200*%
%ADD23RoundRect,0.150000X0.512500X0.150000X-0.512500X0.150000X-0.512500X-0.150000X0.512500X-0.150000X0*%
%ADD24RoundRect,0.140000X-0.170000X0.140000X-0.170000X-0.140000X0.170000X-0.140000X0.170000X0.140000X0*%
%ADD25RoundRect,0.147500X0.172500X-0.147500X0.172500X0.147500X-0.172500X0.147500X-0.172500X-0.147500X0*%
%ADD26RoundRect,0.150000X-0.587500X-0.150000X0.587500X-0.150000X0.587500X0.150000X-0.587500X0.150000X0*%
%ADD27R,1.050000X1.050000*%
%ADD28RoundRect,0.062500X0.062500X0.237500X-0.062500X0.237500X-0.062500X-0.237500X0.062500X-0.237500X0*%
%ADD29RoundRect,0.237500X0.250000X0.237500X-0.250000X0.237500X-0.250000X-0.237500X0.250000X-0.237500X0*%
%ADD30RoundRect,0.150000X-0.350000X0.150000X-0.350000X-0.150000X0.350000X-0.150000X0.350000X0.150000X0*%
%ADD31RoundRect,0.140000X0.170000X-0.140000X0.170000X0.140000X-0.170000X0.140000X-0.170000X-0.140000X0*%
%ADD32RoundRect,0.250000X-0.260000X-0.260000X0.260000X-0.260000X0.260000X0.260000X-0.260000X0.260000X0*%
%ADD33RoundRect,0.050000X-0.337500X-0.050000X0.337500X-0.050000X0.337500X0.050000X-0.337500X0.050000X0*%
%ADD34RoundRect,0.050000X-0.050000X-0.337500X0.050000X-0.337500X0.050000X0.337500X-0.050000X0.337500X0*%
%ADD35RoundRect,0.147500X0.147500X0.172500X-0.147500X0.172500X-0.147500X-0.172500X0.147500X-0.172500X0*%
%ADD36RoundRect,0.200000X-0.200000X0.250000X-0.200000X-0.250000X0.200000X-0.250000X0.200000X0.250000X0*%
%ADD37RoundRect,0.237500X0.300000X0.237500X-0.300000X0.237500X-0.300000X-0.237500X0.300000X-0.237500X0*%
G04 APERTURE END LIST*
D10*
%TO.C,FB1*%
X42900000Y-52515000D03*
X42900000Y-53485000D03*
%TD*%
D11*
%TO.C,C13*%
X37100001Y-55000000D03*
X36140001Y-55000000D03*
%TD*%
D12*
%TO.C,J2*%
X37880000Y-42500000D03*
D13*
X37880000Y-44520000D03*
D14*
X37880000Y-45750000D03*
D12*
X37880000Y-43500000D03*
D13*
X37880000Y-41480000D03*
D14*
X37880000Y-40250000D03*
%TD*%
D15*
%TO.C,R7*%
X41990001Y-44500000D03*
X43009999Y-44500000D03*
%TD*%
D16*
%TO.C,R3*%
X50750000Y-33490001D03*
X50750000Y-34509999D03*
%TD*%
D17*
%TO.C,R5*%
X41009999Y-42500000D03*
X39990001Y-42500000D03*
%TD*%
D18*
%TO.C,U6*%
X34337500Y-51750000D03*
X34337500Y-52250000D03*
X34337500Y-52750000D03*
X34337500Y-53250000D03*
D19*
X35000000Y-53412500D03*
X35500000Y-53412500D03*
X36000000Y-53412500D03*
D18*
X36662500Y-53250000D03*
X36662500Y-52750000D03*
X36662500Y-52250000D03*
X36662500Y-51750000D03*
D19*
X36000000Y-51587500D03*
X35500000Y-51587500D03*
X35000000Y-51587500D03*
%TD*%
D20*
%TO.C,C14*%
X34140000Y-55000000D03*
X35100000Y-55000000D03*
%TD*%
D21*
%TO.C,U4*%
X47612500Y-38050000D03*
X47612500Y-39000000D03*
X47612500Y-39950000D03*
X49887500Y-39950000D03*
X49887500Y-38050000D03*
%TD*%
D22*
%TO.C,SW1*%
X42750001Y-35574999D03*
X38249999Y-35574999D03*
X42750001Y-33425001D03*
X38249999Y-33425001D03*
%TD*%
D11*
%TO.C,C9*%
X42980000Y-42500000D03*
X42020000Y-42500000D03*
%TD*%
D16*
%TO.C,R14*%
X50000000Y-43490001D03*
X50000000Y-44509999D03*
%TD*%
D17*
%TO.C,R4*%
X41009999Y-43500000D03*
X39990001Y-43500000D03*
%TD*%
D20*
%TO.C,C7*%
X49770000Y-35500000D03*
X50730000Y-35500000D03*
%TD*%
%TO.C,C5*%
X43700000Y-58300000D03*
X44660000Y-58300000D03*
%TD*%
D23*
%TO.C,U3*%
X42637500Y-40950000D03*
X42637500Y-40000000D03*
X42637500Y-39050000D03*
X40362500Y-39050000D03*
X40362500Y-40950000D03*
%TD*%
D24*
%TO.C,C8*%
X45750000Y-39020000D03*
X45750000Y-39980000D03*
%TD*%
D25*
%TO.C,L1*%
X43700000Y-57185000D03*
X43700000Y-56215000D03*
%TD*%
D26*
%TO.C,Q1*%
X52562500Y-33300000D03*
X52562500Y-35200000D03*
X54437500Y-34250000D03*
%TD*%
D17*
%TO.C,R9*%
X41009999Y-37500000D03*
X39990001Y-37500000D03*
%TD*%
D10*
%TO.C,D3*%
X49000000Y-43515000D03*
X49000000Y-44485000D03*
%TD*%
D15*
%TO.C,R6*%
X49740001Y-36500000D03*
X50759999Y-36500000D03*
%TD*%
D27*
%TO.C,U5*%
X52150000Y-49825000D03*
X50850000Y-49825000D03*
X52150000Y-51125000D03*
X50850000Y-51125000D03*
D28*
X53000000Y-48575000D03*
X52500000Y-48575000D03*
X52000000Y-48575001D03*
X51500000Y-48575000D03*
X51000000Y-48575001D03*
X50500000Y-48575000D03*
X50000000Y-48575000D03*
X50000000Y-52375000D03*
X50500000Y-52375000D03*
X51000000Y-52374999D03*
X51500000Y-52375000D03*
X52000000Y-52374999D03*
X52500000Y-52375000D03*
X53000000Y-52375000D03*
%TD*%
D24*
%TO.C,C10*%
X44500000Y-39020000D03*
X44500000Y-39980000D03*
%TD*%
D29*
%TO.C,R12*%
X51712500Y-55200000D03*
X49887500Y-55200000D03*
%TD*%
D30*
%TO.C,U1*%
X41700000Y-60400000D03*
X38700000Y-60400000D03*
X38700000Y-61700000D03*
X41700000Y-61700000D03*
%TD*%
D26*
%TO.C,D1*%
X47062500Y-33300000D03*
X47062500Y-35200000D03*
X48937500Y-34250000D03*
%TD*%
D31*
%TO.C,C1*%
X44500000Y-44480000D03*
X44500000Y-43520000D03*
%TD*%
D32*
%TO.C,U2*%
X43030000Y-47230000D03*
X43030000Y-48500000D03*
X43030000Y-49770000D03*
X44300000Y-47230000D03*
X44300000Y-48500000D03*
X44300000Y-49770000D03*
X45570000Y-47230000D03*
X45570000Y-48500000D03*
X45570000Y-49770000D03*
D33*
X41812500Y-46700000D03*
X41812500Y-47100000D03*
X41812500Y-47500000D03*
X41812500Y-47900000D03*
X41812500Y-48300000D03*
X41812500Y-48700000D03*
X41812500Y-49100000D03*
X41812500Y-49500000D03*
X41812500Y-49900000D03*
X41812500Y-50300000D03*
D34*
X42500000Y-50987500D03*
X42900000Y-50987500D03*
X43300000Y-50987500D03*
X43700000Y-50987500D03*
X44100000Y-50987500D03*
X44500000Y-50987500D03*
X44900000Y-50987500D03*
X45300000Y-50987500D03*
X45700000Y-50987500D03*
X46100000Y-50987500D03*
D33*
X46787500Y-50300000D03*
X46787500Y-49900000D03*
X46787500Y-49500000D03*
X46787500Y-49100000D03*
X46787500Y-48700000D03*
X46787500Y-48300000D03*
X46787500Y-47900000D03*
X46787500Y-47500000D03*
X46787500Y-47100000D03*
X46787500Y-46700000D03*
D34*
X46100000Y-46012500D03*
X45700000Y-46012500D03*
X45300000Y-46012500D03*
X44900000Y-46012500D03*
X44500000Y-46012500D03*
X44100000Y-46012500D03*
X43700000Y-46012500D03*
X43300000Y-46012500D03*
X42900000Y-46012500D03*
X42500000Y-46012500D03*
%TD*%
D17*
%TO.C,R10*%
X50500000Y-47000000D03*
X49480002Y-47000000D03*
%TD*%
D31*
%TO.C,C6*%
X46900000Y-44480000D03*
X46900000Y-43520000D03*
%TD*%
D35*
%TO.C,D2*%
X40985000Y-44500000D03*
X40015000Y-44500000D03*
%TD*%
D15*
%TO.C,R2*%
X44290001Y-34400000D03*
X45309999Y-34400000D03*
%TD*%
D17*
%TO.C,R8*%
X43250000Y-37500000D03*
X42230002Y-37500000D03*
%TD*%
%TO.C,R13*%
X43009999Y-43500000D03*
X41990001Y-43500000D03*
%TD*%
D31*
%TO.C,C4*%
X43700000Y-60400000D03*
X43700000Y-59440000D03*
%TD*%
D24*
%TO.C,C11*%
X51500000Y-38020000D03*
X51500000Y-38980000D03*
%TD*%
D36*
%TO.C,Y1*%
X39450000Y-52800000D03*
X39450000Y-54200000D03*
X40550000Y-54200000D03*
X40550000Y-52800000D03*
%TD*%
D37*
%TO.C,C12*%
X51662501Y-56800000D03*
X49937499Y-56800000D03*
%TD*%
D15*
%TO.C,R11*%
X51500000Y-47000000D03*
X52519998Y-47000000D03*
%TD*%
D31*
%TO.C,C2*%
X45700000Y-44480000D03*
X45700000Y-43520000D03*
%TD*%
D15*
%TO.C,R1*%
X44290001Y-33400000D03*
X45309999Y-33400000D03*
%TD*%
M02*
