M48
; DRILL file {KiCad 9.0.5} date 2026-01-28T11:34:38-0500
; FORMAT={-:-/ absolute / metric / decimal}
; #@! TF.CreationDate,2026-01-28T11:34:38-05:00
; #@! TF.GenerationSoftware,Kicad,Pcbnew,9.0.5
; #@! TF.FileFunction,MixedPlating,1,4
FMAT,2
METRIC
; #@! TA.AperFunction,Plated,PTH,ViaDrill
T1C0.300
; #@! TA.AperFunction,Plated,PTH,ComponentDrill
T2C0.500
; #@! TA.AperFunction,Plated,PTH,ComponentDrill
T3C0.600
; #@! TA.AperFunction,Plated,PTH,ComponentDrill
T4C0.700
; #@! TA.AperFunction,Plated,PTH,ComponentDrill
T5C1.100
; #@! TA.AperFunction,NonPlated,NPTH,ComponentDrill
T6C0.991
; #@! TA.AperFunction,NonPlated,NPTH,ComponentDrill
T7C2.200
%
G90
G05
T1
X34.18Y-54.1
X35.3Y-54.2
X36.0Y-54.2
X37.1Y-54.1
X37.9Y-60.4
X37.9Y-61.7
X38.7Y-54.2
X39.4Y-37.5
X40.1Y-46.7
X40.6Y-45.4
X40.6Y-52.0
X40.9Y-47.3
X41.5Y-42.5
X41.5Y-43.5
X41.6Y-37.5
X41.6Y-40.0
X42.3Y-51.6
X42.5Y-61.7
X42.7Y-46.9
X42.7Y-48.5
X42.7Y-50.1
X42.9Y-54.1
X43.7Y-40.0
X44.2Y-34.9
X44.3Y-46.9
X44.3Y-48.5
X44.3Y-50.1
X44.4Y-52.0
X44.5Y-42.9
X44.5Y-45.2
X45.1Y-40.0
X45.7Y-42.9
X45.9Y-45.2
X45.9Y-46.9
X45.9Y-48.5
X45.9Y-50.1
X46.3Y-40.0
X46.7Y-39.0
X46.9Y-42.9
X47.5Y-51.0
X47.7Y-61.3
X48.3Y-51.0
X48.3Y-56.5
X49.0Y-58.6
X49.0Y-61.3
X49.1Y-51.0
X49.5Y-47.6
X49.55Y-48.575
X49.9Y-56.0
X49.926Y-53.3
X49.95Y-38.65
X50.27Y-58.6
X50.3Y-61.3
X50.5Y-47.95
X50.6Y-44.5
X50.8Y-38.05
X50.805Y-53.305
X51.4Y-34.5
X51.4Y-35.5
X51.4Y-36.5
X51.5Y-39.6
X51.7Y-56.0
X52.2Y-38.05
X52.5Y-46.4
X53.425Y-48.575
X54.4Y-33.6
T2
X44.5Y-37.5
X45.75Y-37.5
T4
X57.0Y-53.5
X59.0Y-52.5
X59.0Y-54.5
T5
X59.0Y-40.0
X59.0Y-43.5
X59.0Y-47.0
T6
X46.46Y-60.0
X51.54Y-58.984
X51.54Y-61.016
T7
X35.0Y-35.0
X35.0Y-60.0
X60.0Y-35.0
X60.0Y-60.0
T3
G00X34.3Y-38.68
M15
G01X33.7Y-38.68
M16
G05
G00X34.3Y-47.32
M15
G01X33.7Y-47.32
M16
G05
G00X38.1Y-38.68
M15
G01X37.5Y-38.68
M16
G05
G00X38.1Y-47.32
M15
G01X37.5Y-47.32
M16
G05
M30
