%TF.GenerationSoftware,KiCad,Pcbnew,10.0.0*%
%TF.CreationDate,2026-07-16T10:13:45-04:00*%
%TF.ProjectId,lmp91000-pcb,6c6d7039-3130-4303-902d-7063622e6b69,v1.0*%
%TF.SameCoordinates,Original*%
%TF.FileFunction,Legend,Top*%
%TF.FilePolarity,Positive*%
%FSLAX46Y46*%
G04 Gerber Fmt 4.6, Leading zero omitted, Abs format (unit mm)*
G04 Created by KiCad (PCBNEW 10.0.0) date 2026-07-16 10:13:45*
%MOMM*%
%LPD*%
G01*
G04 APERTURE LIST*
%ADD10C,0.100000*%
%ADD11C,0.150000*%
%ADD12C,0.200000*%
%ADD13C,0.120000*%
%ADD14C,0.127000*%
%ADD15C,0.250000*%
%ADD16C,0.152400*%
%ADD17C,0.000000*%
G04 APERTURE END LIST*
D10*
X96600000Y-58930000D02*
X96300000Y-58630000D01*
X96900000Y-58630000D01*
X96600000Y-58930000D01*
G36*
X96600000Y-58930000D02*
G01*
X96300000Y-58630000D01*
X96900000Y-58630000D01*
X96600000Y-58930000D01*
G37*
D11*
X96000000Y-73500000D02*
X100000000Y-73500000D01*
X100000000Y-79500000D01*
X96000000Y-79500000D01*
X96000000Y-73500000D01*
X101200000Y-76110000D02*
X102500000Y-76110000D01*
X102500000Y-79500000D01*
X101200000Y-79500000D01*
X101200000Y-76110000D01*
X102500000Y-75500000D02*
X109500000Y-75500000D01*
X109500000Y-79500000D01*
X102500000Y-79500000D01*
X102500000Y-75500000D01*
D10*
X104550000Y-72400000D02*
X108974523Y-72400000D01*
X108974523Y-73800000D01*
X104550000Y-73800000D01*
X104550000Y-72400000D01*
X104550000Y-74000000D02*
X109097597Y-74000000D01*
X109097597Y-75400000D01*
X104550000Y-75400000D01*
X104550000Y-74000000D01*
D11*
X106750000Y-55260000D02*
X108050000Y-55260000D01*
X108050000Y-65740000D01*
X106750000Y-65740000D01*
X106750000Y-55260000D01*
D12*
X106800000Y-55350000D02*
X108000000Y-55350000D01*
X106800000Y-65650000D02*
X108000000Y-65650000D01*
D11*
X108200000Y-51000000D02*
X114000000Y-51000000D01*
X114000000Y-53900000D01*
X108200000Y-53900000D01*
X108200000Y-51000000D01*
X109412142Y-73000000D02*
X113020501Y-73000000D01*
X113020501Y-74200000D01*
X109412142Y-74200000D01*
X109412142Y-73000000D01*
X87192200Y-63499999D02*
X87239819Y-63357142D01*
X87239819Y-63357142D02*
X87239819Y-63119047D01*
X87239819Y-63119047D02*
X87192200Y-63023809D01*
X87192200Y-63023809D02*
X87144580Y-62976190D01*
X87144580Y-62976190D02*
X87049342Y-62928571D01*
X87049342Y-62928571D02*
X86954104Y-62928571D01*
X86954104Y-62928571D02*
X86858866Y-62976190D01*
X86858866Y-62976190D02*
X86811247Y-63023809D01*
X86811247Y-63023809D02*
X86763628Y-63119047D01*
X86763628Y-63119047D02*
X86716009Y-63309523D01*
X86716009Y-63309523D02*
X86668390Y-63404761D01*
X86668390Y-63404761D02*
X86620771Y-63452380D01*
X86620771Y-63452380D02*
X86525533Y-63499999D01*
X86525533Y-63499999D02*
X86430295Y-63499999D01*
X86430295Y-63499999D02*
X86335057Y-63452380D01*
X86335057Y-63452380D02*
X86287438Y-63404761D01*
X86287438Y-63404761D02*
X86239819Y-63309523D01*
X86239819Y-63309523D02*
X86239819Y-63071428D01*
X86239819Y-63071428D02*
X86287438Y-62928571D01*
X87239819Y-62499999D02*
X86573152Y-62499999D01*
X86239819Y-62499999D02*
X86287438Y-62547618D01*
X86287438Y-62547618D02*
X86335057Y-62499999D01*
X86335057Y-62499999D02*
X86287438Y-62452380D01*
X86287438Y-62452380D02*
X86239819Y-62499999D01*
X86239819Y-62499999D02*
X86335057Y-62499999D01*
X86573152Y-61595238D02*
X87382676Y-61595238D01*
X87382676Y-61595238D02*
X87477914Y-61642857D01*
X87477914Y-61642857D02*
X87525533Y-61690476D01*
X87525533Y-61690476D02*
X87573152Y-61785714D01*
X87573152Y-61785714D02*
X87573152Y-61928571D01*
X87573152Y-61928571D02*
X87525533Y-62023809D01*
X87192200Y-61595238D02*
X87239819Y-61690476D01*
X87239819Y-61690476D02*
X87239819Y-61880952D01*
X87239819Y-61880952D02*
X87192200Y-61976190D01*
X87192200Y-61976190D02*
X87144580Y-62023809D01*
X87144580Y-62023809D02*
X87049342Y-62071428D01*
X87049342Y-62071428D02*
X86763628Y-62071428D01*
X86763628Y-62071428D02*
X86668390Y-62023809D01*
X86668390Y-62023809D02*
X86620771Y-61976190D01*
X86620771Y-61976190D02*
X86573152Y-61880952D01*
X86573152Y-61880952D02*
X86573152Y-61690476D01*
X86573152Y-61690476D02*
X86620771Y-61595238D01*
X87239819Y-61119047D02*
X86573152Y-61119047D01*
X86668390Y-61119047D02*
X86620771Y-61071428D01*
X86620771Y-61071428D02*
X86573152Y-60976190D01*
X86573152Y-60976190D02*
X86573152Y-60833333D01*
X86573152Y-60833333D02*
X86620771Y-60738095D01*
X86620771Y-60738095D02*
X86716009Y-60690476D01*
X86716009Y-60690476D02*
X87239819Y-60690476D01*
X86716009Y-60690476D02*
X86620771Y-60642857D01*
X86620771Y-60642857D02*
X86573152Y-60547619D01*
X86573152Y-60547619D02*
X86573152Y-60404762D01*
X86573152Y-60404762D02*
X86620771Y-60309523D01*
X86620771Y-60309523D02*
X86716009Y-60261904D01*
X86716009Y-60261904D02*
X87239819Y-60261904D01*
X87239819Y-59642857D02*
X87192200Y-59738095D01*
X87192200Y-59738095D02*
X87144580Y-59785714D01*
X87144580Y-59785714D02*
X87049342Y-59833333D01*
X87049342Y-59833333D02*
X86763628Y-59833333D01*
X86763628Y-59833333D02*
X86668390Y-59785714D01*
X86668390Y-59785714D02*
X86620771Y-59738095D01*
X86620771Y-59738095D02*
X86573152Y-59642857D01*
X86573152Y-59642857D02*
X86573152Y-59500000D01*
X86573152Y-59500000D02*
X86620771Y-59404762D01*
X86620771Y-59404762D02*
X86668390Y-59357143D01*
X86668390Y-59357143D02*
X86763628Y-59309524D01*
X86763628Y-59309524D02*
X87049342Y-59309524D01*
X87049342Y-59309524D02*
X87144580Y-59357143D01*
X87144580Y-59357143D02*
X87192200Y-59404762D01*
X87192200Y-59404762D02*
X87239819Y-59500000D01*
X87239819Y-59500000D02*
X87239819Y-59642857D01*
X86573152Y-58880952D02*
X87239819Y-58880952D01*
X86668390Y-58880952D02*
X86620771Y-58833333D01*
X86620771Y-58833333D02*
X86573152Y-58738095D01*
X86573152Y-58738095D02*
X86573152Y-58595238D01*
X86573152Y-58595238D02*
X86620771Y-58500000D01*
X86620771Y-58500000D02*
X86716009Y-58452381D01*
X86716009Y-58452381D02*
X87239819Y-58452381D01*
X87239819Y-57547619D02*
X86239819Y-57547619D01*
X87192200Y-57547619D02*
X87239819Y-57642857D01*
X87239819Y-57642857D02*
X87239819Y-57833333D01*
X87239819Y-57833333D02*
X87192200Y-57928571D01*
X87192200Y-57928571D02*
X87144580Y-57976190D01*
X87144580Y-57976190D02*
X87049342Y-58023809D01*
X87049342Y-58023809D02*
X86763628Y-58023809D01*
X86763628Y-58023809D02*
X86668390Y-57976190D01*
X86668390Y-57976190D02*
X86620771Y-57928571D01*
X86620771Y-57928571D02*
X86573152Y-57833333D01*
X86573152Y-57833333D02*
X86573152Y-57642857D01*
X86573152Y-57642857D02*
X86620771Y-57547619D01*
X88849763Y-64619047D02*
X87849763Y-64619047D01*
X88849763Y-64047619D02*
X88278334Y-64476190D01*
X87849763Y-64047619D02*
X88421191Y-64619047D01*
X88183096Y-63190476D02*
X88849763Y-63190476D01*
X88183096Y-63619047D02*
X88706905Y-63619047D01*
X88706905Y-63619047D02*
X88802144Y-63571428D01*
X88802144Y-63571428D02*
X88849763Y-63476190D01*
X88849763Y-63476190D02*
X88849763Y-63333333D01*
X88849763Y-63333333D02*
X88802144Y-63238095D01*
X88802144Y-63238095D02*
X88754524Y-63190476D01*
X88849763Y-62714285D02*
X87849763Y-62714285D01*
X88468810Y-62619047D02*
X88849763Y-62333333D01*
X88183096Y-62333333D02*
X88564048Y-62714285D01*
X88849763Y-61761904D02*
X88802144Y-61857142D01*
X88802144Y-61857142D02*
X88706905Y-61904761D01*
X88706905Y-61904761D02*
X87849763Y-61904761D01*
X88849763Y-60952380D02*
X88325953Y-60952380D01*
X88325953Y-60952380D02*
X88230715Y-60999999D01*
X88230715Y-60999999D02*
X88183096Y-61095237D01*
X88183096Y-61095237D02*
X88183096Y-61285713D01*
X88183096Y-61285713D02*
X88230715Y-61380951D01*
X88802144Y-60952380D02*
X88849763Y-61047618D01*
X88849763Y-61047618D02*
X88849763Y-61285713D01*
X88849763Y-61285713D02*
X88802144Y-61380951D01*
X88802144Y-61380951D02*
X88706905Y-61428570D01*
X88706905Y-61428570D02*
X88611667Y-61428570D01*
X88611667Y-61428570D02*
X88516429Y-61380951D01*
X88516429Y-61380951D02*
X88468810Y-61285713D01*
X88468810Y-61285713D02*
X88468810Y-61047618D01*
X88468810Y-61047618D02*
X88421191Y-60952380D01*
X87945001Y-59761903D02*
X87897382Y-59714284D01*
X87897382Y-59714284D02*
X87849763Y-59619046D01*
X87849763Y-59619046D02*
X87849763Y-59380951D01*
X87849763Y-59380951D02*
X87897382Y-59285713D01*
X87897382Y-59285713D02*
X87945001Y-59238094D01*
X87945001Y-59238094D02*
X88040239Y-59190475D01*
X88040239Y-59190475D02*
X88135477Y-59190475D01*
X88135477Y-59190475D02*
X88278334Y-59238094D01*
X88278334Y-59238094D02*
X88849763Y-59809522D01*
X88849763Y-59809522D02*
X88849763Y-59190475D01*
X87849763Y-58571427D02*
X87849763Y-58476189D01*
X87849763Y-58476189D02*
X87897382Y-58380951D01*
X87897382Y-58380951D02*
X87945001Y-58333332D01*
X87945001Y-58333332D02*
X88040239Y-58285713D01*
X88040239Y-58285713D02*
X88230715Y-58238094D01*
X88230715Y-58238094D02*
X88468810Y-58238094D01*
X88468810Y-58238094D02*
X88659286Y-58285713D01*
X88659286Y-58285713D02*
X88754524Y-58333332D01*
X88754524Y-58333332D02*
X88802144Y-58380951D01*
X88802144Y-58380951D02*
X88849763Y-58476189D01*
X88849763Y-58476189D02*
X88849763Y-58571427D01*
X88849763Y-58571427D02*
X88802144Y-58666665D01*
X88802144Y-58666665D02*
X88754524Y-58714284D01*
X88754524Y-58714284D02*
X88659286Y-58761903D01*
X88659286Y-58761903D02*
X88468810Y-58809522D01*
X88468810Y-58809522D02*
X88230715Y-58809522D01*
X88230715Y-58809522D02*
X88040239Y-58761903D01*
X88040239Y-58761903D02*
X87945001Y-58714284D01*
X87945001Y-58714284D02*
X87897382Y-58666665D01*
X87897382Y-58666665D02*
X87849763Y-58571427D01*
X87945001Y-57857141D02*
X87897382Y-57809522D01*
X87897382Y-57809522D02*
X87849763Y-57714284D01*
X87849763Y-57714284D02*
X87849763Y-57476189D01*
X87849763Y-57476189D02*
X87897382Y-57380951D01*
X87897382Y-57380951D02*
X87945001Y-57333332D01*
X87945001Y-57333332D02*
X88040239Y-57285713D01*
X88040239Y-57285713D02*
X88135477Y-57285713D01*
X88135477Y-57285713D02*
X88278334Y-57333332D01*
X88278334Y-57333332D02*
X88849763Y-57904760D01*
X88849763Y-57904760D02*
X88849763Y-57285713D01*
X87849763Y-56428570D02*
X87849763Y-56619046D01*
X87849763Y-56619046D02*
X87897382Y-56714284D01*
X87897382Y-56714284D02*
X87945001Y-56761903D01*
X87945001Y-56761903D02*
X88087858Y-56857141D01*
X88087858Y-56857141D02*
X88278334Y-56904760D01*
X88278334Y-56904760D02*
X88659286Y-56904760D01*
X88659286Y-56904760D02*
X88754524Y-56857141D01*
X88754524Y-56857141D02*
X88802144Y-56809522D01*
X88802144Y-56809522D02*
X88849763Y-56714284D01*
X88849763Y-56714284D02*
X88849763Y-56523808D01*
X88849763Y-56523808D02*
X88802144Y-56428570D01*
X88802144Y-56428570D02*
X88754524Y-56380951D01*
X88754524Y-56380951D02*
X88659286Y-56333332D01*
X88659286Y-56333332D02*
X88421191Y-56333332D01*
X88421191Y-56333332D02*
X88325953Y-56380951D01*
X88325953Y-56380951D02*
X88278334Y-56428570D01*
X88278334Y-56428570D02*
X88230715Y-56523808D01*
X88230715Y-56523808D02*
X88230715Y-56714284D01*
X88230715Y-56714284D02*
X88278334Y-56809522D01*
X88278334Y-56809522D02*
X88325953Y-56857141D01*
X88325953Y-56857141D02*
X88421191Y-56904760D01*
G36*
X108418353Y-74350062D02*
G01*
X108452496Y-74354810D01*
X108480512Y-74363557D01*
X108514008Y-74383134D01*
X108534429Y-74407154D01*
X108546047Y-74436760D01*
X108550183Y-74473527D01*
X108546670Y-74514591D01*
X108537543Y-74543075D01*
X108521700Y-74567348D01*
X108497609Y-74590458D01*
X108466231Y-74608341D01*
X108426535Y-74618852D01*
X108381622Y-74623366D01*
X108321327Y-74625080D01*
X108240727Y-74625080D01*
X108240727Y-74347620D01*
X108335676Y-74347620D01*
X108418353Y-74350062D01*
G37*
G36*
X109070523Y-75291111D02*
G01*
X107868704Y-75291111D01*
X107868704Y-74625080D01*
X107979815Y-74625080D01*
X107979815Y-75180000D01*
X108240727Y-75180000D01*
X108240727Y-74808750D01*
X108361627Y-74808750D01*
X108639026Y-75180000D01*
X108959412Y-75180000D01*
X108619853Y-74745858D01*
X108681529Y-74710410D01*
X108730738Y-74670982D01*
X108769146Y-74627583D01*
X108797290Y-74577679D01*
X108815063Y-74517209D01*
X108821414Y-74443607D01*
X108817308Y-74389788D01*
X108805784Y-74344847D01*
X108787587Y-74307198D01*
X108748116Y-74258119D01*
X108696423Y-74218660D01*
X108637594Y-74190428D01*
X108574790Y-74174207D01*
X108506820Y-74166731D01*
X108419757Y-74163949D01*
X107979815Y-74163949D01*
X107979815Y-74625080D01*
X107868704Y-74625080D01*
X107868704Y-74052838D01*
X109070523Y-74052838D01*
X109070523Y-75291111D01*
G37*
G36*
X108960666Y-73760650D02*
G01*
X107859230Y-73760650D01*
X107859230Y-73123012D01*
X107970341Y-73123012D01*
X107974857Y-73208790D01*
X107987749Y-73284524D01*
X108008260Y-73351502D01*
X108037589Y-73414860D01*
X108073217Y-73469560D01*
X108115177Y-73516549D01*
X108163740Y-73556696D01*
X108218493Y-73589855D01*
X108280163Y-73616139D01*
X108344943Y-73634443D01*
X108414521Y-73645686D01*
X108489541Y-73649539D01*
X108561951Y-73647376D01*
X108609769Y-73641967D01*
X108703375Y-73620047D01*
X108776404Y-73593974D01*
X108849555Y-73561673D01*
X108849555Y-73317369D01*
X108822199Y-73317369D01*
X108775061Y-73356936D01*
X108712901Y-73399984D01*
X108671720Y-73422255D01*
X108626500Y-73439551D01*
X108579329Y-73450518D01*
X108531917Y-73454145D01*
X108482146Y-73450201D01*
X108430800Y-73438086D01*
X108382203Y-73416798D01*
X108337866Y-73384474D01*
X108301405Y-73342314D01*
X108269905Y-73283480D01*
X108255558Y-73239815D01*
X108246263Y-73187101D01*
X108242916Y-73123684D01*
X108249612Y-73036179D01*
X108267829Y-72968040D01*
X108297493Y-72908792D01*
X108333103Y-72864909D01*
X108377882Y-72829977D01*
X108425305Y-72807206D01*
X108476258Y-72794203D01*
X108530512Y-72789804D01*
X108579283Y-72793675D01*
X108624118Y-72805008D01*
X108666594Y-72822074D01*
X108705390Y-72842316D01*
X108771275Y-72887196D01*
X108819513Y-72926580D01*
X108849555Y-72926580D01*
X108849555Y-72679345D01*
X108784281Y-72649548D01*
X108701299Y-72620422D01*
X108605983Y-72601615D01*
X108552884Y-72596313D01*
X108490212Y-72594410D01*
X108413471Y-72598650D01*
X108342307Y-72611032D01*
X108276011Y-72631229D01*
X108213137Y-72659765D01*
X108158692Y-72694541D01*
X108111758Y-72735582D01*
X108069725Y-72785101D01*
X108034697Y-72841034D01*
X108006550Y-72904110D01*
X107986798Y-72970488D01*
X107974567Y-73043166D01*
X107970341Y-73123012D01*
X107859230Y-73123012D01*
X107859230Y-72483299D01*
X108960666Y-72483299D01*
X108960666Y-73760650D01*
G37*
G36*
X110776505Y-73177145D02*
G01*
X110815364Y-73182294D01*
X110856434Y-73194975D01*
X110884752Y-73211357D01*
X110910351Y-73237840D01*
X110927654Y-73271047D01*
X110933615Y-73311051D01*
X110930568Y-73352348D01*
X110922318Y-73384263D01*
X110907658Y-73412032D01*
X110885804Y-73435860D01*
X110853590Y-73455817D01*
X110813020Y-73468283D01*
X110766743Y-73474104D01*
X110702744Y-73476343D01*
X110627578Y-73476343D01*
X110627578Y-73175436D01*
X110672641Y-73175436D01*
X110776505Y-73177145D01*
G37*
G36*
X113098320Y-74111111D02*
G01*
X109298673Y-74111111D01*
X109298673Y-74000000D01*
X109409784Y-74000000D01*
X110145504Y-74000000D01*
X110145504Y-73804605D01*
X109670696Y-73804605D01*
X109670696Y-73550593D01*
X110111310Y-73550593D01*
X110111310Y-73476343D01*
X110365262Y-73476343D01*
X110365262Y-74000000D01*
X110627578Y-74000000D01*
X112062261Y-74000000D01*
X112302718Y-74000000D01*
X112302718Y-73302625D01*
X112734417Y-74000000D01*
X112987209Y-74000000D01*
X112987209Y-72983949D01*
X112746751Y-72983949D01*
X112746751Y-73566041D01*
X112375808Y-72983949D01*
X112062261Y-72983949D01*
X112062261Y-74000000D01*
X110627578Y-74000000D01*
X110627578Y-73667829D01*
X110790855Y-73667829D01*
X110864771Y-73664023D01*
X110926168Y-73653459D01*
X110954488Y-73644382D01*
X111336432Y-73644382D01*
X111857646Y-73644382D01*
X111857646Y-73448988D01*
X111336432Y-73448988D01*
X111336432Y-73644382D01*
X110954488Y-73644382D01*
X110976968Y-73637177D01*
X111024928Y-73613688D01*
X111070037Y-73583624D01*
X111112584Y-73546563D01*
X111151426Y-73497774D01*
X111180850Y-73437264D01*
X111198826Y-73371321D01*
X111204785Y-73304091D01*
X111200888Y-73246244D01*
X111189841Y-73196499D01*
X111172301Y-73153576D01*
X111147571Y-73114424D01*
X111116459Y-73080260D01*
X111078390Y-73050689D01*
X111024158Y-73021876D01*
X110960542Y-73000680D01*
X110890106Y-72988525D01*
X110796961Y-72983949D01*
X110365262Y-72983949D01*
X110365262Y-73476343D01*
X110111310Y-73476343D01*
X110111310Y-73355198D01*
X109670696Y-73355198D01*
X109670696Y-73179344D01*
X110145504Y-73179344D01*
X110145504Y-72983949D01*
X109409784Y-72983949D01*
X109409784Y-74000000D01*
X109298673Y-74000000D01*
X109298673Y-72872838D01*
X113098320Y-72872838D01*
X113098320Y-74111111D01*
G37*
G36*
X89391163Y-54157145D02*
G01*
X89430022Y-54162294D01*
X89471092Y-54174975D01*
X89499410Y-54191357D01*
X89525009Y-54217840D01*
X89542312Y-54251047D01*
X89548273Y-54291051D01*
X89545226Y-54332348D01*
X89536976Y-54364263D01*
X89522316Y-54392032D01*
X89500462Y-54415860D01*
X89468248Y-54435817D01*
X89427678Y-54448283D01*
X89381401Y-54454104D01*
X89317402Y-54456343D01*
X89242236Y-54456343D01*
X89242236Y-54155436D01*
X89287299Y-54155436D01*
X89391163Y-54157145D01*
G37*
G36*
X92024040Y-54150062D02*
G01*
X92058183Y-54154810D01*
X92086200Y-54163557D01*
X92119696Y-54183134D01*
X92140117Y-54207154D01*
X92151735Y-54236760D01*
X92155870Y-54273527D01*
X92152357Y-54314591D01*
X92143231Y-54343075D01*
X92127387Y-54367348D01*
X92103297Y-54390458D01*
X92071919Y-54408341D01*
X92032222Y-54418852D01*
X91987310Y-54423366D01*
X91927015Y-54425080D01*
X91846415Y-54425080D01*
X91846415Y-54147620D01*
X91941364Y-54147620D01*
X92024040Y-54150062D01*
G37*
G36*
X92676210Y-55091111D02*
G01*
X88868809Y-55091111D01*
X88868809Y-54456343D01*
X88979920Y-54456343D01*
X88979920Y-54980000D01*
X89242236Y-54980000D01*
X89242236Y-54647829D01*
X89405513Y-54647829D01*
X89479429Y-54644023D01*
X89540826Y-54633459D01*
X89591626Y-54617177D01*
X89639586Y-54593688D01*
X89684695Y-54563624D01*
X89727242Y-54526563D01*
X89766084Y-54477774D01*
X89795508Y-54417264D01*
X89813484Y-54351321D01*
X89819443Y-54284091D01*
X89815546Y-54226244D01*
X89804499Y-54176499D01*
X89786959Y-54133576D01*
X89762229Y-54094424D01*
X89731117Y-54060260D01*
X89693048Y-54030689D01*
X89638816Y-54001876D01*
X89575200Y-53980680D01*
X89504764Y-53968525D01*
X89411619Y-53963949D01*
X89920987Y-53963949D01*
X90194906Y-54980000D01*
X90485249Y-54980000D01*
X90662875Y-54318101D01*
X90845263Y-54980000D01*
X91135607Y-54980000D01*
X91285208Y-54425080D01*
X91585502Y-54425080D01*
X91585502Y-54980000D01*
X91846415Y-54980000D01*
X91846415Y-54608750D01*
X91967315Y-54608750D01*
X92244714Y-54980000D01*
X92565099Y-54980000D01*
X92225541Y-54545858D01*
X92287217Y-54510410D01*
X92336426Y-54470982D01*
X92374834Y-54427583D01*
X92402978Y-54377679D01*
X92420751Y-54317209D01*
X92427102Y-54243607D01*
X92422996Y-54189788D01*
X92411471Y-54144847D01*
X92393274Y-54107198D01*
X92353804Y-54058119D01*
X92302111Y-54018660D01*
X92243282Y-53990428D01*
X92180478Y-53974207D01*
X92112507Y-53966731D01*
X92025445Y-53963949D01*
X91585502Y-53963949D01*
X91585502Y-54425080D01*
X91285208Y-54425080D01*
X91409525Y-53963949D01*
X91142446Y-53963949D01*
X90978498Y-54663400D01*
X90800200Y-53963949D01*
X90538555Y-53963949D01*
X90351343Y-54663400D01*
X90194906Y-53963949D01*
X89920987Y-53963949D01*
X89411619Y-53963949D01*
X88979920Y-53963949D01*
X88979920Y-54456343D01*
X88868809Y-54456343D01*
X88868809Y-53852838D01*
X92676210Y-53852838D01*
X92676210Y-55091111D01*
G37*
G36*
X93743292Y-63092988D02*
G01*
X93794331Y-63096059D01*
X93827983Y-63102575D01*
X93868058Y-63119895D01*
X93891852Y-63141959D01*
X93905442Y-63171908D01*
X93910659Y-63216941D01*
X93906684Y-63252300D01*
X93895272Y-63282337D01*
X93874685Y-63306951D01*
X93838913Y-63327827D01*
X93797207Y-63340768D01*
X93750802Y-63345657D01*
X93592289Y-63346329D01*
X93573177Y-63346329D01*
X93573177Y-63092316D01*
X93630574Y-63092316D01*
X93743292Y-63092988D01*
G37*
G36*
X93717646Y-62698658D02*
G01*
X93758360Y-62702481D01*
X93789026Y-62710809D01*
X93816807Y-62727083D01*
X93833784Y-62749033D01*
X93843347Y-62775083D01*
X93846423Y-62800446D01*
X93843561Y-62832490D01*
X93835493Y-62859187D01*
X93819453Y-62881235D01*
X93789026Y-62900464D01*
X93761179Y-62909443D01*
X93720028Y-62914385D01*
X93614148Y-62916461D01*
X93573177Y-62916461D01*
X93573177Y-62697620D01*
X93597784Y-62697620D01*
X93717646Y-62698658D01*
G37*
G36*
X94293673Y-63660650D02*
G01*
X91056029Y-63660650D01*
X91056029Y-63161864D01*
X91167140Y-63161864D01*
X91172269Y-63237300D01*
X91186822Y-63302293D01*
X91209961Y-63358484D01*
X91241430Y-63407202D01*
X91281568Y-63449399D01*
X91327926Y-63483200D01*
X91383250Y-63510640D01*
X91449020Y-63531414D01*
X91527034Y-63544767D01*
X91619356Y-63549539D01*
X91711662Y-63544771D01*
X91789709Y-63531423D01*
X91855550Y-63510653D01*
X91910972Y-63483210D01*
X91957449Y-63449399D01*
X91997703Y-63407192D01*
X92029270Y-63358413D01*
X92052487Y-63302101D01*
X92067094Y-63236913D01*
X92067892Y-63225184D01*
X92262325Y-63225184D01*
X92262325Y-63470526D01*
X92346405Y-63501560D01*
X92438241Y-63527191D01*
X92536365Y-63543547D01*
X92658548Y-63549539D01*
X92768900Y-63542824D01*
X92861560Y-63524032D01*
X92939320Y-63494686D01*
X93004518Y-63455566D01*
X93051562Y-63414484D01*
X93086851Y-63370124D01*
X93111713Y-63322037D01*
X93126782Y-63269400D01*
X93131952Y-63211079D01*
X93125277Y-63142865D01*
X93106469Y-63086597D01*
X93076265Y-63039804D01*
X93035277Y-63001093D01*
X92978953Y-62966165D01*
X92903768Y-62935512D01*
X92833515Y-62916461D01*
X93312264Y-62916461D01*
X93312264Y-63346329D01*
X93312264Y-63530000D01*
X93756298Y-63530000D01*
X93862044Y-63524725D01*
X93938991Y-63510949D01*
X94008049Y-63485448D01*
X94071188Y-63446957D01*
X94117536Y-63403975D01*
X94152826Y-63351031D01*
X94169109Y-63311463D01*
X94179111Y-63267932D01*
X94182562Y-63219689D01*
X94175601Y-63154381D01*
X94155945Y-63100784D01*
X94124127Y-63056352D01*
X94081879Y-63020575D01*
X94029816Y-62993258D01*
X93965980Y-62974652D01*
X93965980Y-62969157D01*
X94010742Y-62944752D01*
X94047045Y-62915490D01*
X94075950Y-62881229D01*
X94097435Y-62842014D01*
X94110441Y-62798876D01*
X94114907Y-62750804D01*
X94107616Y-62689882D01*
X94086514Y-62637536D01*
X94064797Y-62607215D01*
X94036339Y-62580926D01*
X94000174Y-62558463D01*
X93943293Y-62535165D01*
X93887090Y-62522192D01*
X93821765Y-62516409D01*
X93707083Y-62513949D01*
X93312264Y-62513949D01*
X93312264Y-62916461D01*
X92833515Y-62916461D01*
X92792760Y-62905409D01*
X92685171Y-62882817D01*
X92607263Y-62861957D01*
X92569033Y-62843555D01*
X92552027Y-62827173D01*
X92541883Y-62806952D01*
X92538320Y-62781639D01*
X92543046Y-62755623D01*
X92557432Y-62732363D01*
X92578494Y-62713431D01*
X92603227Y-62700062D01*
X92633852Y-62689349D01*
X92665692Y-62682721D01*
X92730966Y-62678080D01*
X92792287Y-62681797D01*
X92852823Y-62692955D01*
X92912988Y-62711725D01*
X92996978Y-62750424D01*
X93063625Y-62795317D01*
X93091652Y-62795317D01*
X93091652Y-62562309D01*
X93016185Y-62536402D01*
X92921842Y-62513766D01*
X92823302Y-62499255D01*
X92723456Y-62494410D01*
X92623037Y-62500653D01*
X92536260Y-62518357D01*
X92461100Y-62546418D01*
X92395865Y-62584352D01*
X92348461Y-62623937D01*
X92313164Y-62666369D01*
X92288467Y-62712039D01*
X92273582Y-62761720D01*
X92268492Y-62816505D01*
X92275136Y-62885218D01*
X92294087Y-62943677D01*
X92324851Y-62993948D01*
X92366956Y-63035571D01*
X92427025Y-63073479D01*
X92509621Y-63107093D01*
X92566894Y-63123774D01*
X92629544Y-63137562D01*
X92750750Y-63163147D01*
X92801035Y-63179989D01*
X92833731Y-63200455D01*
X92855226Y-63227426D01*
X92862125Y-63258218D01*
X92856831Y-63292582D01*
X92842646Y-63315249D01*
X92821075Y-63332524D01*
X92793126Y-63347306D01*
X92766559Y-63355513D01*
X92729562Y-63361594D01*
X92666730Y-63365868D01*
X92605371Y-63362005D01*
X92540998Y-63350094D01*
X92473046Y-63329476D01*
X92407854Y-63301593D01*
X92347320Y-63266890D01*
X92291024Y-63225184D01*
X92262325Y-63225184D01*
X92067892Y-63225184D01*
X92072243Y-63161193D01*
X92072243Y-62513949D01*
X91808583Y-62513949D01*
X91808583Y-63148370D01*
X91802561Y-63220485D01*
X91786714Y-63272047D01*
X91763154Y-63308227D01*
X91729502Y-63334551D01*
X91682995Y-63351668D01*
X91619356Y-63358053D01*
X91554966Y-63351389D01*
X91508431Y-63333571D01*
X91475192Y-63306151D01*
X91451985Y-63268897D01*
X91436579Y-63217743D01*
X91430800Y-63148370D01*
X91430800Y-62513949D01*
X91167140Y-62513949D01*
X91167140Y-63161864D01*
X91056029Y-63161864D01*
X91056029Y-62383299D01*
X94293673Y-62383299D01*
X94293673Y-63660650D01*
G37*
G36*
X109870604Y-53357948D02*
G01*
X109574826Y-53357948D01*
X109870604Y-52990423D01*
X109870604Y-53357948D01*
G37*
G36*
X110552143Y-53895018D02*
G01*
X108208062Y-53895018D01*
X108208062Y-53780000D01*
X108402521Y-53780000D01*
X108683950Y-53780000D01*
X108851989Y-53550839D01*
X109015937Y-53780000D01*
X109302861Y-53780000D01*
X109000916Y-53391226D01*
X109032668Y-53351109D01*
X109378088Y-53351109D01*
X109378088Y-53357948D01*
X109378088Y-53545526D01*
X109870604Y-53545526D01*
X109870604Y-53783907D01*
X110121319Y-53783907D01*
X110121319Y-53545526D01*
X110259988Y-53545526D01*
X110259988Y-53357948D01*
X110121319Y-53357948D01*
X110121319Y-52763949D01*
X109854179Y-52763949D01*
X109378088Y-53351109D01*
X109032668Y-53351109D01*
X109299442Y-53014054D01*
X109017341Y-53014054D01*
X108855408Y-53239124D01*
X108694208Y-53014054D01*
X108407284Y-53014054D01*
X108705138Y-53397393D01*
X108402521Y-53780000D01*
X108208062Y-53780000D01*
X108208062Y-52100000D01*
X108319173Y-52100000D01*
X108566468Y-52100000D01*
X108566468Y-51419844D01*
X108755024Y-51861618D01*
X108936008Y-51861618D01*
X109124563Y-51419844D01*
X109124563Y-52100000D01*
X109385476Y-52100000D01*
X109385476Y-51931228D01*
X109642480Y-51931228D01*
X109642480Y-52100000D01*
X110441032Y-52100000D01*
X110441032Y-51904605D01*
X109983993Y-51904605D01*
X110073447Y-51837500D01*
X110135637Y-51787592D01*
X110198499Y-51732231D01*
X110261896Y-51668159D01*
X110310254Y-51608833D01*
X110345717Y-51553689D01*
X110372640Y-51494471D01*
X110388570Y-51433866D01*
X110393893Y-51371057D01*
X110387118Y-51299449D01*
X110367898Y-51239209D01*
X110336902Y-51188071D01*
X110293449Y-51144521D01*
X110241904Y-51111625D01*
X110177932Y-51086597D01*
X110098927Y-51070314D01*
X110001762Y-51064410D01*
X109907129Y-51069680D01*
X109812168Y-51085598D01*
X109723708Y-51108340D01*
X109669103Y-51127852D01*
X109669103Y-51353593D01*
X109690963Y-51353593D01*
X109752575Y-51317964D01*
X109819679Y-51289052D01*
X109888745Y-51269794D01*
X109951875Y-51263712D01*
X110006723Y-51268487D01*
X110048692Y-51281450D01*
X110080652Y-51301386D01*
X110105067Y-51329295D01*
X110120062Y-51364233D01*
X110125409Y-51408365D01*
X110121737Y-51445968D01*
X110110400Y-51484688D01*
X110090544Y-51525174D01*
X110047684Y-51584665D01*
X109973063Y-51663660D01*
X109912447Y-51719070D01*
X109825846Y-51791338D01*
X109642480Y-51931228D01*
X109385476Y-51931228D01*
X109385476Y-51083949D01*
X109080844Y-51083949D01*
X108852660Y-51593989D01*
X108623804Y-51083949D01*
X108319173Y-51083949D01*
X108319173Y-52100000D01*
X108208062Y-52100000D01*
X108208062Y-50953299D01*
X110552143Y-50953299D01*
X110552143Y-53895018D01*
G37*
G36*
X101887699Y-78684357D02*
G01*
X101943385Y-78695820D01*
X101990075Y-78713721D01*
X102032123Y-78739963D01*
X102068319Y-78774687D01*
X102099129Y-78818928D01*
X102118170Y-78861401D01*
X102130026Y-78904291D01*
X102135982Y-78954257D01*
X102138513Y-79041617D01*
X102138513Y-79107868D01*
X101505436Y-79107868D01*
X101505436Y-79041617D01*
X101507539Y-78962282D01*
X101512580Y-78914916D01*
X101522771Y-78873587D01*
X101539385Y-78832606D01*
X101570286Y-78783589D01*
X101607183Y-78745447D01*
X101650516Y-78716835D01*
X101699118Y-78697099D01*
X101755559Y-78684655D01*
X101821303Y-78680259D01*
X101887699Y-78684357D01*
G37*
G36*
X101632490Y-77677269D02*
G01*
X101659187Y-77685336D01*
X101681235Y-77701377D01*
X101700464Y-77731803D01*
X101709443Y-77759651D01*
X101714385Y-77800802D01*
X101716139Y-77890256D01*
X101716461Y-77906681D01*
X101716461Y-77947653D01*
X101497620Y-77947653D01*
X101497620Y-77923046D01*
X101498658Y-77803183D01*
X101502481Y-77762470D01*
X101510809Y-77731803D01*
X101527083Y-77704023D01*
X101549033Y-77687046D01*
X101575083Y-77677482D01*
X101600446Y-77674406D01*
X101632490Y-77677269D01*
G37*
G36*
X102052300Y-77614145D02*
G01*
X102082337Y-77625558D01*
X102106951Y-77646144D01*
X102127827Y-77681917D01*
X102140768Y-77723622D01*
X102145657Y-77770027D01*
X102146329Y-77928541D01*
X102146329Y-77947653D01*
X101892316Y-77947653D01*
X101892316Y-77890256D01*
X101892988Y-77777538D01*
X101896059Y-77726499D01*
X101902575Y-77692847D01*
X101919895Y-77652771D01*
X101941959Y-77628977D01*
X101971908Y-77615387D01*
X102016941Y-77610170D01*
X102052300Y-77614145D01*
G37*
G36*
X102460650Y-79481295D02*
G01*
X101183299Y-79481295D01*
X101183299Y-79001317D01*
X101313949Y-79001317D01*
X101313949Y-79041617D01*
X101313949Y-79370184D01*
X102330000Y-79370184D01*
X102330000Y-79011575D01*
X102325220Y-78894108D01*
X102312292Y-78801221D01*
X102287546Y-78715581D01*
X102249460Y-78637944D01*
X102204486Y-78576665D01*
X102147548Y-78522127D01*
X102077208Y-78473996D01*
X102000061Y-78438293D01*
X101915850Y-78416553D01*
X101823012Y-78409089D01*
X101726291Y-78416223D01*
X101641539Y-78436653D01*
X101566802Y-78469539D01*
X101498930Y-78515019D01*
X101441542Y-78569990D01*
X101393756Y-78635197D01*
X101360869Y-78701457D01*
X101334771Y-78786871D01*
X101319570Y-78881362D01*
X101313949Y-79001317D01*
X101183299Y-79001317D01*
X101183299Y-77813747D01*
X101313949Y-77813747D01*
X101313949Y-77923046D01*
X101313949Y-78208565D01*
X102330000Y-78208565D01*
X102330000Y-77764532D01*
X102324725Y-77658786D01*
X102310949Y-77581838D01*
X102285448Y-77512780D01*
X102246957Y-77449642D01*
X102203975Y-77403294D01*
X102151031Y-77368004D01*
X102111463Y-77351721D01*
X102067932Y-77341718D01*
X102019689Y-77338267D01*
X101954381Y-77345229D01*
X101900784Y-77364884D01*
X101856352Y-77396702D01*
X101820575Y-77438951D01*
X101793258Y-77491013D01*
X101774652Y-77554849D01*
X101769157Y-77554849D01*
X101744752Y-77510088D01*
X101715490Y-77473785D01*
X101681229Y-77444879D01*
X101642014Y-77423395D01*
X101598876Y-77410389D01*
X101550804Y-77405922D01*
X101489882Y-77413213D01*
X101437536Y-77434316D01*
X101407215Y-77456032D01*
X101380926Y-77484490D01*
X101358463Y-77520655D01*
X101335165Y-77577536D01*
X101322192Y-77633740D01*
X101316409Y-77699064D01*
X101313949Y-77813747D01*
X101183299Y-77813747D01*
X101183299Y-76640648D01*
X101294410Y-76640648D01*
X101300957Y-76748100D01*
X101319544Y-76841255D01*
X101349024Y-76922187D01*
X101388867Y-76992643D01*
X101439185Y-77053968D01*
X101499804Y-77106639D01*
X101567110Y-77147573D01*
X101642044Y-77177310D01*
X101725900Y-77195751D01*
X101820265Y-77202163D01*
X101920073Y-77195633D01*
X102007102Y-77177021D01*
X102083267Y-77147322D01*
X102150149Y-77106868D01*
X102208916Y-77055312D01*
X102257800Y-76994642D01*
X102296514Y-76925134D01*
X102325149Y-76845494D01*
X102343190Y-76754052D01*
X102349539Y-76648831D01*
X102343056Y-76537050D01*
X102323405Y-76424066D01*
X102295612Y-76317258D01*
X102270710Y-76243021D01*
X101771172Y-76243021D01*
X101771172Y-76712334D01*
X101962658Y-76712334D01*
X101962658Y-76509490D01*
X102163121Y-76509490D01*
X102165197Y-76542646D01*
X102165868Y-76575741D01*
X102159431Y-76663480D01*
X102141582Y-76734899D01*
X102113803Y-76793004D01*
X102076536Y-76840134D01*
X102029437Y-76877707D01*
X101972262Y-76905503D01*
X101902930Y-76923231D01*
X101818738Y-76929588D01*
X101739248Y-76923046D01*
X101673108Y-76904675D01*
X101614713Y-76874633D01*
X101569122Y-76836714D01*
X101532171Y-76788542D01*
X101506352Y-76734926D01*
X101491195Y-76676099D01*
X101485896Y-76608531D01*
X101489844Y-76550230D01*
X101501406Y-76496179D01*
X101518914Y-76445354D01*
X101538469Y-76403611D01*
X101582616Y-76332597D01*
X101622672Y-76276543D01*
X101622672Y-76247173D01*
X101384474Y-76247173D01*
X101338156Y-76357275D01*
X101312484Y-76449406D01*
X101299019Y-76541656D01*
X101294410Y-76640648D01*
X101183299Y-76640648D01*
X101183299Y-76131910D01*
X102460650Y-76131910D01*
X102460650Y-79481295D01*
G37*
G36*
X107214591Y-57143524D02*
G01*
X107243075Y-57152651D01*
X107267348Y-57168494D01*
X107290458Y-57192584D01*
X107308341Y-57223962D01*
X107318852Y-57263659D01*
X107323366Y-57308572D01*
X107325080Y-57368867D01*
X107325080Y-57449467D01*
X107047620Y-57449467D01*
X107047620Y-57354517D01*
X107050062Y-57271841D01*
X107054810Y-57237698D01*
X107063557Y-57209681D01*
X107083134Y-57176186D01*
X107107154Y-57155765D01*
X107136760Y-57144146D01*
X107173527Y-57140011D01*
X107214591Y-57143524D01*
G37*
G36*
X108010650Y-65250259D02*
G01*
X106733299Y-65250259D01*
X106733299Y-64619277D01*
X106844410Y-64619277D01*
X106848650Y-64696018D01*
X106861032Y-64767182D01*
X106881229Y-64833478D01*
X106909765Y-64896352D01*
X106944541Y-64950797D01*
X106985582Y-64997731D01*
X107035101Y-65039764D01*
X107091034Y-65074792D01*
X107154110Y-65102939D01*
X107220488Y-65122691D01*
X107293166Y-65134922D01*
X107373012Y-65139148D01*
X107458790Y-65134632D01*
X107534524Y-65121740D01*
X107601502Y-65101229D01*
X107664860Y-65071900D01*
X107719560Y-65036272D01*
X107766549Y-64994312D01*
X107806696Y-64945749D01*
X107839855Y-64890996D01*
X107866139Y-64829326D01*
X107884443Y-64764546D01*
X107895686Y-64694968D01*
X107899539Y-64619948D01*
X107897376Y-64547538D01*
X107891967Y-64499720D01*
X107870047Y-64406114D01*
X107843974Y-64333085D01*
X107811673Y-64259934D01*
X107567369Y-64259934D01*
X107567369Y-64287290D01*
X107606936Y-64334428D01*
X107649984Y-64396588D01*
X107672255Y-64437769D01*
X107689551Y-64482989D01*
X107700518Y-64530160D01*
X107704145Y-64577572D01*
X107700201Y-64627343D01*
X107688086Y-64678689D01*
X107666798Y-64727286D01*
X107634474Y-64771623D01*
X107592314Y-64808084D01*
X107533480Y-64839584D01*
X107489815Y-64853931D01*
X107437101Y-64863226D01*
X107373684Y-64866573D01*
X107286179Y-64859877D01*
X107218040Y-64841660D01*
X107158792Y-64811996D01*
X107114909Y-64776386D01*
X107079977Y-64731607D01*
X107057206Y-64684184D01*
X107044203Y-64633231D01*
X107039804Y-64578977D01*
X107043675Y-64530206D01*
X107055008Y-64485371D01*
X107072074Y-64442895D01*
X107092316Y-64404099D01*
X107137196Y-64338214D01*
X107176580Y-64289976D01*
X107176580Y-64259934D01*
X106929345Y-64259934D01*
X106899548Y-64325208D01*
X106870422Y-64408190D01*
X106851615Y-64503506D01*
X106846313Y-64556605D01*
X106844410Y-64619277D01*
X106733299Y-64619277D01*
X106733299Y-64067532D01*
X106863949Y-64067532D01*
X107880000Y-64067532D01*
X107880000Y-63331812D01*
X107684605Y-63331812D01*
X107684605Y-63806620D01*
X107430593Y-63806620D01*
X107430593Y-63366006D01*
X107235198Y-63366006D01*
X107235198Y-63806620D01*
X107059344Y-63806620D01*
X107059344Y-63331812D01*
X106863949Y-63331812D01*
X106863949Y-64067532D01*
X106733299Y-64067532D01*
X106733299Y-60542131D01*
X106863949Y-60542131D01*
X107563400Y-60706079D01*
X106863949Y-60884376D01*
X106863949Y-61146021D01*
X107563400Y-61333233D01*
X106863949Y-61489671D01*
X106863949Y-61763589D01*
X107880000Y-61489671D01*
X107880000Y-61199327D01*
X107218101Y-61021702D01*
X107880000Y-60839313D01*
X107880000Y-60548970D01*
X106863949Y-60275051D01*
X106863949Y-60542131D01*
X106733299Y-60542131D01*
X106733299Y-60099074D01*
X106863949Y-60099074D01*
X107880000Y-60099074D01*
X107880000Y-59363354D01*
X107684605Y-59363354D01*
X107684605Y-59838162D01*
X107430593Y-59838162D01*
X107430593Y-59397548D01*
X107235198Y-59397548D01*
X107235198Y-59838162D01*
X107059344Y-59838162D01*
X107059344Y-59363354D01*
X106863949Y-59363354D01*
X106863949Y-60099074D01*
X106733299Y-60099074D01*
X106733299Y-57270437D01*
X106863949Y-57270437D01*
X106863949Y-57354517D01*
X106863949Y-57710379D01*
X107880000Y-57710379D01*
X107880000Y-57449467D01*
X107508750Y-57449467D01*
X107508750Y-57328567D01*
X107880000Y-57051168D01*
X107880000Y-56730782D01*
X107445858Y-57070341D01*
X107410410Y-57008664D01*
X107370982Y-56959456D01*
X107327583Y-56921047D01*
X107277679Y-56892903D01*
X107217209Y-56875131D01*
X107143607Y-56868779D01*
X107089788Y-56872886D01*
X107044847Y-56884410D01*
X107007198Y-56902607D01*
X106958119Y-56942077D01*
X106918660Y-56993771D01*
X106890428Y-57052600D01*
X106874207Y-57115404D01*
X106866731Y-57183374D01*
X106863949Y-57270437D01*
X106733299Y-57270437D01*
X106733299Y-56616171D01*
X106863949Y-56616171D01*
X107880000Y-56616171D01*
X107880000Y-55880451D01*
X107684605Y-55880451D01*
X107684605Y-56355259D01*
X107430593Y-56355259D01*
X107430593Y-55914645D01*
X107235198Y-55914645D01*
X107235198Y-56355259D01*
X107059344Y-56355259D01*
X107059344Y-55880451D01*
X106863949Y-55880451D01*
X106863949Y-56616171D01*
X106733299Y-56616171D01*
X106733299Y-55769340D01*
X108010650Y-55769340D01*
X108010650Y-65250259D01*
G37*
D10*
%TO.C,Y2*%
X96180000Y-62020000D02*
X94180000Y-62020000D01*
X94180000Y-61020000D01*
X96180000Y-61020000D01*
X96180000Y-62020000D01*
%TO.C,D2*%
X98229998Y-59610000D02*
G75*
G02*
X98130000Y-59610000I-49999J0D01*
G01*
X98130000Y-59610000D02*
G75*
G02*
X98229998Y-59610000I49999J0D01*
G01*
%TO.C,R13*%
D13*
X99243641Y-58230000D02*
X98936359Y-58230000D01*
X99243641Y-58990000D02*
X98936359Y-58990000D01*
%TO.C,R7*%
X98936359Y-59230000D02*
X99243641Y-59230000D01*
X98936359Y-59990000D02*
X99243641Y-59990000D01*
%TO.C,R5*%
X92633641Y-59440000D02*
X92326359Y-59440000D01*
X92633641Y-60200000D02*
X92326359Y-60200000D01*
%TO.C,C9*%
X94587836Y-59460000D02*
X94372164Y-59460000D01*
X94587836Y-60180000D02*
X94372164Y-60180000D01*
%TO.C,R4*%
X92633641Y-60440000D02*
X92326359Y-60440000D01*
X92633641Y-61200000D02*
X92326359Y-61200000D01*
%TO.C,U3*%
X95690000Y-59340000D02*
X95210000Y-59340000D01*
X95450000Y-59010000D01*
X95690000Y-59340000D01*
G36*
X95690000Y-59340000D02*
G01*
X95210000Y-59340000D01*
X95450000Y-59010000D01*
X95690000Y-59340000D01*
G37*
X94910000Y-59060000D02*
X93090000Y-59060000D01*
X94910000Y-59010000D02*
X94910000Y-59060000D01*
X94910000Y-55940000D02*
X94910000Y-55990000D01*
X93090000Y-59060000D02*
X93090000Y-59010000D01*
X93090000Y-57890000D02*
X93090000Y-57110000D01*
X93090000Y-55990000D02*
X93090000Y-55940000D01*
X93090000Y-55940000D02*
X94910000Y-55940000D01*
%TO.C,C13*%
X89107836Y-73840000D02*
X88892164Y-73840000D01*
X89107836Y-74560000D02*
X88892164Y-74560000D01*
%TO.C,J2*%
D14*
X83900000Y-56030000D02*
X83900000Y-64970000D01*
X83900000Y-64970000D02*
X85330000Y-64970000D01*
X85330000Y-56030000D02*
X83900000Y-56030000D01*
X89130000Y-56030000D02*
X87670000Y-56030000D01*
X89130000Y-64970000D02*
X87670000Y-64970000D01*
%TO.C,J4*%
X108050000Y-55250000D02*
X114950000Y-55250000D01*
X108050000Y-65750000D02*
X108050000Y-55250000D01*
X114950000Y-55250000D02*
X114950000Y-65750000D01*
X114950000Y-65750000D02*
X108050000Y-65750000D01*
D15*
X111625000Y-54750000D02*
G75*
G02*
X111375000Y-54750000I-125000J0D01*
G01*
X111375000Y-54750000D02*
G75*
G02*
X111625000Y-54750000I125000J0D01*
G01*
%TO.C,R3*%
D13*
X102870000Y-51346359D02*
X102870000Y-51653641D01*
X103630000Y-51346359D02*
X103630000Y-51653641D01*
%TO.C,U6*%
X86390000Y-70640000D02*
X87065000Y-70640000D01*
X86390000Y-70815000D02*
X86390000Y-70640000D01*
X86390000Y-73360000D02*
X86390000Y-73185000D01*
X87065000Y-73360000D02*
X86390000Y-73360000D01*
X88935000Y-70640000D02*
X89610000Y-70640000D01*
X89610000Y-70640000D02*
X89610000Y-70815000D01*
X89610000Y-73185000D02*
X89610000Y-73360000D01*
X89610000Y-73360000D02*
X88935000Y-73360000D01*
X86260000Y-71250000D02*
X85930000Y-71490000D01*
X85930000Y-71010000D01*
X86260000Y-71250000D01*
G36*
X86260000Y-71250000D02*
G01*
X85930000Y-71490000D01*
X85930000Y-71010000D01*
X86260000Y-71250000D01*
G37*
%TO.C,C14*%
X86892164Y-73840000D02*
X87107836Y-73840000D01*
X86892164Y-74560000D02*
X87107836Y-74560000D01*
%TO.C,U4*%
X100340000Y-54940000D02*
X102160000Y-54940000D01*
X100340000Y-54990000D02*
X100340000Y-54940000D01*
X100340000Y-58060000D02*
X100340000Y-58010000D01*
X102160000Y-54940000D02*
X102160000Y-54990000D01*
X102160000Y-56110000D02*
X102160000Y-56890000D01*
X102160000Y-58010000D02*
X102160000Y-58060000D01*
X102160000Y-58060000D02*
X100340000Y-58060000D01*
X99800000Y-54990000D02*
X99560000Y-54660000D01*
X100040000Y-54660000D01*
X99800000Y-54990000D01*
G36*
X99800000Y-54990000D02*
G01*
X99560000Y-54660000D01*
X100040000Y-54660000D01*
X99800000Y-54990000D01*
G37*
%TO.C,SW1*%
D16*
X90675900Y-51613341D02*
X90675900Y-52386659D01*
X90675900Y-53828800D02*
X95324100Y-53828800D01*
X95324100Y-50171200D02*
X90675900Y-50171200D01*
X95324100Y-52386659D02*
X95324100Y-51613341D01*
D15*
X96325000Y-53100000D02*
G75*
G02*
X96075000Y-53100000I-125000J0D01*
G01*
X96075000Y-53100000D02*
G75*
G02*
X96325000Y-53100000I125000J0D01*
G01*
%TO.C,R14*%
D13*
X102120000Y-61346359D02*
X102120000Y-61653641D01*
X102880000Y-61346359D02*
X102880000Y-61653641D01*
%TO.C,C7*%
X102642164Y-52640000D02*
X102857836Y-52640000D01*
X102642164Y-53360000D02*
X102857836Y-53360000D01*
%TO.C,C5*%
X94127836Y-75339000D02*
X93912164Y-75339000D01*
X94127836Y-76059000D02*
X93912164Y-76059000D01*
%TO.C,C8*%
X97890000Y-56892164D02*
X97890000Y-57107836D01*
X98610000Y-56892164D02*
X98610000Y-57107836D01*
%TO.C,Q1*%
X105240000Y-50190000D02*
X106760000Y-50190000D01*
X105240000Y-50240000D02*
X105240000Y-50190000D01*
X105240000Y-52140000D02*
X105240000Y-51360000D01*
X105240000Y-53310000D02*
X105240000Y-53260000D01*
X106760000Y-50190000D02*
X106760000Y-51190000D01*
X106760000Y-52310000D02*
X106760000Y-53310000D01*
X106760000Y-53310000D02*
X105240000Y-53310000D01*
X104940000Y-51700000D02*
X104460000Y-51700000D01*
X104700000Y-51370000D01*
X104940000Y-51700000D01*
G36*
X104940000Y-51700000D02*
G01*
X104460000Y-51700000D01*
X104700000Y-51370000D01*
X104940000Y-51700000D01*
G37*
%TO.C,R9*%
X93153641Y-54620000D02*
X92846359Y-54620000D01*
X93153641Y-55380000D02*
X92846359Y-55380000D01*
%TO.C,D3*%
D10*
X101549999Y-60410001D02*
G75*
G02*
X101450001Y-60410001I-49999J0D01*
G01*
X101450001Y-60410001D02*
G75*
G02*
X101549999Y-60410001I49999J0D01*
G01*
%TO.C,R6*%
D13*
X102596359Y-53620000D02*
X102903641Y-53620000D01*
X102596359Y-54380000D02*
X102903641Y-54380000D01*
%TO.C,U5*%
D10*
X102375000Y-70100000D02*
X102375000Y-65875000D01*
X102610000Y-65875000D02*
X102375000Y-65875000D01*
X102610000Y-70100000D02*
X102375000Y-70100000D01*
X106625000Y-70100000D02*
X106390000Y-70100000D01*
X106625000Y-70100000D02*
X106625000Y-66195000D01*
D13*
X106870001Y-65835000D02*
X106390000Y-65835000D01*
X106390000Y-65355000D01*
X106870001Y-65835000D01*
G36*
X106870001Y-65835000D02*
G01*
X106390000Y-65835000D01*
X106390000Y-65355000D01*
X106870001Y-65835000D01*
G37*
D17*
%TO.C,G\u002A\u002A\u002A*%
G36*
X98134041Y-74702458D02*
G01*
X98147999Y-74715236D01*
X98168816Y-74735056D01*
X98195237Y-74760709D01*
X98226009Y-74790986D01*
X98259876Y-74824680D01*
X98262941Y-74827747D01*
X98392630Y-74957564D01*
X98262252Y-75087941D01*
X98131875Y-75218319D01*
X98127507Y-75156787D01*
X98126223Y-75132216D01*
X98125173Y-75099193D01*
X98124353Y-75059537D01*
X98123761Y-75015065D01*
X98123394Y-74967594D01*
X98123249Y-74918942D01*
X98123324Y-74870924D01*
X98123615Y-74825360D01*
X98124121Y-74784066D01*
X98124838Y-74748858D01*
X98125764Y-74721556D01*
X98126896Y-74703975D01*
X98128196Y-74697930D01*
X98134041Y-74702458D01*
G37*
G36*
X98262855Y-75912564D02*
G01*
X98392587Y-76042479D01*
X98262919Y-76172275D01*
X98228844Y-76206206D01*
X98197756Y-76236828D01*
X98170907Y-76262930D01*
X98149554Y-76283304D01*
X98134950Y-76296742D01*
X98128350Y-76302035D01*
X98128196Y-76302070D01*
X98126956Y-76295684D01*
X98125873Y-76277607D01*
X98124981Y-76249458D01*
X98124314Y-76212857D01*
X98123909Y-76169425D01*
X98123799Y-76120783D01*
X98123844Y-76100721D01*
X98124171Y-76046876D01*
X98124745Y-75994379D01*
X98125522Y-75945539D01*
X98126458Y-75902664D01*
X98127509Y-75868064D01*
X98128629Y-75844049D01*
X98128836Y-75841010D01*
X98133124Y-75782649D01*
X98262855Y-75912564D01*
G37*
G36*
X99061419Y-76898521D02*
G01*
X99080438Y-76909409D01*
X99089753Y-76925239D01*
X99088054Y-76944115D01*
X99078721Y-76959179D01*
X99062986Y-76977472D01*
X99075772Y-77002533D01*
X99083132Y-77018422D01*
X99083908Y-77025815D01*
X99078636Y-77027594D01*
X99069630Y-77022246D01*
X99058373Y-77008734D01*
X99053540Y-77001021D01*
X99040423Y-76981785D01*
X99030483Y-76975111D01*
X99024119Y-76981000D01*
X99021732Y-76999452D01*
X99021724Y-77000970D01*
X99020076Y-77019483D01*
X99014610Y-77027111D01*
X99011740Y-77027594D01*
X99007084Y-77025395D01*
X99004095Y-77017336D01*
X99002444Y-77001229D01*
X99001803Y-76974885D01*
X99001756Y-76961032D01*
X99001756Y-76934408D01*
X99021724Y-76934408D01*
X99023087Y-76952336D01*
X99029219Y-76959915D01*
X99043190Y-76959322D01*
X99053341Y-76956837D01*
X99064200Y-76948402D01*
X99068729Y-76934266D01*
X99066374Y-76920061D01*
X99057789Y-76911823D01*
X99037901Y-76906876D01*
X99026495Y-76911626D01*
X99021976Y-76927072D01*
X99021724Y-76934408D01*
X99001756Y-76934408D01*
X99001756Y-76894471D01*
X99034005Y-76894471D01*
X99061419Y-76898521D01*
G37*
G36*
X99061861Y-76838896D02*
G01*
X99070307Y-76841016D01*
X99108971Y-76858503D01*
X99138464Y-76884159D01*
X99157777Y-76916279D01*
X99165900Y-76953159D01*
X99161822Y-76993096D01*
X99161406Y-76994676D01*
X99147503Y-77024798D01*
X99124645Y-77052048D01*
X99096683Y-77072477D01*
X99078152Y-77080076D01*
X99051258Y-77085972D01*
X99029232Y-77085914D01*
X99004930Y-77079691D01*
X98999341Y-77077750D01*
X98964978Y-77058817D01*
X98939166Y-77029847D01*
X98924105Y-76996913D01*
X98917912Y-76973985D01*
X98917845Y-76972956D01*
X98939708Y-76972956D01*
X98948338Y-77004911D01*
X98965780Y-77031853D01*
X98990043Y-77052181D01*
X99019134Y-77064296D01*
X99051062Y-77066599D01*
X99083834Y-77057491D01*
X99088390Y-77055207D01*
X99116962Y-77033598D01*
X99134532Y-77004750D01*
X99141389Y-76968154D01*
X99141511Y-76961712D01*
X99136900Y-76924113D01*
X99122624Y-76895065D01*
X99097929Y-76873235D01*
X99088812Y-76868114D01*
X99055635Y-76856428D01*
X99024002Y-76857131D01*
X98994932Y-76867931D01*
X98967007Y-76887753D01*
X98949140Y-76914673D01*
X98941884Y-76937586D01*
X98939708Y-76972956D01*
X98917845Y-76972956D01*
X98916754Y-76956211D01*
X98920414Y-76936513D01*
X98922053Y-76930467D01*
X98937706Y-76895958D01*
X98962085Y-76867995D01*
X98992618Y-76848129D01*
X99026734Y-76837912D01*
X99061861Y-76838896D01*
G37*
G36*
X98089436Y-73913433D02*
G01*
X98169025Y-73917837D01*
X98241960Y-73925572D01*
X98311432Y-73936958D01*
X98367537Y-73949122D01*
X98474651Y-73980604D01*
X98573679Y-74021957D01*
X98664731Y-74073325D01*
X98747922Y-74134853D01*
X98823364Y-74206684D01*
X98891169Y-74288964D01*
X98951450Y-74381835D01*
X99004320Y-74485443D01*
X99049891Y-74599931D01*
X99088276Y-74725445D01*
X99119587Y-74862127D01*
X99131442Y-74927568D01*
X99149588Y-75056145D01*
X99162686Y-75193031D01*
X99170764Y-75335600D01*
X99173851Y-75481224D01*
X99171976Y-75627275D01*
X99165167Y-75771127D01*
X99153452Y-75910151D01*
X99136861Y-76041721D01*
X99118124Y-76149887D01*
X99086644Y-76285376D01*
X99048309Y-76409551D01*
X99002912Y-76522633D01*
X98950245Y-76624840D01*
X98890100Y-76716393D01*
X98822270Y-76797512D01*
X98746548Y-76868418D01*
X98662724Y-76929330D01*
X98570593Y-76980467D01*
X98469946Y-77022051D01*
X98360575Y-77054302D01*
X98242951Y-77077335D01*
X98213621Y-77080760D01*
X98173996Y-77083905D01*
X98127092Y-77086670D01*
X98075925Y-77088953D01*
X98023511Y-77090650D01*
X97972866Y-77091662D01*
X97927006Y-77091885D01*
X97888948Y-77091218D01*
X97866876Y-77090035D01*
X97742445Y-77075410D01*
X97627914Y-77052355D01*
X97522675Y-77020616D01*
X97426119Y-76979938D01*
X97337641Y-76930064D01*
X97256631Y-76870741D01*
X97183917Y-76803205D01*
X97115940Y-76723522D01*
X97055142Y-76633052D01*
X97001506Y-76531740D01*
X96955018Y-76419527D01*
X96915661Y-76296358D01*
X96883420Y-76162175D01*
X96858279Y-76016922D01*
X96840222Y-75860541D01*
X96829233Y-75692975D01*
X96825297Y-75514167D01*
X96825286Y-75506543D01*
X96828581Y-75327193D01*
X96838750Y-75159160D01*
X96855845Y-75002329D01*
X96867641Y-74930920D01*
X97281176Y-74930920D01*
X97565696Y-75215441D01*
X97850217Y-75499962D01*
X97565706Y-75784530D01*
X97281195Y-76069099D01*
X97362700Y-76150604D01*
X97444206Y-76232110D01*
X97670517Y-76005871D01*
X97896829Y-75779633D01*
X97896829Y-76322069D01*
X97896829Y-76864504D01*
X98307840Y-76453493D01*
X98718851Y-76042482D01*
X98447630Y-75771261D01*
X98176409Y-75500040D01*
X98447620Y-75228769D01*
X98718831Y-74957497D01*
X98307830Y-74546496D01*
X97896829Y-74135496D01*
X97896829Y-74677931D01*
X97896829Y-75220367D01*
X97670517Y-74994129D01*
X97444206Y-74767890D01*
X97362691Y-74849405D01*
X97281176Y-74930920D01*
X96867641Y-74930920D01*
X96879920Y-74856584D01*
X96911026Y-74721810D01*
X96949218Y-74597892D01*
X96994547Y-74484714D01*
X97047067Y-74382161D01*
X97106830Y-74290119D01*
X97173890Y-74208470D01*
X97248298Y-74137101D01*
X97330108Y-74075896D01*
X97419372Y-74024740D01*
X97516144Y-73983517D01*
X97524083Y-73980690D01*
X97603575Y-73956014D01*
X97685873Y-73937155D01*
X97773276Y-73923782D01*
X97868080Y-73915565D01*
X97972583Y-73912170D01*
X98000000Y-73912036D01*
X98089436Y-73913433D01*
G37*
%TO.C,C10*%
D13*
X96640000Y-56892164D02*
X96640000Y-57107836D01*
X97360000Y-56892164D02*
X97360000Y-57107836D01*
%TO.C,R12*%
X106396129Y-72559667D02*
X105886681Y-72559667D01*
X106396129Y-73604667D02*
X105886681Y-73604667D01*
%TO.C,J1*%
X104095000Y-78770000D02*
X104095000Y-78135000D01*
X104730000Y-78770000D02*
X104095000Y-78770000D01*
%TO.C,U1*%
D11*
X97400000Y-77700000D02*
X98600000Y-77700000D01*
X97400000Y-79300000D02*
X98600000Y-79300000D01*
D15*
X95625000Y-79150000D02*
G75*
G02*
X95375000Y-79150000I-125000J0D01*
G01*
X95375000Y-79150000D02*
G75*
G02*
X95625000Y-79150000I125000J0D01*
G01*
%TO.C,D1*%
D13*
X99740000Y-50190000D02*
X101260000Y-50190000D01*
X99740000Y-50240000D02*
X99740000Y-50190000D01*
X99740000Y-52140000D02*
X99740000Y-51360000D01*
X99740000Y-53310000D02*
X99740000Y-53260000D01*
X101260000Y-50190000D02*
X101260000Y-51190000D01*
X101260000Y-52310000D02*
X101260000Y-53310000D01*
X101260000Y-53310000D02*
X99740000Y-53310000D01*
X99440000Y-51700000D02*
X98960000Y-51700000D01*
X99200000Y-51370000D01*
X99440000Y-51700000D01*
G36*
X99440000Y-51700000D02*
G01*
X98960000Y-51700000D01*
X99200000Y-51370000D01*
X99440000Y-51700000D01*
G37*
%TO.C,C1*%
X97240000Y-61707836D02*
X97240000Y-61492164D01*
X97960000Y-61707836D02*
X97960000Y-61492164D01*
%TO.C,U2*%
X94190000Y-63390000D02*
X94640000Y-63390000D01*
X94190000Y-63840000D02*
X94190000Y-63390000D01*
X94190000Y-68610000D02*
X94190000Y-68160000D01*
X94640000Y-68610000D02*
X94190000Y-68610000D01*
X98960000Y-63390000D02*
X99410000Y-63390000D01*
X99410000Y-63390000D02*
X99410000Y-63840000D01*
X99410000Y-68160000D02*
X99410000Y-68610000D01*
X99410000Y-68610000D02*
X98960000Y-68610000D01*
X93660000Y-64200000D02*
X93330000Y-64440000D01*
X93330000Y-63960000D01*
X93660000Y-64200000D01*
G36*
X93660000Y-64200000D02*
G01*
X93330000Y-64440000D01*
X93330000Y-63960000D01*
X93660000Y-64200000D01*
G37*
%TO.C,J5*%
D11*
X109331000Y-67000000D02*
X109331000Y-68750000D01*
X109331000Y-71250000D02*
X109331000Y-73000000D01*
X109331000Y-73000000D02*
X116001000Y-73000000D01*
X116001000Y-73000000D02*
X116031000Y-67000000D01*
X116031000Y-67000000D02*
X109331000Y-67000000D01*
D15*
X111626000Y-74000000D02*
G75*
G02*
X111376000Y-74000000I-125000J0D01*
G01*
X111376000Y-74000000D02*
G75*
G02*
X111626000Y-74000000I125000J0D01*
G01*
%TO.C,R10*%
D13*
X103143642Y-64120000D02*
X102836360Y-64120000D01*
X103143642Y-64880000D02*
X102836360Y-64880000D01*
%TO.C,C6*%
X99640000Y-61707836D02*
X99640000Y-61492164D01*
X100360000Y-61707836D02*
X100360000Y-61492164D01*
%TO.C,R2*%
X97146359Y-51520000D02*
X97453641Y-51520000D01*
X97146359Y-52280000D02*
X97453641Y-52280000D01*
%TO.C,R8*%
X95393642Y-54620000D02*
X95086360Y-54620000D01*
X95393642Y-55380000D02*
X95086360Y-55380000D01*
%TO.C,C4*%
X94140000Y-77427836D02*
X94140000Y-77212164D01*
X94860000Y-77427836D02*
X94860000Y-77212164D01*
%TO.C,C11*%
X103640000Y-55892164D02*
X103640000Y-56107836D01*
X104360000Y-55892164D02*
X104360000Y-56107836D01*
%TO.C,Y1*%
X92041421Y-67847380D02*
X90047380Y-69841421D01*
X93752620Y-69558579D02*
X92041421Y-67847380D01*
%TO.C,C12*%
X106287672Y-74172167D02*
X105995138Y-74172167D01*
X106287672Y-75192167D02*
X105995138Y-75192167D01*
%TO.C,R11*%
X104856358Y-64120000D02*
X105163640Y-64120000D01*
X104856358Y-64880000D02*
X105163640Y-64880000D01*
%TO.C,C2*%
X98440000Y-61707836D02*
X98440000Y-61492164D01*
X99160000Y-61707836D02*
X99160000Y-61492164D01*
%TO.C,R1*%
X97146359Y-50520000D02*
X97453641Y-50520000D01*
X97146359Y-51280000D02*
X97453641Y-51280000D01*
%TD*%
M02*
