%TF.GenerationSoftware,KiCad,Pcbnew,9.0.5*%
%TF.CreationDate,2026-01-28T11:34:24-05:00*%
%TF.ProjectId,lmp91000-pcb,6c6d7039-3130-4303-902d-7063622e6b69,rev?*%
%TF.SameCoordinates,Original*%
%TF.FileFunction,AssemblyDrawing,Bot*%
%FSLAX46Y46*%
G04 Gerber Fmt 4.6, Leading zero omitted, Abs format (unit mm)*
G04 Created by KiCad (PCBNEW 9.0.5) date 2026-01-28 11:34:24*
%MOMM*%
%LPD*%
G01*
G04 APERTURE LIST*
%ADD10C,0.150000*%
%ADD11C,0.100000*%
G04 APERTURE END LIST*
D10*
X49463333Y-42604819D02*
X49368095Y-42604819D01*
X49368095Y-42604819D02*
X49272857Y-42652438D01*
X49272857Y-42652438D02*
X49225238Y-42700057D01*
X49225238Y-42700057D02*
X49177619Y-42795295D01*
X49177619Y-42795295D02*
X49130000Y-42985771D01*
X49130000Y-42985771D02*
X49130000Y-43223866D01*
X49130000Y-43223866D02*
X49177619Y-43414342D01*
X49177619Y-43414342D02*
X49225238Y-43509580D01*
X49225238Y-43509580D02*
X49272857Y-43557200D01*
X49272857Y-43557200D02*
X49368095Y-43604819D01*
X49368095Y-43604819D02*
X49463333Y-43604819D01*
X49463333Y-43604819D02*
X49558571Y-43557200D01*
X49558571Y-43557200D02*
X49606190Y-43509580D01*
X49606190Y-43509580D02*
X49653809Y-43414342D01*
X49653809Y-43414342D02*
X49701428Y-43223866D01*
X49701428Y-43223866D02*
X49701428Y-42985771D01*
X49701428Y-42985771D02*
X49653809Y-42795295D01*
X49653809Y-42795295D02*
X49606190Y-42700057D01*
X49606190Y-42700057D02*
X49558571Y-42652438D01*
X49558571Y-42652438D02*
X49463333Y-42604819D01*
X48225238Y-42604819D02*
X48701428Y-42604819D01*
X48701428Y-42604819D02*
X48749047Y-43081009D01*
X48749047Y-43081009D02*
X48701428Y-43033390D01*
X48701428Y-43033390D02*
X48606190Y-42985771D01*
X48606190Y-42985771D02*
X48368095Y-42985771D01*
X48368095Y-42985771D02*
X48272857Y-43033390D01*
X48272857Y-43033390D02*
X48225238Y-43081009D01*
X48225238Y-43081009D02*
X48177619Y-43176247D01*
X48177619Y-43176247D02*
X48177619Y-43414342D01*
X48177619Y-43414342D02*
X48225238Y-43509580D01*
X48225238Y-43509580D02*
X48272857Y-43557200D01*
X48272857Y-43557200D02*
X48368095Y-43604819D01*
X48368095Y-43604819D02*
X48606190Y-43604819D01*
X48606190Y-43604819D02*
X48701428Y-43557200D01*
X48701428Y-43557200D02*
X48749047Y-43509580D01*
X47844285Y-42604819D02*
X47225238Y-42604819D01*
X47225238Y-42604819D02*
X47558571Y-42985771D01*
X47558571Y-42985771D02*
X47415714Y-42985771D01*
X47415714Y-42985771D02*
X47320476Y-43033390D01*
X47320476Y-43033390D02*
X47272857Y-43081009D01*
X47272857Y-43081009D02*
X47225238Y-43176247D01*
X47225238Y-43176247D02*
X47225238Y-43414342D01*
X47225238Y-43414342D02*
X47272857Y-43509580D01*
X47272857Y-43509580D02*
X47320476Y-43557200D01*
X47320476Y-43557200D02*
X47415714Y-43604819D01*
X47415714Y-43604819D02*
X47701428Y-43604819D01*
X47701428Y-43604819D02*
X47796666Y-43557200D01*
X47796666Y-43557200D02*
X47844285Y-43509580D01*
X46606190Y-42604819D02*
X46510952Y-42604819D01*
X46510952Y-42604819D02*
X46415714Y-42652438D01*
X46415714Y-42652438D02*
X46368095Y-42700057D01*
X46368095Y-42700057D02*
X46320476Y-42795295D01*
X46320476Y-42795295D02*
X46272857Y-42985771D01*
X46272857Y-42985771D02*
X46272857Y-43223866D01*
X46272857Y-43223866D02*
X46320476Y-43414342D01*
X46320476Y-43414342D02*
X46368095Y-43509580D01*
X46368095Y-43509580D02*
X46415714Y-43557200D01*
X46415714Y-43557200D02*
X46510952Y-43604819D01*
X46510952Y-43604819D02*
X46606190Y-43604819D01*
X46606190Y-43604819D02*
X46701428Y-43557200D01*
X46701428Y-43557200D02*
X46749047Y-43509580D01*
X46749047Y-43509580D02*
X46796666Y-43414342D01*
X46796666Y-43414342D02*
X46844285Y-43223866D01*
X46844285Y-43223866D02*
X46844285Y-42985771D01*
X46844285Y-42985771D02*
X46796666Y-42795295D01*
X46796666Y-42795295D02*
X46749047Y-42700057D01*
X46749047Y-42700057D02*
X46701428Y-42652438D01*
X46701428Y-42652438D02*
X46606190Y-42604819D01*
X45415714Y-42938152D02*
X45415714Y-43604819D01*
X45653809Y-42557200D02*
X45891904Y-43271485D01*
X45891904Y-43271485D02*
X45272857Y-43271485D01*
X44749047Y-43033390D02*
X44844285Y-42985771D01*
X44844285Y-42985771D02*
X44891904Y-42938152D01*
X44891904Y-42938152D02*
X44939523Y-42842914D01*
X44939523Y-42842914D02*
X44939523Y-42795295D01*
X44939523Y-42795295D02*
X44891904Y-42700057D01*
X44891904Y-42700057D02*
X44844285Y-42652438D01*
X44844285Y-42652438D02*
X44749047Y-42604819D01*
X44749047Y-42604819D02*
X44558571Y-42604819D01*
X44558571Y-42604819D02*
X44463333Y-42652438D01*
X44463333Y-42652438D02*
X44415714Y-42700057D01*
X44415714Y-42700057D02*
X44368095Y-42795295D01*
X44368095Y-42795295D02*
X44368095Y-42842914D01*
X44368095Y-42842914D02*
X44415714Y-42938152D01*
X44415714Y-42938152D02*
X44463333Y-42985771D01*
X44463333Y-42985771D02*
X44558571Y-43033390D01*
X44558571Y-43033390D02*
X44749047Y-43033390D01*
X44749047Y-43033390D02*
X44844285Y-43081009D01*
X44844285Y-43081009D02*
X44891904Y-43128628D01*
X44891904Y-43128628D02*
X44939523Y-43223866D01*
X44939523Y-43223866D02*
X44939523Y-43414342D01*
X44939523Y-43414342D02*
X44891904Y-43509580D01*
X44891904Y-43509580D02*
X44844285Y-43557200D01*
X44844285Y-43557200D02*
X44749047Y-43604819D01*
X44749047Y-43604819D02*
X44558571Y-43604819D01*
X44558571Y-43604819D02*
X44463333Y-43557200D01*
X44463333Y-43557200D02*
X44415714Y-43509580D01*
X44415714Y-43509580D02*
X44368095Y-43414342D01*
X44368095Y-43414342D02*
X44368095Y-43223866D01*
X44368095Y-43223866D02*
X44415714Y-43128628D01*
X44415714Y-43128628D02*
X44463333Y-43081009D01*
X44463333Y-43081009D02*
X44558571Y-43033390D01*
X43749047Y-42604819D02*
X43653809Y-42604819D01*
X43653809Y-42604819D02*
X43558571Y-42652438D01*
X43558571Y-42652438D02*
X43510952Y-42700057D01*
X43510952Y-42700057D02*
X43463333Y-42795295D01*
X43463333Y-42795295D02*
X43415714Y-42985771D01*
X43415714Y-42985771D02*
X43415714Y-43223866D01*
X43415714Y-43223866D02*
X43463333Y-43414342D01*
X43463333Y-43414342D02*
X43510952Y-43509580D01*
X43510952Y-43509580D02*
X43558571Y-43557200D01*
X43558571Y-43557200D02*
X43653809Y-43604819D01*
X43653809Y-43604819D02*
X43749047Y-43604819D01*
X43749047Y-43604819D02*
X43844285Y-43557200D01*
X43844285Y-43557200D02*
X43891904Y-43509580D01*
X43891904Y-43509580D02*
X43939523Y-43414342D01*
X43939523Y-43414342D02*
X43987142Y-43223866D01*
X43987142Y-43223866D02*
X43987142Y-42985771D01*
X43987142Y-42985771D02*
X43939523Y-42795295D01*
X43939523Y-42795295D02*
X43891904Y-42700057D01*
X43891904Y-42700057D02*
X43844285Y-42652438D01*
X43844285Y-42652438D02*
X43749047Y-42604819D01*
X43034761Y-42700057D02*
X42987142Y-42652438D01*
X42987142Y-42652438D02*
X42891904Y-42604819D01*
X42891904Y-42604819D02*
X42653809Y-42604819D01*
X42653809Y-42604819D02*
X42558571Y-42652438D01*
X42558571Y-42652438D02*
X42510952Y-42700057D01*
X42510952Y-42700057D02*
X42463333Y-42795295D01*
X42463333Y-42795295D02*
X42463333Y-42890533D01*
X42463333Y-42890533D02*
X42510952Y-43033390D01*
X42510952Y-43033390D02*
X43082380Y-43604819D01*
X43082380Y-43604819D02*
X42463333Y-43604819D01*
X41510952Y-43604819D02*
X42082380Y-43604819D01*
X41796666Y-43604819D02*
X41796666Y-42604819D01*
X41796666Y-42604819D02*
X41891904Y-42747676D01*
X41891904Y-42747676D02*
X41987142Y-42842914D01*
X41987142Y-42842914D02*
X42082380Y-42890533D01*
X40891904Y-42604819D02*
X40796666Y-42604819D01*
X40796666Y-42604819D02*
X40701428Y-42652438D01*
X40701428Y-42652438D02*
X40653809Y-42700057D01*
X40653809Y-42700057D02*
X40606190Y-42795295D01*
X40606190Y-42795295D02*
X40558571Y-42985771D01*
X40558571Y-42985771D02*
X40558571Y-43223866D01*
X40558571Y-43223866D02*
X40606190Y-43414342D01*
X40606190Y-43414342D02*
X40653809Y-43509580D01*
X40653809Y-43509580D02*
X40701428Y-43557200D01*
X40701428Y-43557200D02*
X40796666Y-43604819D01*
X40796666Y-43604819D02*
X40891904Y-43604819D01*
X40891904Y-43604819D02*
X40987142Y-43557200D01*
X40987142Y-43557200D02*
X41034761Y-43509580D01*
X41034761Y-43509580D02*
X41082380Y-43414342D01*
X41082380Y-43414342D02*
X41129999Y-43223866D01*
X41129999Y-43223866D02*
X41129999Y-42985771D01*
X41129999Y-42985771D02*
X41082380Y-42795295D01*
X41082380Y-42795295D02*
X41034761Y-42700057D01*
X41034761Y-42700057D02*
X40987142Y-42652438D01*
X40987142Y-42652438D02*
X40891904Y-42604819D01*
X45463333Y-40704819D02*
X45463333Y-41419104D01*
X45463333Y-41419104D02*
X45510952Y-41561961D01*
X45510952Y-41561961D02*
X45606190Y-41657200D01*
X45606190Y-41657200D02*
X45749047Y-41704819D01*
X45749047Y-41704819D02*
X45844285Y-41704819D01*
X45082380Y-40704819D02*
X44463333Y-40704819D01*
X44463333Y-40704819D02*
X44796666Y-41085771D01*
X44796666Y-41085771D02*
X44653809Y-41085771D01*
X44653809Y-41085771D02*
X44558571Y-41133390D01*
X44558571Y-41133390D02*
X44510952Y-41181009D01*
X44510952Y-41181009D02*
X44463333Y-41276247D01*
X44463333Y-41276247D02*
X44463333Y-41514342D01*
X44463333Y-41514342D02*
X44510952Y-41609580D01*
X44510952Y-41609580D02*
X44558571Y-41657200D01*
X44558571Y-41657200D02*
X44653809Y-41704819D01*
X44653809Y-41704819D02*
X44939523Y-41704819D01*
X44939523Y-41704819D02*
X45034761Y-41657200D01*
X45034761Y-41657200D02*
X45082380Y-41609580D01*
D11*
%TO.C,J3*%
X43000000Y-36450000D02*
X43000000Y-41950000D01*
X43000000Y-41950000D02*
X45125000Y-41950000D01*
X43850000Y-36450000D02*
X43000000Y-36450000D01*
X43850000Y-36750000D02*
X43850000Y-36450000D01*
X45125000Y-36750000D02*
X43850000Y-36750000D01*
X45125000Y-36750000D02*
X46400000Y-36750000D01*
X45750000Y-37457107D02*
X45250000Y-36750000D01*
X46250000Y-36750000D02*
X45750000Y-37457107D01*
X46400000Y-36450000D02*
X47250000Y-36450000D01*
X46400000Y-36750000D02*
X46400000Y-36450000D01*
X47250000Y-36450000D02*
X47250000Y-41950000D01*
X47250000Y-41950000D02*
X45125000Y-41950000D01*
%TD*%
M02*
