M48
; DRILL file KiCad 10.0.0 date 2026-07-16T10:13:38
; FORMAT={-:-/ absolute / metric / decimal}
; #@! TF.CreationDate,2026-07-16T10:13:38-04:00
; #@! TF.GenerationSoftware,Kicad,Pcbnew,10.0.0
; #@! TF.FileFunction,Plated,1,4,PTH
FMAT,2
METRIC
; #@! TA.AperFunction,Plated,PTH,ViaDrill
T1C0.300
; #@! TA.AperFunction,Plated,PTH,ComponentDrill
T2C0.500
; #@! TA.AperFunction,Plated,PTH,ComponentDrill
T3C0.600
; #@! TA.AperFunction,Plated,PTH,ComponentDrill
T4C0.700
; #@! TA.AperFunction,Plated,PTH,ComponentDrill
T5C1.100
%
G90
G05
T1
X86.25Y-72.75
X87.044Y-73.444
X88.25Y-73.55
X89.48Y-73.2
X89.5Y-57.75
X89.5Y-63.25
X90.2Y-76.0
X90.35Y-69.8
X91.5Y-73.0
X91.5Y-75.0
X91.5Y-77.0
X91.5Y-79.0
X91.9Y-55.0
X92.0Y-52.0
X92.0Y-63.0
X92.0Y-64.4
X92.0Y-65.2
X92.6Y-63.7
X93.3Y-69.1
X93.3Y-71.6
X93.48Y-59.82
X93.48Y-60.82
X93.5Y-73.6
X93.5Y-75.0
X93.5Y-77.0
X93.5Y-79.0
X93.68Y-63.213
X94.096Y-72.398
X94.1Y-55.0
X94.1Y-57.5
X94.43Y-62.47
X94.8Y-69.1
X94.8Y-71.3
X95.2Y-64.4
X95.2Y-66.0
X95.2Y-67.6
X95.4Y-72.8
X95.5Y-70.3
X95.5Y-75.0
X95.5Y-77.0
X95.5Y-79.0
X95.95Y-62.44
X96.2Y-57.5
X96.7Y-52.4
X96.741Y-70.711
X96.8Y-64.4
X96.8Y-66.0
X96.8Y-67.6
X96.83Y-71.94
X96.9Y-69.5
X97.0Y-62.7
X97.6Y-57.5
X97.6Y-60.5
X98.0Y-71.0
X98.0Y-73.0
X98.02Y-58.61
X98.4Y-62.7
X98.4Y-64.4
X98.4Y-66.0
X98.4Y-67.6
X98.8Y-57.5
X98.8Y-60.5
X99.2Y-56.5
X99.5Y-71.5
X100.0Y-54.2
X100.0Y-60.5
X100.0Y-73.0
X100.18Y-63.02
X100.5Y-75.0
X100.5Y-77.0
X100.5Y-79.0
X100.85Y-72.0
X101.25Y-67.75
X101.4Y-73.7
X101.5Y-59.0
X102.0Y-67.0
X102.0Y-68.5
X102.0Y-75.0
X102.0Y-77.0
X102.0Y-79.0
X102.45Y-56.15
X102.5Y-65.1
X102.6Y-66.075
X102.75Y-73.0
X102.8Y-67.8
X102.926Y-70.8
X103.1Y-62.0
X103.3Y-55.55
X103.5Y-65.45
X103.5Y-79.0
X103.805Y-70.805
X103.9Y-52.0
X103.9Y-53.0
X103.9Y-54.0
X104.0Y-57.1
X104.5Y-59.0
X104.7Y-55.55
X104.7Y-79.0
X105.14Y-71.13
X105.241Y-73.882
X105.5Y-63.9
X105.81Y-70.76
X106.0Y-62.0
X106.0Y-76.1
X106.0Y-79.0
X106.425Y-66.075
X106.9Y-51.1
X106.965Y-68.835
X107.041Y-73.882
X107.2Y-79.0
X107.27Y-76.1
X107.3Y-52.75
X108.5Y-57.0
X108.5Y-60.5
X109.6Y-74.9
X109.8Y-71.6
X113.5Y-74.5
X113.6Y-71.4
X114.0Y-57.0
T2
X97.0Y-55.0
X98.25Y-55.0
T4
X109.501Y-70.0
X111.501Y-69.0
X111.501Y-71.0
T5
X111.5Y-57.0
X111.5Y-60.5
X111.5Y-64.0
T3
G00X86.8Y-56.18
M15
G01X86.2Y-56.18
M16
G05
G00X86.8Y-64.82
M15
G01X86.2Y-64.82
M16
G05
G00X90.6Y-56.18
M15
G01X90.0Y-56.18
M16
G05
G00X90.6Y-64.82
M15
G01X90.0Y-64.82
M16
G05
M30
