%TF.GenerationSoftware,KiCad,Pcbnew,9.0.5*%
%TF.CreationDate,2026-01-28T11:34:24-05:00*%
%TF.ProjectId,lmp91000-pcb,6c6d7039-3130-4303-902d-7063622e6b69,rev?*%
%TF.SameCoordinates,Original*%
%TF.FileFunction,Copper,L2,Inr*%
%TF.FilePolarity,Positive*%
%FSLAX46Y46*%
G04 Gerber Fmt 4.6, Leading zero omitted, Abs format (unit mm)*
G04 Created by KiCad (PCBNEW 9.0.5) date 2026-01-28 11:34:24*
%MOMM*%
%LPD*%
G01*
G04 APERTURE LIST*
G04 Aperture macros list*
%AMRoundRect*
0 Rectangle with rounded corners*
0 $1 Rounding radius*
0 $2 $3 $4 $5 $6 $7 $8 $9 X,Y pos of 4 corners*
0 Add a 4 corners polygon primitive as box body*
4,1,4,$2,$3,$4,$5,$6,$7,$8,$9,$2,$3,0*
0 Add four circle primitives for the rounded corners*
1,1,$1+$1,$2,$3*
1,1,$1+$1,$4,$5*
1,1,$1+$1,$6,$7*
1,1,$1+$1,$8,$9*
0 Add four rect primitives between the rounded corners*
20,1,$1+$1,$2,$3,$4,$5,0*
20,1,$1+$1,$4,$5,$6,$7,0*
20,1,$1+$1,$6,$7,$8,$9,0*
20,1,$1+$1,$8,$9,$2,$3,0*%
G04 Aperture macros list end*
%TA.AperFunction,ComponentPad*%
%ADD10O,1.700000X1.100000*%
%TD*%
%TA.AperFunction,ComponentPad*%
%ADD11R,1.650000X1.650000*%
%TD*%
%TA.AperFunction,ComponentPad*%
%ADD12C,1.650000*%
%TD*%
%TA.AperFunction,ComponentPad*%
%ADD13C,1.200000*%
%TD*%
%TA.AperFunction,ComponentPad*%
%ADD14RoundRect,0.200000X0.200000X0.450000X-0.200000X0.450000X-0.200000X-0.450000X0.200000X-0.450000X0*%
%TD*%
%TA.AperFunction,ComponentPad*%
%ADD15O,0.800000X1.300000*%
%TD*%
%TA.AperFunction,ViaPad*%
%ADD16C,0.600000*%
%TD*%
G04 APERTURE END LIST*
D10*
%TO.N,GND*%
%TO.C,J2*%
X37800000Y-38680000D03*
X34000000Y-38680000D03*
X37800000Y-47320000D03*
X34000000Y-47320000D03*
%TD*%
D11*
%TO.N,/LMP/RE*%
%TO.C,J4*%
X59000000Y-40000000D03*
D12*
%TO.N,/LMP/WE*%
X59000000Y-43500000D03*
%TO.N,/LMP/CE*%
X59000000Y-47000000D03*
%TD*%
D13*
%TO.N,/LMP/CE*%
%TO.C,J5*%
X59000000Y-54500000D03*
%TO.N,/LMP/WE*%
X57000000Y-53500000D03*
%TO.N,/LMP/RE*%
X59000000Y-52499999D03*
%TD*%
D14*
%TO.N,+BATT*%
%TO.C,J3*%
X45750000Y-37500000D03*
D15*
%TO.N,GND*%
X44500000Y-37500000D03*
%TD*%
D16*
%TO.N,+3V3*%
X37100001Y-54100002D03*
X49950000Y-38650000D03*
X50800000Y-38050001D03*
X52500000Y-46400000D03*
X44500000Y-45200000D03*
X47700000Y-61300000D03*
X49500000Y-47600000D03*
X42900000Y-54100000D03*
X50500000Y-47950000D03*
X44400000Y-52000000D03*
X52200000Y-38050000D03*
X34180000Y-54100000D03*
X45900000Y-45200000D03*
%TO.N,GND*%
X49550000Y-48575000D03*
X39400000Y-37500000D03*
X44300000Y-46900000D03*
X43700000Y-40000000D03*
X37900000Y-61700000D03*
X41600000Y-40000000D03*
X50300000Y-61300000D03*
X51400000Y-34500000D03*
X42700000Y-50100000D03*
X51400000Y-36500000D03*
X51500000Y-39600000D03*
X45700000Y-42900000D03*
X46700000Y-39000000D03*
X35300000Y-54200000D03*
X38700000Y-54200000D03*
X46300000Y-40000000D03*
X50600000Y-44500000D03*
X41500000Y-42500000D03*
X51400000Y-35500000D03*
X37900000Y-60400000D03*
X45900000Y-48500000D03*
X46900000Y-42900000D03*
X44500000Y-42900000D03*
X41500000Y-43500000D03*
X42700000Y-48500000D03*
X36000000Y-54200000D03*
X53425000Y-48575000D03*
X42499999Y-61700000D03*
X45100000Y-40000000D03*
X42700000Y-46900000D03*
X45900000Y-50100000D03*
X40600000Y-52000000D03*
X45900000Y-46900000D03*
X44300000Y-48500000D03*
X44300000Y-50100000D03*
%TO.N,Net-(U5-C1)*%
X50805019Y-53305019D03*
X51700000Y-56000000D03*
%TO.N,Net-(U5-C2)*%
X49926154Y-53300000D03*
X49900000Y-56000000D03*
%TO.N,/SWDIO*%
X48300000Y-51000000D03*
X48300000Y-56500000D03*
%TO.N,/SWCLK*%
X47500000Y-51000000D03*
X49000000Y-58600000D03*
%TO.N,/SWV{slash}SWO*%
X50270000Y-58600000D03*
X49100000Y-51000000D03*
%TO.N,/RESETn*%
X49000000Y-61300000D03*
X42300000Y-51600000D03*
%TO.N,/PWR_BTN*%
X40900000Y-47300000D03*
X54400000Y-33600000D03*
%TO.N,/LDO_EN*%
X44200000Y-34900000D03*
X40100000Y-46700000D03*
%TO.N,/BATT_MEAS*%
X41600000Y-37500000D03*
X40600000Y-45400000D03*
%TD*%
%TA.AperFunction,Conductor*%
%TO.N,GND*%
G36*
X54126082Y-33019407D02*
G01*
X54162046Y-33068907D01*
X54162046Y-33130093D01*
X54126082Y-33179593D01*
X54117397Y-33185232D01*
X54104320Y-33192782D01*
X54092687Y-33199499D01*
X53999496Y-33292690D01*
X53933609Y-33406809D01*
X53914539Y-33477978D01*
X53899500Y-33534108D01*
X53899500Y-33665892D01*
X53921619Y-33748443D01*
X53933609Y-33793190D01*
X53999496Y-33907309D01*
X53999498Y-33907311D01*
X53999500Y-33907314D01*
X54092686Y-34000500D01*
X54092688Y-34000501D01*
X54092690Y-34000503D01*
X54206810Y-34066390D01*
X54206808Y-34066390D01*
X54206812Y-34066391D01*
X54206814Y-34066392D01*
X54334108Y-34100500D01*
X54334110Y-34100500D01*
X54465890Y-34100500D01*
X54465892Y-34100500D01*
X54593186Y-34066392D01*
X54593188Y-34066390D01*
X54593190Y-34066390D01*
X54707309Y-34000503D01*
X54707309Y-34000502D01*
X54707314Y-34000500D01*
X54800500Y-33907314D01*
X54866392Y-33793186D01*
X54900500Y-33665892D01*
X54900500Y-33534108D01*
X54866392Y-33406814D01*
X54866390Y-33406811D01*
X54866390Y-33406809D01*
X54800503Y-33292690D01*
X54800501Y-33292688D01*
X54800500Y-33292686D01*
X54707314Y-33199500D01*
X54682608Y-33185236D01*
X54641668Y-33139767D01*
X54635272Y-33078917D01*
X54665865Y-33025929D01*
X54721760Y-33001042D01*
X54732109Y-33000500D01*
X57401000Y-33000500D01*
X57459191Y-33019407D01*
X57495155Y-33068907D01*
X57500000Y-33099500D01*
X57500000Y-36250000D01*
X58750000Y-37500000D01*
X61900500Y-37500000D01*
X61958691Y-37518907D01*
X61994655Y-37568407D01*
X61999500Y-37599000D01*
X61999500Y-57401000D01*
X61980593Y-57459191D01*
X61931093Y-57495155D01*
X61900500Y-57500000D01*
X58750000Y-57500000D01*
X57500000Y-58750000D01*
X57500000Y-58750001D01*
X57500000Y-61900500D01*
X57481093Y-61958691D01*
X57431593Y-61994655D01*
X57401000Y-61999500D01*
X42299000Y-61999500D01*
X42240809Y-61980593D01*
X42204845Y-61931093D01*
X42200000Y-61900500D01*
X42200000Y-61234108D01*
X47199500Y-61234108D01*
X47199500Y-61365892D01*
X47200405Y-61369269D01*
X47233609Y-61493190D01*
X47299496Y-61607309D01*
X47299498Y-61607311D01*
X47299500Y-61607314D01*
X47392686Y-61700500D01*
X47392688Y-61700501D01*
X47392690Y-61700503D01*
X47506810Y-61766390D01*
X47506808Y-61766390D01*
X47506812Y-61766391D01*
X47506814Y-61766392D01*
X47634108Y-61800500D01*
X47634110Y-61800500D01*
X47765890Y-61800500D01*
X47765892Y-61800500D01*
X47893186Y-61766392D01*
X47893188Y-61766390D01*
X47893190Y-61766390D01*
X48007309Y-61700503D01*
X48007309Y-61700502D01*
X48007314Y-61700500D01*
X48100500Y-61607314D01*
X48166392Y-61493186D01*
X48200500Y-61365892D01*
X48200500Y-61234108D01*
X48499500Y-61234108D01*
X48499500Y-61365892D01*
X48500405Y-61369269D01*
X48533609Y-61493190D01*
X48599496Y-61607309D01*
X48599498Y-61607311D01*
X48599500Y-61607314D01*
X48692686Y-61700500D01*
X48692688Y-61700501D01*
X48692690Y-61700503D01*
X48806810Y-61766390D01*
X48806808Y-61766390D01*
X48806812Y-61766391D01*
X48806814Y-61766392D01*
X48934108Y-61800500D01*
X48934110Y-61800500D01*
X49065890Y-61800500D01*
X49065892Y-61800500D01*
X49193186Y-61766392D01*
X49193188Y-61766390D01*
X49193190Y-61766390D01*
X49307309Y-61700503D01*
X49307309Y-61700502D01*
X49307314Y-61700500D01*
X49400500Y-61607314D01*
X49466392Y-61493186D01*
X49500500Y-61365892D01*
X49500500Y-61234108D01*
X49466392Y-61106814D01*
X49466390Y-61106811D01*
X49466390Y-61106809D01*
X49400503Y-60992690D01*
X49400501Y-60992688D01*
X49400500Y-60992686D01*
X49350356Y-60942542D01*
X50794200Y-60942542D01*
X50794200Y-61089457D01*
X50822860Y-61233541D01*
X50822860Y-61233543D01*
X50879078Y-61369266D01*
X50879078Y-61369267D01*
X50908875Y-61413860D01*
X50960699Y-61491420D01*
X51064580Y-61595301D01*
X51186731Y-61676920D01*
X51322458Y-61733140D01*
X51466545Y-61761800D01*
X51466547Y-61761800D01*
X51613453Y-61761800D01*
X51613455Y-61761800D01*
X51757542Y-61733140D01*
X51893269Y-61676920D01*
X52015420Y-61595301D01*
X52119301Y-61491420D01*
X52200920Y-61369269D01*
X52257140Y-61233542D01*
X52285800Y-61089455D01*
X52285800Y-60942545D01*
X52257140Y-60798458D01*
X52200921Y-60662733D01*
X52200921Y-60662732D01*
X52180585Y-60632298D01*
X52119301Y-60540580D01*
X52015420Y-60436699D01*
X51893269Y-60355080D01*
X51893268Y-60355079D01*
X51893266Y-60355078D01*
X51757542Y-60298860D01*
X51613457Y-60270200D01*
X51613455Y-60270200D01*
X51466545Y-60270200D01*
X51466542Y-60270200D01*
X51322458Y-60298860D01*
X51322456Y-60298860D01*
X51186733Y-60355078D01*
X51186732Y-60355078D01*
X51064580Y-60436699D01*
X51064576Y-60436702D01*
X50960702Y-60540576D01*
X50960699Y-60540580D01*
X50879078Y-60662732D01*
X50879078Y-60662733D01*
X50822860Y-60798456D01*
X50822860Y-60798458D01*
X50794200Y-60942542D01*
X49350356Y-60942542D01*
X49307314Y-60899500D01*
X49307311Y-60899498D01*
X49307309Y-60899496D01*
X49193189Y-60833609D01*
X49193191Y-60833609D01*
X49143799Y-60820375D01*
X49065892Y-60799500D01*
X48934108Y-60799500D01*
X48856200Y-60820375D01*
X48806809Y-60833609D01*
X48692690Y-60899496D01*
X48599496Y-60992690D01*
X48533609Y-61106809D01*
X48533608Y-61106814D01*
X48499500Y-61234108D01*
X48200500Y-61234108D01*
X48166392Y-61106814D01*
X48166390Y-61106811D01*
X48166390Y-61106809D01*
X48100503Y-60992690D01*
X48100501Y-60992688D01*
X48100500Y-60992686D01*
X48007314Y-60899500D01*
X48007311Y-60899498D01*
X48007309Y-60899496D01*
X47893189Y-60833609D01*
X47893191Y-60833609D01*
X47843799Y-60820375D01*
X47765892Y-60799500D01*
X47634108Y-60799500D01*
X47556200Y-60820375D01*
X47506809Y-60833609D01*
X47392690Y-60899496D01*
X47299496Y-60992690D01*
X47233609Y-61106809D01*
X47233608Y-61106814D01*
X47199500Y-61234108D01*
X42200000Y-61234108D01*
X42200000Y-59926542D01*
X45714200Y-59926542D01*
X45714200Y-60073457D01*
X45742860Y-60217541D01*
X45742860Y-60217543D01*
X45799078Y-60353266D01*
X45799078Y-60353267D01*
X45839749Y-60414134D01*
X45880699Y-60475420D01*
X45984580Y-60579301D01*
X46106731Y-60660920D01*
X46106732Y-60660920D01*
X46106733Y-60660921D01*
X46111108Y-60662733D01*
X46242458Y-60717140D01*
X46386545Y-60745800D01*
X46386547Y-60745800D01*
X46533453Y-60745800D01*
X46533455Y-60745800D01*
X46677542Y-60717140D01*
X46813269Y-60660920D01*
X46935420Y-60579301D01*
X47039301Y-60475420D01*
X47120920Y-60353269D01*
X47177140Y-60217542D01*
X47205800Y-60073455D01*
X47205800Y-59926545D01*
X47177140Y-59782458D01*
X47120921Y-59646733D01*
X47120921Y-59646732D01*
X47100585Y-59616298D01*
X47039301Y-59524580D01*
X46935420Y-59420699D01*
X46813269Y-59339080D01*
X46813268Y-59339079D01*
X46813266Y-59339078D01*
X46677542Y-59282860D01*
X46533457Y-59254200D01*
X46533455Y-59254200D01*
X46386545Y-59254200D01*
X46386542Y-59254200D01*
X46242458Y-59282860D01*
X46242456Y-59282860D01*
X46106733Y-59339078D01*
X46106732Y-59339078D01*
X45984580Y-59420699D01*
X45984576Y-59420702D01*
X45880702Y-59524576D01*
X45880699Y-59524580D01*
X45799078Y-59646732D01*
X45799078Y-59646733D01*
X45742860Y-59782456D01*
X45742860Y-59782458D01*
X45714200Y-59926542D01*
X42200000Y-59926542D01*
X42200000Y-58534108D01*
X48499500Y-58534108D01*
X48499500Y-58665892D01*
X48522037Y-58750001D01*
X48533609Y-58793190D01*
X48599496Y-58907309D01*
X48599498Y-58907311D01*
X48599500Y-58907314D01*
X48692686Y-59000500D01*
X48692688Y-59000501D01*
X48692690Y-59000503D01*
X48806810Y-59066390D01*
X48806808Y-59066390D01*
X48806812Y-59066391D01*
X48806814Y-59066392D01*
X48934108Y-59100500D01*
X48934110Y-59100500D01*
X49065890Y-59100500D01*
X49065892Y-59100500D01*
X49193186Y-59066392D01*
X49193188Y-59066390D01*
X49193190Y-59066390D01*
X49307309Y-59000503D01*
X49307309Y-59000502D01*
X49307314Y-59000500D01*
X49400500Y-58907314D01*
X49466392Y-58793186D01*
X49500500Y-58665892D01*
X49500500Y-58534108D01*
X49769500Y-58534108D01*
X49769500Y-58665892D01*
X49792037Y-58750001D01*
X49803609Y-58793190D01*
X49869496Y-58907309D01*
X49869498Y-58907311D01*
X49869500Y-58907314D01*
X49962686Y-59000500D01*
X49962688Y-59000501D01*
X49962690Y-59000503D01*
X50076810Y-59066390D01*
X50076808Y-59066390D01*
X50076812Y-59066391D01*
X50076814Y-59066392D01*
X50204108Y-59100500D01*
X50204110Y-59100500D01*
X50335890Y-59100500D01*
X50335892Y-59100500D01*
X50463186Y-59066392D01*
X50463188Y-59066390D01*
X50463190Y-59066390D01*
X50577309Y-59000503D01*
X50577309Y-59000502D01*
X50577314Y-59000500D01*
X50625198Y-58952615D01*
X50679713Y-58924840D01*
X50740145Y-58934411D01*
X50783410Y-58977676D01*
X50794200Y-59022621D01*
X50794200Y-59057457D01*
X50822860Y-59201541D01*
X50822860Y-59201543D01*
X50879078Y-59337266D01*
X50879078Y-59337267D01*
X50919749Y-59398134D01*
X50960699Y-59459420D01*
X51064580Y-59563301D01*
X51186731Y-59644920D01*
X51186732Y-59644920D01*
X51186733Y-59644921D01*
X51191108Y-59646733D01*
X51322458Y-59701140D01*
X51466545Y-59729800D01*
X51466547Y-59729800D01*
X51613453Y-59729800D01*
X51613455Y-59729800D01*
X51757542Y-59701140D01*
X51893269Y-59644920D01*
X52015420Y-59563301D01*
X52119301Y-59459420D01*
X52200920Y-59337269D01*
X52257140Y-59201542D01*
X52285800Y-59057455D01*
X52285800Y-58910545D01*
X52257140Y-58766458D01*
X52215483Y-58665890D01*
X52200921Y-58630733D01*
X52200921Y-58630732D01*
X52180585Y-58600298D01*
X52119301Y-58508580D01*
X52015420Y-58404699D01*
X51893269Y-58323080D01*
X51893268Y-58323079D01*
X51893266Y-58323078D01*
X51757542Y-58266860D01*
X51613457Y-58238200D01*
X51613455Y-58238200D01*
X51466545Y-58238200D01*
X51466542Y-58238200D01*
X51322458Y-58266860D01*
X51322456Y-58266860D01*
X51186733Y-58323078D01*
X51186732Y-58323078D01*
X51064580Y-58404699D01*
X51064576Y-58404702D01*
X50960702Y-58508576D01*
X50960700Y-58508579D01*
X50941447Y-58537392D01*
X50893396Y-58575270D01*
X50832258Y-58577670D01*
X50781385Y-58543676D01*
X50763508Y-58508014D01*
X50736392Y-58406814D01*
X50735171Y-58404699D01*
X50670503Y-58292690D01*
X50670501Y-58292688D01*
X50670500Y-58292686D01*
X50577314Y-58199500D01*
X50577311Y-58199498D01*
X50577309Y-58199496D01*
X50463189Y-58133609D01*
X50463191Y-58133609D01*
X50413799Y-58120375D01*
X50335892Y-58099500D01*
X50204108Y-58099500D01*
X50126200Y-58120375D01*
X50076809Y-58133609D01*
X49962690Y-58199496D01*
X49869496Y-58292690D01*
X49803609Y-58406809D01*
X49803608Y-58406814D01*
X49769500Y-58534108D01*
X49500500Y-58534108D01*
X49466392Y-58406814D01*
X49466390Y-58406810D01*
X49466390Y-58406809D01*
X49400503Y-58292690D01*
X49400501Y-58292688D01*
X49400500Y-58292686D01*
X49307314Y-58199500D01*
X49307311Y-58199498D01*
X49307309Y-58199496D01*
X49193189Y-58133609D01*
X49193191Y-58133609D01*
X49143799Y-58120375D01*
X49065892Y-58099500D01*
X48934108Y-58099500D01*
X48856200Y-58120375D01*
X48806809Y-58133609D01*
X48692690Y-58199496D01*
X48599496Y-58292690D01*
X48533609Y-58406809D01*
X48533608Y-58406814D01*
X48499500Y-58534108D01*
X42200000Y-58534108D01*
X42200000Y-56434108D01*
X47799500Y-56434108D01*
X47799500Y-56565892D01*
X47829579Y-56678151D01*
X47833609Y-56693190D01*
X47899496Y-56807309D01*
X47899498Y-56807311D01*
X47899500Y-56807314D01*
X47992686Y-56900500D01*
X47992688Y-56900501D01*
X47992690Y-56900503D01*
X48106810Y-56966390D01*
X48106808Y-56966390D01*
X48106812Y-56966391D01*
X48106814Y-56966392D01*
X48234108Y-57000500D01*
X48234110Y-57000500D01*
X48365890Y-57000500D01*
X48365892Y-57000500D01*
X48493186Y-56966392D01*
X48493188Y-56966390D01*
X48493190Y-56966390D01*
X48607309Y-56900503D01*
X48607309Y-56900502D01*
X48607314Y-56900500D01*
X48700500Y-56807314D01*
X48766392Y-56693186D01*
X48800500Y-56565892D01*
X48800500Y-56434108D01*
X48766392Y-56306814D01*
X48766390Y-56306811D01*
X48766390Y-56306809D01*
X48700503Y-56192690D01*
X48700501Y-56192688D01*
X48700500Y-56192686D01*
X48607314Y-56099500D01*
X48607311Y-56099498D01*
X48607309Y-56099496D01*
X48493189Y-56033609D01*
X48493191Y-56033609D01*
X48478722Y-56029732D01*
X48365892Y-55999500D01*
X48234108Y-55999500D01*
X48156200Y-56020375D01*
X48106809Y-56033609D01*
X47992690Y-56099496D01*
X47899496Y-56192690D01*
X47833609Y-56306809D01*
X47833608Y-56306814D01*
X47799500Y-56434108D01*
X42200000Y-56434108D01*
X42200000Y-56000001D01*
X42200000Y-56000000D01*
X42199999Y-56000000D01*
X38200001Y-56000000D01*
X38200000Y-56000000D01*
X38200000Y-56000001D01*
X38200000Y-61900500D01*
X38181093Y-61958691D01*
X38131593Y-61994655D01*
X38101000Y-61999500D01*
X37599000Y-61999500D01*
X37540809Y-61980593D01*
X37504845Y-61931093D01*
X37500000Y-61900500D01*
X37500000Y-58750001D01*
X37500000Y-58750000D01*
X36250000Y-57500000D01*
X36249999Y-57500000D01*
X33099500Y-57500000D01*
X33041309Y-57481093D01*
X33005345Y-57431593D01*
X33000500Y-57401000D01*
X33000500Y-55934108D01*
X49399500Y-55934108D01*
X49399500Y-56065892D01*
X49429579Y-56178151D01*
X49433609Y-56193190D01*
X49499496Y-56307309D01*
X49499498Y-56307311D01*
X49499500Y-56307314D01*
X49592686Y-56400500D01*
X49592688Y-56400501D01*
X49592690Y-56400503D01*
X49706810Y-56466390D01*
X49706808Y-56466390D01*
X49706812Y-56466391D01*
X49706814Y-56466392D01*
X49834108Y-56500500D01*
X49834110Y-56500500D01*
X49965890Y-56500500D01*
X49965892Y-56500500D01*
X50093186Y-56466392D01*
X50093188Y-56466390D01*
X50093190Y-56466390D01*
X50207309Y-56400503D01*
X50207309Y-56400502D01*
X50207314Y-56400500D01*
X50300500Y-56307314D01*
X50366392Y-56193186D01*
X50400500Y-56065892D01*
X50400500Y-55934108D01*
X51199500Y-55934108D01*
X51199500Y-56065892D01*
X51229579Y-56178151D01*
X51233609Y-56193190D01*
X51299496Y-56307309D01*
X51299498Y-56307311D01*
X51299500Y-56307314D01*
X51392686Y-56400500D01*
X51392688Y-56400501D01*
X51392690Y-56400503D01*
X51506810Y-56466390D01*
X51506808Y-56466390D01*
X51506812Y-56466391D01*
X51506814Y-56466392D01*
X51634108Y-56500500D01*
X51634110Y-56500500D01*
X51765890Y-56500500D01*
X51765892Y-56500500D01*
X51893186Y-56466392D01*
X51893188Y-56466390D01*
X51893190Y-56466390D01*
X52007309Y-56400503D01*
X52007309Y-56400502D01*
X52007314Y-56400500D01*
X52100500Y-56307314D01*
X52166392Y-56193186D01*
X52200500Y-56065892D01*
X52200500Y-55934108D01*
X52166392Y-55806814D01*
X52166390Y-55806811D01*
X52166390Y-55806809D01*
X52100503Y-55692690D01*
X52100501Y-55692688D01*
X52100500Y-55692686D01*
X52007314Y-55599500D01*
X52007311Y-55599498D01*
X52007309Y-55599496D01*
X51893189Y-55533609D01*
X51893191Y-55533609D01*
X51843799Y-55520375D01*
X51765892Y-55499500D01*
X51634108Y-55499500D01*
X51556200Y-55520375D01*
X51506809Y-55533609D01*
X51392690Y-55599496D01*
X51299496Y-55692690D01*
X51233609Y-55806809D01*
X51233608Y-55806814D01*
X51199500Y-55934108D01*
X50400500Y-55934108D01*
X50366392Y-55806814D01*
X50366390Y-55806811D01*
X50366390Y-55806809D01*
X50300503Y-55692690D01*
X50300501Y-55692688D01*
X50300500Y-55692686D01*
X50207314Y-55599500D01*
X50207311Y-55599498D01*
X50207309Y-55599496D01*
X50093189Y-55533609D01*
X50093191Y-55533609D01*
X50043799Y-55520375D01*
X49965892Y-55499500D01*
X49834108Y-55499500D01*
X49756200Y-55520375D01*
X49706809Y-55533609D01*
X49592690Y-55599496D01*
X49499496Y-55692690D01*
X49433609Y-55806809D01*
X49433608Y-55806814D01*
X49399500Y-55934108D01*
X33000500Y-55934108D01*
X33000500Y-54034108D01*
X33679500Y-54034108D01*
X33679500Y-54165892D01*
X33691157Y-54209396D01*
X33713609Y-54293190D01*
X33779496Y-54407309D01*
X33779498Y-54407311D01*
X33779500Y-54407314D01*
X33872686Y-54500500D01*
X33872688Y-54500501D01*
X33872690Y-54500503D01*
X33986810Y-54566390D01*
X33986808Y-54566390D01*
X33986812Y-54566391D01*
X33986814Y-54566392D01*
X34114108Y-54600500D01*
X34114110Y-54600500D01*
X34245890Y-54600500D01*
X34245892Y-54600500D01*
X34373186Y-54566392D01*
X34373188Y-54566390D01*
X34373190Y-54566390D01*
X34487309Y-54500503D01*
X34487309Y-54500502D01*
X34487314Y-54500500D01*
X34580500Y-54407314D01*
X34603894Y-54366794D01*
X34646390Y-54293190D01*
X34646390Y-54293188D01*
X34646392Y-54293186D01*
X34680500Y-54165892D01*
X34680500Y-54034110D01*
X36599501Y-54034110D01*
X36599501Y-54165894D01*
X36626458Y-54266501D01*
X36633610Y-54293192D01*
X36699497Y-54407311D01*
X36699499Y-54407313D01*
X36699501Y-54407316D01*
X36792687Y-54500502D01*
X36792689Y-54500503D01*
X36792691Y-54500505D01*
X36906811Y-54566392D01*
X36906809Y-54566392D01*
X36906813Y-54566393D01*
X36906815Y-54566394D01*
X37034109Y-54600502D01*
X37034111Y-54600502D01*
X37165891Y-54600502D01*
X37165893Y-54600502D01*
X37293187Y-54566394D01*
X37293189Y-54566392D01*
X37293191Y-54566392D01*
X37407310Y-54500505D01*
X37407310Y-54500504D01*
X37407315Y-54500502D01*
X37500501Y-54407316D01*
X37500505Y-54407309D01*
X37566391Y-54293192D01*
X37566391Y-54293190D01*
X37566393Y-54293188D01*
X37600501Y-54165894D01*
X37600501Y-54034110D01*
X37600500Y-54034108D01*
X42399500Y-54034108D01*
X42399500Y-54165892D01*
X42411157Y-54209396D01*
X42433609Y-54293190D01*
X42499496Y-54407309D01*
X42499498Y-54407311D01*
X42499500Y-54407314D01*
X42592686Y-54500500D01*
X42592688Y-54500501D01*
X42592690Y-54500503D01*
X42706810Y-54566390D01*
X42706808Y-54566390D01*
X42706812Y-54566391D01*
X42706814Y-54566392D01*
X42834108Y-54600500D01*
X42834110Y-54600500D01*
X42965890Y-54600500D01*
X42965892Y-54600500D01*
X43093186Y-54566392D01*
X43093188Y-54566390D01*
X43093190Y-54566390D01*
X43207309Y-54500503D01*
X43207309Y-54500502D01*
X43207314Y-54500500D01*
X43286659Y-54421155D01*
X58199500Y-54421155D01*
X58199500Y-54578844D01*
X58230263Y-54733496D01*
X58230263Y-54733498D01*
X58290603Y-54879174D01*
X58290609Y-54879185D01*
X58343312Y-54958059D01*
X58378211Y-55010289D01*
X58489711Y-55121789D01*
X58567876Y-55174017D01*
X58620814Y-55209390D01*
X58620825Y-55209396D01*
X58674638Y-55231685D01*
X58766503Y-55269737D01*
X58921158Y-55300500D01*
X58921159Y-55300500D01*
X59078841Y-55300500D01*
X59078842Y-55300500D01*
X59233497Y-55269737D01*
X59379179Y-55209394D01*
X59510289Y-55121789D01*
X59621789Y-55010289D01*
X59709394Y-54879179D01*
X59769737Y-54733497D01*
X59800500Y-54578842D01*
X59800500Y-54421158D01*
X59769737Y-54266503D01*
X59709795Y-54121788D01*
X59709396Y-54120825D01*
X59709390Y-54120814D01*
X59674017Y-54067876D01*
X59621789Y-53989711D01*
X59510289Y-53878211D01*
X59458059Y-53843312D01*
X59379185Y-53790609D01*
X59379174Y-53790603D01*
X59233497Y-53730263D01*
X59078844Y-53699500D01*
X59078842Y-53699500D01*
X58921158Y-53699500D01*
X58921155Y-53699500D01*
X58766503Y-53730263D01*
X58766501Y-53730263D01*
X58620825Y-53790603D01*
X58620814Y-53790609D01*
X58489711Y-53878211D01*
X58489707Y-53878214D01*
X58378214Y-53989707D01*
X58378211Y-53989711D01*
X58290609Y-54120814D01*
X58290603Y-54120825D01*
X58230263Y-54266501D01*
X58230263Y-54266503D01*
X58199500Y-54421155D01*
X43286659Y-54421155D01*
X43300500Y-54407314D01*
X43300503Y-54407309D01*
X43323895Y-54366794D01*
X43366390Y-54293190D01*
X43366390Y-54293188D01*
X43366392Y-54293186D01*
X43400500Y-54165892D01*
X43400500Y-54034108D01*
X43366392Y-53906814D01*
X43366390Y-53906811D01*
X43366390Y-53906809D01*
X43300503Y-53792690D01*
X43300501Y-53792688D01*
X43300500Y-53792686D01*
X43207314Y-53699500D01*
X43207311Y-53699498D01*
X43207309Y-53699496D01*
X43093189Y-53633609D01*
X43093191Y-53633609D01*
X43043799Y-53620375D01*
X42965892Y-53599500D01*
X42834108Y-53599500D01*
X42756200Y-53620375D01*
X42706809Y-53633609D01*
X42592690Y-53699496D01*
X42499496Y-53792690D01*
X42433609Y-53906809D01*
X42433608Y-53906814D01*
X42399500Y-54034108D01*
X37600500Y-54034108D01*
X37566393Y-53906816D01*
X37566391Y-53906813D01*
X37566391Y-53906811D01*
X37500504Y-53792692D01*
X37500502Y-53792690D01*
X37500501Y-53792688D01*
X37407315Y-53699502D01*
X37407312Y-53699500D01*
X37407310Y-53699498D01*
X37293190Y-53633611D01*
X37293192Y-53633611D01*
X37213779Y-53612333D01*
X37165893Y-53599502D01*
X37034109Y-53599502D01*
X36986223Y-53612333D01*
X36906810Y-53633611D01*
X36792691Y-53699498D01*
X36699497Y-53792692D01*
X36633610Y-53906811D01*
X36633609Y-53906816D01*
X36599501Y-54034110D01*
X34680500Y-54034110D01*
X34680500Y-54034108D01*
X34646392Y-53906814D01*
X34646390Y-53906811D01*
X34646390Y-53906809D01*
X34580503Y-53792690D01*
X34580501Y-53792688D01*
X34580500Y-53792686D01*
X34487314Y-53699500D01*
X34487311Y-53699498D01*
X34487309Y-53699496D01*
X34373189Y-53633609D01*
X34373191Y-53633609D01*
X34323799Y-53620375D01*
X34245892Y-53599500D01*
X34114108Y-53599500D01*
X34036200Y-53620375D01*
X33986809Y-53633609D01*
X33872690Y-53699496D01*
X33779496Y-53792690D01*
X33713609Y-53906809D01*
X33713608Y-53906814D01*
X33679500Y-54034108D01*
X33000500Y-54034108D01*
X33000500Y-53234108D01*
X49425654Y-53234108D01*
X49425654Y-53365892D01*
X49440463Y-53421159D01*
X49459763Y-53493190D01*
X49525650Y-53607309D01*
X49525652Y-53607311D01*
X49525654Y-53607314D01*
X49618840Y-53700500D01*
X49618842Y-53700501D01*
X49618844Y-53700503D01*
X49732964Y-53766390D01*
X49732962Y-53766390D01*
X49732966Y-53766391D01*
X49732968Y-53766392D01*
X49860262Y-53800500D01*
X49860264Y-53800500D01*
X49992044Y-53800500D01*
X49992046Y-53800500D01*
X50119340Y-53766392D01*
X50119342Y-53766390D01*
X50119344Y-53766390D01*
X50233463Y-53700503D01*
X50233463Y-53700502D01*
X50233468Y-53700500D01*
X50293075Y-53640892D01*
X50347590Y-53613117D01*
X50408022Y-53622688D01*
X50433077Y-53640891D01*
X50497705Y-53705519D01*
X50497707Y-53705520D01*
X50497709Y-53705522D01*
X50611829Y-53771409D01*
X50611827Y-53771409D01*
X50611831Y-53771410D01*
X50611833Y-53771411D01*
X50739127Y-53805519D01*
X50739129Y-53805519D01*
X50870909Y-53805519D01*
X50870911Y-53805519D01*
X50998205Y-53771411D01*
X50998207Y-53771409D01*
X50998209Y-53771409D01*
X51112328Y-53705522D01*
X51112328Y-53705521D01*
X51112333Y-53705519D01*
X51205519Y-53612333D01*
X51271411Y-53498205D01*
X51292056Y-53421155D01*
X56199500Y-53421155D01*
X56199500Y-53578844D01*
X56210394Y-53633608D01*
X56223699Y-53700500D01*
X56230263Y-53733496D01*
X56230263Y-53733498D01*
X56290603Y-53879174D01*
X56290609Y-53879185D01*
X56309072Y-53906816D01*
X56378211Y-54010289D01*
X56489711Y-54121789D01*
X56555713Y-54165890D01*
X56620814Y-54209390D01*
X56620825Y-54209396D01*
X56674638Y-54231685D01*
X56766503Y-54269737D01*
X56921158Y-54300500D01*
X56921159Y-54300500D01*
X57078841Y-54300500D01*
X57078842Y-54300500D01*
X57233497Y-54269737D01*
X57379179Y-54209394D01*
X57510289Y-54121789D01*
X57621789Y-54010289D01*
X57709394Y-53879179D01*
X57769737Y-53733497D01*
X57800500Y-53578842D01*
X57800500Y-53421158D01*
X57769737Y-53266503D01*
X57709394Y-53120821D01*
X57709393Y-53120819D01*
X57709390Y-53120814D01*
X57670511Y-53062628D01*
X57621789Y-52989711D01*
X57510289Y-52878211D01*
X57451049Y-52838628D01*
X57379185Y-52790609D01*
X57379174Y-52790603D01*
X57233497Y-52730263D01*
X57078844Y-52699500D01*
X57078842Y-52699500D01*
X56921158Y-52699500D01*
X56921155Y-52699500D01*
X56766503Y-52730263D01*
X56766501Y-52730263D01*
X56620825Y-52790603D01*
X56620814Y-52790609D01*
X56489711Y-52878211D01*
X56489707Y-52878214D01*
X56378214Y-52989707D01*
X56378211Y-52989711D01*
X56290609Y-53120814D01*
X56290603Y-53120825D01*
X56230263Y-53266501D01*
X56230263Y-53266503D01*
X56199500Y-53421155D01*
X51292056Y-53421155D01*
X51305519Y-53370911D01*
X51305519Y-53239127D01*
X51271411Y-53111833D01*
X51271409Y-53111830D01*
X51271409Y-53111828D01*
X51205522Y-52997709D01*
X51205520Y-52997707D01*
X51205519Y-52997705D01*
X51112333Y-52904519D01*
X51112330Y-52904517D01*
X51112328Y-52904515D01*
X50998208Y-52838628D01*
X50998210Y-52838628D01*
X50948818Y-52825394D01*
X50870911Y-52804519D01*
X50739127Y-52804519D01*
X50661219Y-52825394D01*
X50611828Y-52838628D01*
X50497709Y-52904515D01*
X50497708Y-52904516D01*
X50497705Y-52904518D01*
X50497705Y-52904519D01*
X50438097Y-52964126D01*
X50383583Y-52991902D01*
X50323151Y-52982331D01*
X50298095Y-52964127D01*
X50233468Y-52899500D01*
X50233465Y-52899498D01*
X50233463Y-52899496D01*
X50119343Y-52833609D01*
X50119345Y-52833609D01*
X50069953Y-52820375D01*
X49992046Y-52799500D01*
X49860262Y-52799500D01*
X49782354Y-52820375D01*
X49732963Y-52833609D01*
X49618844Y-52899496D01*
X49525650Y-52992690D01*
X49459763Y-53106809D01*
X49440693Y-53177978D01*
X49425654Y-53234108D01*
X33000500Y-53234108D01*
X33000500Y-51534108D01*
X41799500Y-51534108D01*
X41799500Y-51665892D01*
X41808505Y-51699499D01*
X41833609Y-51793190D01*
X41899496Y-51907309D01*
X41899498Y-51907311D01*
X41899500Y-51907314D01*
X41992686Y-52000500D01*
X41992688Y-52000501D01*
X41992690Y-52000503D01*
X42106810Y-52066390D01*
X42106808Y-52066390D01*
X42106812Y-52066391D01*
X42106814Y-52066392D01*
X42234108Y-52100500D01*
X42234110Y-52100500D01*
X42365890Y-52100500D01*
X42365892Y-52100500D01*
X42493186Y-52066392D01*
X42493188Y-52066390D01*
X42493190Y-52066390D01*
X42607309Y-52000503D01*
X42607309Y-52000502D01*
X42607314Y-52000500D01*
X42673706Y-51934108D01*
X43899500Y-51934108D01*
X43899500Y-52065892D01*
X43908773Y-52100500D01*
X43933609Y-52193190D01*
X43999496Y-52307309D01*
X43999498Y-52307311D01*
X43999500Y-52307314D01*
X44092686Y-52400500D01*
X44092688Y-52400501D01*
X44092690Y-52400503D01*
X44206810Y-52466390D01*
X44206808Y-52466390D01*
X44206812Y-52466391D01*
X44206814Y-52466392D01*
X44334108Y-52500500D01*
X44334110Y-52500500D01*
X44465890Y-52500500D01*
X44465892Y-52500500D01*
X44593186Y-52466392D01*
X44593188Y-52466390D01*
X44593190Y-52466390D01*
X44671541Y-52421154D01*
X58199500Y-52421154D01*
X58199500Y-52578843D01*
X58230263Y-52733495D01*
X58230263Y-52733497D01*
X58290603Y-52879173D01*
X58290609Y-52879184D01*
X58307536Y-52904516D01*
X58378211Y-53010288D01*
X58489711Y-53121788D01*
X58567876Y-53174016D01*
X58620814Y-53209389D01*
X58620825Y-53209395D01*
X58674638Y-53231684D01*
X58766503Y-53269736D01*
X58921158Y-53300499D01*
X58921159Y-53300499D01*
X59078841Y-53300499D01*
X59078842Y-53300499D01*
X59233497Y-53269736D01*
X59379179Y-53209393D01*
X59510289Y-53121788D01*
X59621789Y-53010288D01*
X59709394Y-52879178D01*
X59769737Y-52733496D01*
X59800500Y-52578841D01*
X59800500Y-52421157D01*
X59769737Y-52266502D01*
X59709394Y-52120820D01*
X59709393Y-52120818D01*
X59709390Y-52120813D01*
X59672691Y-52065890D01*
X59621789Y-51989710D01*
X59510289Y-51878210D01*
X59458059Y-51843311D01*
X59379185Y-51790608D01*
X59379174Y-51790602D01*
X59233497Y-51730262D01*
X59078844Y-51699499D01*
X59078842Y-51699499D01*
X58921158Y-51699499D01*
X58921155Y-51699499D01*
X58766503Y-51730262D01*
X58766501Y-51730262D01*
X58620825Y-51790602D01*
X58620814Y-51790608D01*
X58489711Y-51878210D01*
X58489707Y-51878213D01*
X58378214Y-51989706D01*
X58378211Y-51989710D01*
X58290609Y-52120813D01*
X58290603Y-52120824D01*
X58230263Y-52266500D01*
X58230263Y-52266502D01*
X58199500Y-52421154D01*
X44671541Y-52421154D01*
X44707309Y-52400503D01*
X44707309Y-52400502D01*
X44707314Y-52400500D01*
X44800500Y-52307314D01*
X44866392Y-52193186D01*
X44900500Y-52065892D01*
X44900500Y-51934108D01*
X44866392Y-51806814D01*
X44866390Y-51806811D01*
X44866390Y-51806809D01*
X44800503Y-51692690D01*
X44800501Y-51692688D01*
X44800500Y-51692686D01*
X44707314Y-51599500D01*
X44707311Y-51599498D01*
X44707309Y-51599496D01*
X44593189Y-51533609D01*
X44593191Y-51533609D01*
X44543799Y-51520375D01*
X44465892Y-51499500D01*
X44334108Y-51499500D01*
X44256200Y-51520375D01*
X44206809Y-51533609D01*
X44092690Y-51599496D01*
X43999496Y-51692690D01*
X43933609Y-51806809D01*
X43933608Y-51806814D01*
X43899500Y-51934108D01*
X42673706Y-51934108D01*
X42700500Y-51907314D01*
X42717302Y-51878213D01*
X42717357Y-51878118D01*
X42758524Y-51806814D01*
X42766392Y-51793186D01*
X42800500Y-51665892D01*
X42800500Y-51534108D01*
X42766392Y-51406814D01*
X42766390Y-51406811D01*
X42766390Y-51406809D01*
X42700503Y-51292690D01*
X42700501Y-51292688D01*
X42700500Y-51292686D01*
X42607314Y-51199500D01*
X42607311Y-51199498D01*
X42607309Y-51199496D01*
X42493189Y-51133609D01*
X42493191Y-51133609D01*
X42443799Y-51120375D01*
X42365892Y-51099500D01*
X42234108Y-51099500D01*
X42156200Y-51120375D01*
X42106809Y-51133609D01*
X41992690Y-51199496D01*
X41899496Y-51292690D01*
X41833609Y-51406809D01*
X41833608Y-51406814D01*
X41799500Y-51534108D01*
X33000500Y-51534108D01*
X33000500Y-50934108D01*
X46999500Y-50934108D01*
X46999500Y-51065892D01*
X47017644Y-51133608D01*
X47033609Y-51193190D01*
X47099496Y-51307309D01*
X47099498Y-51307311D01*
X47099500Y-51307314D01*
X47192686Y-51400500D01*
X47192688Y-51400501D01*
X47192690Y-51400503D01*
X47306810Y-51466390D01*
X47306808Y-51466390D01*
X47306812Y-51466391D01*
X47306814Y-51466392D01*
X47434108Y-51500500D01*
X47434110Y-51500500D01*
X47565890Y-51500500D01*
X47565892Y-51500500D01*
X47693186Y-51466392D01*
X47693188Y-51466390D01*
X47693190Y-51466390D01*
X47807309Y-51400503D01*
X47807309Y-51400502D01*
X47807314Y-51400500D01*
X47829998Y-51377815D01*
X47884513Y-51350040D01*
X47944945Y-51359611D01*
X47970000Y-51377814D01*
X47992686Y-51400500D01*
X47992688Y-51400501D01*
X47992690Y-51400503D01*
X48106810Y-51466390D01*
X48106808Y-51466390D01*
X48106812Y-51466391D01*
X48106814Y-51466392D01*
X48234108Y-51500500D01*
X48234110Y-51500500D01*
X48365890Y-51500500D01*
X48365892Y-51500500D01*
X48493186Y-51466392D01*
X48493188Y-51466390D01*
X48493190Y-51466390D01*
X48607309Y-51400503D01*
X48607309Y-51400502D01*
X48607314Y-51400500D01*
X48629998Y-51377815D01*
X48684513Y-51350040D01*
X48744945Y-51359611D01*
X48770000Y-51377814D01*
X48792686Y-51400500D01*
X48792688Y-51400501D01*
X48792690Y-51400503D01*
X48906810Y-51466390D01*
X48906808Y-51466390D01*
X48906812Y-51466391D01*
X48906814Y-51466392D01*
X49034108Y-51500500D01*
X49034110Y-51500500D01*
X49165890Y-51500500D01*
X49165892Y-51500500D01*
X49293186Y-51466392D01*
X49293188Y-51466390D01*
X49293190Y-51466390D01*
X49407309Y-51400503D01*
X49407309Y-51400502D01*
X49407314Y-51400500D01*
X49500500Y-51307314D01*
X49566392Y-51193186D01*
X49600500Y-51065892D01*
X49600500Y-50934108D01*
X49566392Y-50806814D01*
X49566390Y-50806811D01*
X49566390Y-50806809D01*
X49500503Y-50692690D01*
X49500501Y-50692688D01*
X49500500Y-50692686D01*
X49407314Y-50599500D01*
X49407311Y-50599498D01*
X49407309Y-50599496D01*
X49293189Y-50533609D01*
X49293191Y-50533609D01*
X49243799Y-50520375D01*
X49165892Y-50499500D01*
X49034108Y-50499500D01*
X48956200Y-50520375D01*
X48906809Y-50533609D01*
X48792690Y-50599496D01*
X48792684Y-50599501D01*
X48770002Y-50622183D01*
X48715485Y-50649959D01*
X48655053Y-50640387D01*
X48629998Y-50622183D01*
X48607315Y-50599501D01*
X48607309Y-50599496D01*
X48493189Y-50533609D01*
X48493191Y-50533609D01*
X48443799Y-50520375D01*
X48365892Y-50499500D01*
X48234108Y-50499500D01*
X48156200Y-50520375D01*
X48106809Y-50533609D01*
X47992690Y-50599496D01*
X47992684Y-50599501D01*
X47970002Y-50622183D01*
X47915485Y-50649959D01*
X47855053Y-50640387D01*
X47829998Y-50622183D01*
X47807315Y-50599501D01*
X47807309Y-50599496D01*
X47693189Y-50533609D01*
X47693191Y-50533609D01*
X47643799Y-50520375D01*
X47565892Y-50499500D01*
X47434108Y-50499500D01*
X47356200Y-50520375D01*
X47306809Y-50533609D01*
X47192690Y-50599496D01*
X47099496Y-50692690D01*
X47033609Y-50806809D01*
X47033608Y-50806814D01*
X46999500Y-50934108D01*
X33000500Y-50934108D01*
X33000500Y-46634108D01*
X39599500Y-46634108D01*
X39599500Y-46765892D01*
X39616330Y-46828702D01*
X39633609Y-46893190D01*
X39699496Y-47007309D01*
X39699498Y-47007311D01*
X39699500Y-47007314D01*
X39792686Y-47100500D01*
X39792688Y-47100501D01*
X39792690Y-47100503D01*
X39906810Y-47166390D01*
X39906808Y-47166390D01*
X39906812Y-47166391D01*
X39906814Y-47166392D01*
X40034108Y-47200500D01*
X40034110Y-47200500D01*
X40165890Y-47200500D01*
X40165892Y-47200500D01*
X40274879Y-47171297D01*
X40335978Y-47174500D01*
X40383528Y-47213005D01*
X40399500Y-47266924D01*
X40399500Y-47365892D01*
X40429579Y-47478151D01*
X40433609Y-47493190D01*
X40499496Y-47607309D01*
X40499498Y-47607311D01*
X40499500Y-47607314D01*
X40592686Y-47700500D01*
X40592688Y-47700501D01*
X40592690Y-47700503D01*
X40706810Y-47766390D01*
X40706808Y-47766390D01*
X40706812Y-47766391D01*
X40706814Y-47766392D01*
X40834108Y-47800500D01*
X40834110Y-47800500D01*
X40965890Y-47800500D01*
X40965892Y-47800500D01*
X41093186Y-47766392D01*
X41093188Y-47766390D01*
X41093190Y-47766390D01*
X41207309Y-47700503D01*
X41207309Y-47700502D01*
X41207314Y-47700500D01*
X41300500Y-47607314D01*
X41307740Y-47594775D01*
X41342766Y-47534108D01*
X48999500Y-47534108D01*
X48999500Y-47665892D01*
X49008773Y-47700500D01*
X49033609Y-47793190D01*
X49099496Y-47907309D01*
X49099498Y-47907311D01*
X49099500Y-47907314D01*
X49192686Y-48000500D01*
X49192688Y-48000501D01*
X49192690Y-48000503D01*
X49306810Y-48066390D01*
X49306808Y-48066390D01*
X49306812Y-48066391D01*
X49306814Y-48066392D01*
X49434108Y-48100500D01*
X49434110Y-48100500D01*
X49565890Y-48100500D01*
X49565892Y-48100500D01*
X49693186Y-48066392D01*
X49693188Y-48066390D01*
X49693190Y-48066390D01*
X49807309Y-48000503D01*
X49807309Y-48000502D01*
X49807314Y-48000500D01*
X49834384Y-47973429D01*
X49888898Y-47945652D01*
X49949331Y-47955223D01*
X49992596Y-47998487D01*
X50000013Y-48017809D01*
X50013031Y-48066390D01*
X50033609Y-48143190D01*
X50099496Y-48257309D01*
X50099498Y-48257311D01*
X50099500Y-48257314D01*
X50192686Y-48350500D01*
X50192688Y-48350501D01*
X50192690Y-48350503D01*
X50306810Y-48416390D01*
X50306808Y-48416390D01*
X50306812Y-48416391D01*
X50306814Y-48416392D01*
X50434108Y-48450500D01*
X50434110Y-48450500D01*
X50565890Y-48450500D01*
X50565892Y-48450500D01*
X50693186Y-48416392D01*
X50693188Y-48416390D01*
X50693190Y-48416390D01*
X50807309Y-48350503D01*
X50807309Y-48350502D01*
X50807314Y-48350500D01*
X50900500Y-48257314D01*
X50966392Y-48143186D01*
X51000500Y-48015892D01*
X51000500Y-47884108D01*
X50966392Y-47756814D01*
X50966390Y-47756811D01*
X50966390Y-47756809D01*
X50900503Y-47642690D01*
X50900501Y-47642688D01*
X50900500Y-47642686D01*
X50807314Y-47549500D01*
X50807311Y-47549498D01*
X50807309Y-47549496D01*
X50693189Y-47483609D01*
X50693191Y-47483609D01*
X50643799Y-47470375D01*
X50565892Y-47449500D01*
X50434108Y-47449500D01*
X50356200Y-47470375D01*
X50306809Y-47483609D01*
X50192690Y-47549496D01*
X50192684Y-47549501D01*
X50165614Y-47576571D01*
X50111097Y-47604347D01*
X50050666Y-47594775D01*
X50007402Y-47551510D01*
X49999987Y-47532195D01*
X49966392Y-47406814D01*
X49966390Y-47406811D01*
X49966390Y-47406809D01*
X49900503Y-47292690D01*
X49900501Y-47292688D01*
X49900500Y-47292686D01*
X49807314Y-47199500D01*
X49807311Y-47199498D01*
X49807309Y-47199496D01*
X49693189Y-47133609D01*
X49693191Y-47133609D01*
X49643799Y-47120375D01*
X49565892Y-47099500D01*
X49434108Y-47099500D01*
X49356200Y-47120375D01*
X49306809Y-47133609D01*
X49192690Y-47199496D01*
X49099496Y-47292690D01*
X49033609Y-47406809D01*
X49033608Y-47406814D01*
X48999500Y-47534108D01*
X41342766Y-47534108D01*
X41366388Y-47493193D01*
X41366388Y-47493192D01*
X41366392Y-47493186D01*
X41400500Y-47365892D01*
X41400500Y-47234108D01*
X41366392Y-47106814D01*
X41366390Y-47106811D01*
X41366390Y-47106809D01*
X41300503Y-46992690D01*
X41300501Y-46992688D01*
X41300500Y-46992686D01*
X41207314Y-46899500D01*
X41207311Y-46899498D01*
X41207309Y-46899496D01*
X41093189Y-46833609D01*
X41093191Y-46833609D01*
X41043799Y-46820375D01*
X40965892Y-46799500D01*
X40834108Y-46799500D01*
X40800874Y-46808405D01*
X40725122Y-46828702D01*
X40664021Y-46825499D01*
X40616471Y-46786994D01*
X40600500Y-46733075D01*
X40600500Y-46634109D01*
X40589535Y-46593186D01*
X40566392Y-46506814D01*
X40566390Y-46506811D01*
X40566390Y-46506809D01*
X40500503Y-46392690D01*
X40500501Y-46392688D01*
X40500500Y-46392686D01*
X40441922Y-46334108D01*
X51999500Y-46334108D01*
X51999500Y-46465892D01*
X52010464Y-46506809D01*
X52033609Y-46593190D01*
X52099496Y-46707309D01*
X52099498Y-46707311D01*
X52099500Y-46707314D01*
X52192686Y-46800500D01*
X52192688Y-46800501D01*
X52192690Y-46800503D01*
X52306810Y-46866390D01*
X52306808Y-46866390D01*
X52306812Y-46866391D01*
X52306814Y-46866392D01*
X52434108Y-46900500D01*
X52434110Y-46900500D01*
X52565890Y-46900500D01*
X52565892Y-46900500D01*
X52571513Y-46898994D01*
X57974500Y-46898994D01*
X57974500Y-47101005D01*
X58013908Y-47299124D01*
X58013910Y-47299130D01*
X58091213Y-47485755D01*
X58196073Y-47642690D01*
X58203442Y-47653718D01*
X58346282Y-47796558D01*
X58514244Y-47908786D01*
X58700873Y-47986091D01*
X58898997Y-48025500D01*
X58898998Y-48025500D01*
X59101002Y-48025500D01*
X59101003Y-48025500D01*
X59299127Y-47986091D01*
X59485756Y-47908786D01*
X59653718Y-47796558D01*
X59796558Y-47653718D01*
X59908786Y-47485756D01*
X59986091Y-47299127D01*
X60025500Y-47101003D01*
X60025500Y-46898997D01*
X59986091Y-46700873D01*
X59908786Y-46514244D01*
X59796558Y-46346282D01*
X59653718Y-46203442D01*
X59653714Y-46203439D01*
X59485755Y-46091213D01*
X59299130Y-46013910D01*
X59299124Y-46013908D01*
X59101005Y-45974500D01*
X59101003Y-45974500D01*
X58898997Y-45974500D01*
X58898994Y-45974500D01*
X58700875Y-46013908D01*
X58700869Y-46013910D01*
X58514244Y-46091213D01*
X58346285Y-46203439D01*
X58203439Y-46346285D01*
X58091213Y-46514244D01*
X58013910Y-46700869D01*
X58013908Y-46700875D01*
X57974500Y-46898994D01*
X52571513Y-46898994D01*
X52693186Y-46866392D01*
X52693188Y-46866390D01*
X52693190Y-46866390D01*
X52793623Y-46808405D01*
X52793630Y-46808400D01*
X52807314Y-46800500D01*
X52900500Y-46707314D01*
X52966392Y-46593186D01*
X53000500Y-46465892D01*
X53000500Y-46334108D01*
X52966392Y-46206814D01*
X52966390Y-46206811D01*
X52966390Y-46206809D01*
X52900503Y-46092690D01*
X52900501Y-46092688D01*
X52900500Y-46092686D01*
X52807314Y-45999500D01*
X52807311Y-45999498D01*
X52807309Y-45999496D01*
X52693189Y-45933609D01*
X52693191Y-45933609D01*
X52643799Y-45920375D01*
X52565892Y-45899500D01*
X52434108Y-45899500D01*
X52356200Y-45920375D01*
X52306809Y-45933609D01*
X52192690Y-45999496D01*
X52099496Y-46092690D01*
X52033609Y-46206809D01*
X52026428Y-46233609D01*
X51999500Y-46334108D01*
X40441922Y-46334108D01*
X40407314Y-46299500D01*
X40407311Y-46299498D01*
X40407309Y-46299496D01*
X40293189Y-46233609D01*
X40293191Y-46233609D01*
X40243799Y-46220375D01*
X40165892Y-46199500D01*
X40034108Y-46199500D01*
X39956200Y-46220375D01*
X39906809Y-46233609D01*
X39792690Y-46299496D01*
X39699496Y-46392690D01*
X39633609Y-46506809D01*
X39633608Y-46506814D01*
X39599500Y-46634108D01*
X33000500Y-46634108D01*
X33000500Y-45334108D01*
X40099500Y-45334108D01*
X40099500Y-45465892D01*
X40110598Y-45507309D01*
X40133609Y-45593190D01*
X40199496Y-45707309D01*
X40199498Y-45707311D01*
X40199500Y-45707314D01*
X40292686Y-45800500D01*
X40292688Y-45800501D01*
X40292690Y-45800503D01*
X40406810Y-45866390D01*
X40406808Y-45866390D01*
X40406812Y-45866391D01*
X40406814Y-45866392D01*
X40534108Y-45900500D01*
X40534110Y-45900500D01*
X40665890Y-45900500D01*
X40665892Y-45900500D01*
X40793186Y-45866392D01*
X40793188Y-45866390D01*
X40793190Y-45866390D01*
X40907309Y-45800503D01*
X40907309Y-45800502D01*
X40907314Y-45800500D01*
X41000500Y-45707314D01*
X41004434Y-45700500D01*
X41066390Y-45593190D01*
X41066390Y-45593188D01*
X41066392Y-45593186D01*
X41100500Y-45465892D01*
X41100500Y-45334108D01*
X41066392Y-45206814D01*
X41024415Y-45134108D01*
X43999500Y-45134108D01*
X43999500Y-45265892D01*
X44017778Y-45334108D01*
X44033609Y-45393190D01*
X44099496Y-45507309D01*
X44099498Y-45507311D01*
X44099500Y-45507314D01*
X44192686Y-45600500D01*
X44192688Y-45600501D01*
X44192690Y-45600503D01*
X44306810Y-45666390D01*
X44306808Y-45666390D01*
X44306812Y-45666391D01*
X44306814Y-45666392D01*
X44434108Y-45700500D01*
X44434110Y-45700500D01*
X44565890Y-45700500D01*
X44565892Y-45700500D01*
X44693186Y-45666392D01*
X44693188Y-45666390D01*
X44693190Y-45666390D01*
X44807309Y-45600503D01*
X44807309Y-45600502D01*
X44807314Y-45600500D01*
X44900500Y-45507314D01*
X44966392Y-45393186D01*
X45000500Y-45265892D01*
X45000500Y-45134108D01*
X45399500Y-45134108D01*
X45399500Y-45265892D01*
X45417778Y-45334108D01*
X45433609Y-45393190D01*
X45499496Y-45507309D01*
X45499498Y-45507311D01*
X45499500Y-45507314D01*
X45592686Y-45600500D01*
X45592688Y-45600501D01*
X45592690Y-45600503D01*
X45706810Y-45666390D01*
X45706808Y-45666390D01*
X45706812Y-45666391D01*
X45706814Y-45666392D01*
X45834108Y-45700500D01*
X45834110Y-45700500D01*
X45965890Y-45700500D01*
X45965892Y-45700500D01*
X46093186Y-45666392D01*
X46093188Y-45666390D01*
X46093190Y-45666390D01*
X46207309Y-45600503D01*
X46207309Y-45600502D01*
X46207314Y-45600500D01*
X46300500Y-45507314D01*
X46366392Y-45393186D01*
X46400500Y-45265892D01*
X46400500Y-45134108D01*
X46366392Y-45006814D01*
X46366390Y-45006811D01*
X46366390Y-45006809D01*
X46300503Y-44892690D01*
X46300501Y-44892688D01*
X46300500Y-44892686D01*
X46207314Y-44799500D01*
X46207311Y-44799498D01*
X46207309Y-44799496D01*
X46093189Y-44733609D01*
X46093191Y-44733609D01*
X46043799Y-44720375D01*
X45965892Y-44699500D01*
X45834108Y-44699500D01*
X45756200Y-44720375D01*
X45706809Y-44733609D01*
X45592690Y-44799496D01*
X45499496Y-44892690D01*
X45433609Y-45006809D01*
X45433608Y-45006814D01*
X45399500Y-45134108D01*
X45000500Y-45134108D01*
X44966392Y-45006814D01*
X44966390Y-45006811D01*
X44966390Y-45006809D01*
X44900503Y-44892690D01*
X44900501Y-44892688D01*
X44900500Y-44892686D01*
X44807314Y-44799500D01*
X44807311Y-44799498D01*
X44807309Y-44799496D01*
X44693189Y-44733609D01*
X44693191Y-44733609D01*
X44643799Y-44720375D01*
X44565892Y-44699500D01*
X44434108Y-44699500D01*
X44356200Y-44720375D01*
X44306809Y-44733609D01*
X44192690Y-44799496D01*
X44099496Y-44892690D01*
X44033609Y-45006809D01*
X44033608Y-45006814D01*
X43999500Y-45134108D01*
X41024415Y-45134108D01*
X41000500Y-45092686D01*
X40907314Y-44999500D01*
X40907311Y-44999498D01*
X40907309Y-44999496D01*
X40793189Y-44933609D01*
X40793191Y-44933609D01*
X40743799Y-44920375D01*
X40665892Y-44899500D01*
X40534108Y-44899500D01*
X40456200Y-44920375D01*
X40406809Y-44933609D01*
X40292690Y-44999496D01*
X40199496Y-45092690D01*
X40133609Y-45206809D01*
X40133608Y-45206814D01*
X40099500Y-45334108D01*
X33000500Y-45334108D01*
X33000500Y-43398994D01*
X57974500Y-43398994D01*
X57974500Y-43601005D01*
X58013908Y-43799124D01*
X58013910Y-43799130D01*
X58091213Y-43985755D01*
X58091214Y-43985756D01*
X58203442Y-44153718D01*
X58346282Y-44296558D01*
X58514244Y-44408786D01*
X58700873Y-44486091D01*
X58898997Y-44525500D01*
X58898998Y-44525500D01*
X59101002Y-44525500D01*
X59101003Y-44525500D01*
X59299127Y-44486091D01*
X59485756Y-44408786D01*
X59653718Y-44296558D01*
X59796558Y-44153718D01*
X59908786Y-43985756D01*
X59986091Y-43799127D01*
X60025500Y-43601003D01*
X60025500Y-43398997D01*
X59986091Y-43200873D01*
X59908786Y-43014244D01*
X59796558Y-42846282D01*
X59653718Y-42703442D01*
X59485756Y-42591214D01*
X59485757Y-42591214D01*
X59485755Y-42591213D01*
X59299130Y-42513910D01*
X59299124Y-42513908D01*
X59101005Y-42474500D01*
X59101003Y-42474500D01*
X58898997Y-42474500D01*
X58898994Y-42474500D01*
X58700875Y-42513908D01*
X58700869Y-42513910D01*
X58514244Y-42591213D01*
X58346285Y-42703439D01*
X58203439Y-42846285D01*
X58091213Y-43014244D01*
X58013910Y-43200869D01*
X58013908Y-43200875D01*
X57974500Y-43398994D01*
X33000500Y-43398994D01*
X33000500Y-39155253D01*
X57974500Y-39155253D01*
X57974500Y-40844746D01*
X57974501Y-40844758D01*
X57986132Y-40903227D01*
X57986133Y-40903231D01*
X58030448Y-40969552D01*
X58096769Y-41013867D01*
X58141231Y-41022711D01*
X58155241Y-41025498D01*
X58155246Y-41025498D01*
X58155252Y-41025500D01*
X58155253Y-41025500D01*
X59844747Y-41025500D01*
X59844748Y-41025500D01*
X59903231Y-41013867D01*
X59969552Y-40969552D01*
X60013867Y-40903231D01*
X60025500Y-40844748D01*
X60025500Y-39155252D01*
X60013867Y-39096769D01*
X59969552Y-39030448D01*
X59969548Y-39030445D01*
X59903233Y-38986134D01*
X59903231Y-38986133D01*
X59903228Y-38986132D01*
X59903227Y-38986132D01*
X59844758Y-38974501D01*
X59844748Y-38974500D01*
X58155252Y-38974500D01*
X58155251Y-38974500D01*
X58155241Y-38974501D01*
X58096772Y-38986132D01*
X58096766Y-38986134D01*
X58030451Y-39030445D01*
X58030445Y-39030451D01*
X57986134Y-39096766D01*
X57986132Y-39096772D01*
X57974501Y-39155241D01*
X57974500Y-39155253D01*
X33000500Y-39155253D01*
X33000500Y-38584108D01*
X49449500Y-38584108D01*
X49449500Y-38715892D01*
X49479579Y-38828151D01*
X49483609Y-38843190D01*
X49549496Y-38957309D01*
X49549498Y-38957311D01*
X49549500Y-38957314D01*
X49642686Y-39050500D01*
X49642688Y-39050501D01*
X49642690Y-39050503D01*
X49756810Y-39116390D01*
X49756808Y-39116390D01*
X49756812Y-39116391D01*
X49756814Y-39116392D01*
X49884108Y-39150500D01*
X49884110Y-39150500D01*
X50015890Y-39150500D01*
X50015892Y-39150500D01*
X50143186Y-39116392D01*
X50143188Y-39116390D01*
X50143190Y-39116390D01*
X50232789Y-39064660D01*
X50232795Y-39064655D01*
X50257314Y-39050500D01*
X50350500Y-38957314D01*
X50416392Y-38843186D01*
X50450500Y-38715892D01*
X50450500Y-38597618D01*
X50469407Y-38539427D01*
X50518907Y-38503463D01*
X50580093Y-38503463D01*
X50599002Y-38511883D01*
X50606810Y-38516391D01*
X50606811Y-38516391D01*
X50606814Y-38516393D01*
X50734108Y-38550501D01*
X50734110Y-38550501D01*
X50865890Y-38550501D01*
X50865892Y-38550501D01*
X50993186Y-38516393D01*
X50993188Y-38516391D01*
X50993190Y-38516391D01*
X51107309Y-38450504D01*
X51107309Y-38450503D01*
X51107314Y-38450501D01*
X51200500Y-38357315D01*
X51200503Y-38357310D01*
X51266390Y-38243191D01*
X51266390Y-38243189D01*
X51266392Y-38243187D01*
X51300500Y-38115893D01*
X51300500Y-37984109D01*
X51300500Y-37984108D01*
X51699500Y-37984108D01*
X51699500Y-38115892D01*
X51711472Y-38160573D01*
X51733609Y-38243190D01*
X51799496Y-38357309D01*
X51799498Y-38357311D01*
X51799500Y-38357314D01*
X51892686Y-38450500D01*
X51892688Y-38450501D01*
X51892690Y-38450503D01*
X52006810Y-38516390D01*
X52006808Y-38516390D01*
X52006812Y-38516391D01*
X52006814Y-38516392D01*
X52134108Y-38550500D01*
X52134110Y-38550500D01*
X52265890Y-38550500D01*
X52265892Y-38550500D01*
X52393186Y-38516392D01*
X52393188Y-38516390D01*
X52393190Y-38516390D01*
X52507309Y-38450503D01*
X52507309Y-38450502D01*
X52507314Y-38450500D01*
X52600500Y-38357314D01*
X52608946Y-38342686D01*
X52666390Y-38243190D01*
X52666391Y-38243187D01*
X52666392Y-38243186D01*
X52700500Y-38115892D01*
X52700500Y-37984108D01*
X52666392Y-37856814D01*
X52666390Y-37856810D01*
X52666390Y-37856809D01*
X52600503Y-37742690D01*
X52600501Y-37742688D01*
X52600500Y-37742686D01*
X52507314Y-37649500D01*
X52507311Y-37649498D01*
X52507309Y-37649496D01*
X52393189Y-37583609D01*
X52393191Y-37583609D01*
X52343799Y-37570375D01*
X52265892Y-37549500D01*
X52134108Y-37549500D01*
X52056200Y-37570375D01*
X52006809Y-37583609D01*
X51892690Y-37649496D01*
X51799496Y-37742690D01*
X51733609Y-37856809D01*
X51721902Y-37900500D01*
X51699500Y-37984108D01*
X51300500Y-37984108D01*
X51266392Y-37856815D01*
X51266390Y-37856812D01*
X51266390Y-37856810D01*
X51200503Y-37742691D01*
X51200501Y-37742689D01*
X51200500Y-37742687D01*
X51107314Y-37649501D01*
X51107311Y-37649499D01*
X51107309Y-37649497D01*
X50993189Y-37583610D01*
X50993191Y-37583610D01*
X50936451Y-37568407D01*
X50865892Y-37549501D01*
X50734108Y-37549501D01*
X50663549Y-37568407D01*
X50606809Y-37583610D01*
X50492690Y-37649497D01*
X50399496Y-37742691D01*
X50333609Y-37856810D01*
X50333608Y-37856815D01*
X50299501Y-37984108D01*
X50299500Y-37984110D01*
X50299500Y-38102382D01*
X50280593Y-38160573D01*
X50231093Y-38196537D01*
X50169907Y-38196537D01*
X50151003Y-38188120D01*
X50143189Y-38183609D01*
X50143191Y-38183609D01*
X50093799Y-38170375D01*
X50015892Y-38149500D01*
X49884108Y-38149500D01*
X49806200Y-38170375D01*
X49756809Y-38183609D01*
X49642690Y-38249496D01*
X49549496Y-38342690D01*
X49483609Y-38456809D01*
X49467644Y-38516392D01*
X49449500Y-38584108D01*
X33000500Y-38584108D01*
X33000500Y-37599000D01*
X33019407Y-37540809D01*
X33068907Y-37504845D01*
X33099500Y-37500000D01*
X36249999Y-37500000D01*
X36250000Y-37500000D01*
X36315892Y-37434108D01*
X41099500Y-37434108D01*
X41099500Y-37565892D01*
X41121903Y-37649501D01*
X41133609Y-37693190D01*
X41199496Y-37807309D01*
X41199498Y-37807311D01*
X41199500Y-37807314D01*
X41292686Y-37900500D01*
X41292688Y-37900501D01*
X41292690Y-37900503D01*
X41406810Y-37966390D01*
X41406808Y-37966390D01*
X41406812Y-37966391D01*
X41406814Y-37966392D01*
X41534108Y-38000500D01*
X41534110Y-38000500D01*
X41665890Y-38000500D01*
X41665892Y-38000500D01*
X41793186Y-37966392D01*
X41793188Y-37966390D01*
X41793190Y-37966390D01*
X41907309Y-37900503D01*
X41907309Y-37900502D01*
X41907314Y-37900500D01*
X42000500Y-37807314D01*
X42066392Y-37693186D01*
X42100500Y-37565892D01*
X42100500Y-37434108D01*
X42066392Y-37306814D01*
X42066390Y-37306811D01*
X42066390Y-37306809D01*
X42000503Y-37192690D01*
X42000501Y-37192688D01*
X42000500Y-37192686D01*
X41907314Y-37099500D01*
X41907311Y-37099498D01*
X41907308Y-37099495D01*
X41793189Y-37033609D01*
X41793191Y-37033609D01*
X41736731Y-37018481D01*
X41736720Y-37018478D01*
X45149500Y-37018478D01*
X45149500Y-37981521D01*
X45149501Y-37981523D01*
X45164352Y-38075299D01*
X45164354Y-38075304D01*
X45221950Y-38188342D01*
X45311658Y-38278050D01*
X45424696Y-38335646D01*
X45518481Y-38350500D01*
X45981518Y-38350499D01*
X45981520Y-38350499D01*
X45981521Y-38350498D01*
X46030826Y-38342690D01*
X46075299Y-38335647D01*
X46075299Y-38335646D01*
X46075304Y-38335646D01*
X46188342Y-38278050D01*
X46278050Y-38188342D01*
X46335646Y-38075304D01*
X46350500Y-37981519D01*
X46350499Y-37018482D01*
X46350499Y-37018481D01*
X46350499Y-37018478D01*
X46350498Y-37018476D01*
X46335647Y-36924700D01*
X46335646Y-36924698D01*
X46335646Y-36924696D01*
X46278050Y-36811658D01*
X46188342Y-36721950D01*
X46075304Y-36664354D01*
X46075305Y-36664354D01*
X45981522Y-36649500D01*
X45518479Y-36649500D01*
X45518476Y-36649501D01*
X45424700Y-36664352D01*
X45424695Y-36664354D01*
X45311659Y-36721949D01*
X45221949Y-36811659D01*
X45164354Y-36924695D01*
X45149500Y-37018478D01*
X41736720Y-37018478D01*
X41665892Y-36999500D01*
X41534108Y-36999500D01*
X41463269Y-37018481D01*
X41406809Y-37033609D01*
X41292690Y-37099496D01*
X41199496Y-37192690D01*
X41133609Y-37306809D01*
X41133608Y-37306814D01*
X41099500Y-37434108D01*
X36315892Y-37434108D01*
X37500000Y-36250000D01*
X37500000Y-34834108D01*
X43699500Y-34834108D01*
X43699500Y-34965892D01*
X43708639Y-35000000D01*
X43733609Y-35093190D01*
X43799496Y-35207309D01*
X43799498Y-35207311D01*
X43799500Y-35207314D01*
X43892686Y-35300500D01*
X43892688Y-35300501D01*
X43892690Y-35300503D01*
X44006810Y-35366390D01*
X44006808Y-35366390D01*
X44006812Y-35366391D01*
X44006814Y-35366392D01*
X44134108Y-35400500D01*
X44134110Y-35400500D01*
X44265890Y-35400500D01*
X44265892Y-35400500D01*
X44393186Y-35366392D01*
X44393188Y-35366390D01*
X44393190Y-35366390D01*
X44507309Y-35300503D01*
X44507309Y-35300502D01*
X44507314Y-35300500D01*
X44600500Y-35207314D01*
X44666392Y-35093186D01*
X44700500Y-34965892D01*
X44700500Y-34834108D01*
X44666392Y-34706814D01*
X44666390Y-34706811D01*
X44666390Y-34706809D01*
X44600503Y-34592690D01*
X44600501Y-34592688D01*
X44600500Y-34592686D01*
X44507314Y-34499500D01*
X44507311Y-34499498D01*
X44507309Y-34499496D01*
X44393189Y-34433609D01*
X44393191Y-34433609D01*
X44343799Y-34420375D01*
X44265892Y-34399500D01*
X44134108Y-34399500D01*
X44056200Y-34420375D01*
X44006809Y-34433609D01*
X43892690Y-34499496D01*
X43799496Y-34592690D01*
X43733609Y-34706809D01*
X43733608Y-34706814D01*
X43699500Y-34834108D01*
X37500000Y-34834108D01*
X37500000Y-33099500D01*
X37518907Y-33041309D01*
X37568407Y-33005345D01*
X37599000Y-33000500D01*
X54067891Y-33000500D01*
X54126082Y-33019407D01*
G37*
%TD.AperFunction*%
%TD*%
M02*
