%TF.GenerationSoftware,KiCad,Pcbnew,9.0.5*%
%TF.CreationDate,2026-01-28T11:34:24-05:00*%
%TF.ProjectId,lmp91000-pcb,6c6d7039-3130-4303-902d-7063622e6b69,rev?*%
%TF.SameCoordinates,Original*%
%TF.FileFunction,Legend,Bot*%
%TF.FilePolarity,Positive*%
%FSLAX46Y46*%
G04 Gerber Fmt 4.6, Leading zero omitted, Abs format (unit mm)*
G04 Created by KiCad (PCBNEW 9.0.5) date 2026-01-28 11:34:24*
%MOMM*%
%LPD*%
G01*
G04 APERTURE LIST*
%ADD10C,0.100000*%
%ADD11C,0.200000*%
%ADD12C,0.150000*%
%ADD13C,0.120000*%
%ADD14C,0.000000*%
G04 APERTURE END LIST*
D10*
X56700000Y-40900000D02*
X58000000Y-40900000D01*
X56700000Y-47900000D02*
X58000000Y-47900000D01*
D11*
X58000000Y-46050000D02*
X58000000Y-47950000D01*
D10*
X56700000Y-39100000D02*
X58000000Y-39100000D01*
X56700000Y-46100000D02*
X58000000Y-46100000D01*
X56700000Y-44400000D02*
X58000000Y-44400000D01*
X56700000Y-46000000D02*
X60000000Y-46000000D01*
X60000000Y-48000000D01*
X56700000Y-48000000D01*
X56700000Y-46000000D01*
X56700000Y-42500000D02*
X60000000Y-42500000D01*
X60000000Y-44500000D01*
X56700000Y-44500000D01*
X56700000Y-42500000D01*
D11*
X58000000Y-39050000D02*
X58000000Y-40950000D01*
D10*
X56700000Y-42600000D02*
X58000000Y-42600000D01*
X56700000Y-39000000D02*
X60000000Y-39000000D01*
X60000000Y-41000000D01*
X56700000Y-41000000D01*
X56700000Y-39000000D01*
D11*
X58000000Y-42550000D02*
X58000000Y-44450000D01*
D12*
G36*
X57302618Y-39584299D02*
G01*
X57299290Y-39627072D01*
X57289979Y-39662517D01*
X57274250Y-39693605D01*
X57253464Y-39717533D01*
X57232638Y-39733041D01*
X57207669Y-39744522D01*
X57180066Y-39751349D01*
X57148257Y-39753742D01*
X57110083Y-39750603D01*
X57078220Y-39741774D01*
X57050306Y-39726714D01*
X57028028Y-39705932D01*
X57012580Y-39682840D01*
X57000734Y-39653969D01*
X56993674Y-39621964D01*
X56991147Y-39583627D01*
X56991147Y-39442210D01*
X57302618Y-39442210D01*
X57302618Y-39584299D01*
G37*
G36*
X57941111Y-40881697D02*
G01*
X56724271Y-40881697D01*
X56724271Y-40768510D01*
X56835382Y-40768510D01*
X56991819Y-40768510D01*
X56991819Y-40293030D01*
X57242534Y-40293030D01*
X57242534Y-40701588D01*
X57394148Y-40701588D01*
X57394148Y-40293030D01*
X57674905Y-40293030D01*
X57674905Y-40770586D01*
X57830000Y-40770586D01*
X57830000Y-40100445D01*
X56835382Y-40100445D01*
X56835382Y-40768510D01*
X56724271Y-40768510D01*
X56724271Y-39583627D01*
X56835382Y-39583627D01*
X56840464Y-39663981D01*
X56854860Y-39733226D01*
X56879344Y-39796393D01*
X56911891Y-39848020D01*
X56953942Y-39889672D01*
X57005497Y-39920743D01*
X57064466Y-39939684D01*
X57135251Y-39946389D01*
X57186998Y-39943082D01*
X57231238Y-39933749D01*
X57272034Y-39918262D01*
X57307442Y-39897845D01*
X57339358Y-39871654D01*
X57366854Y-39840815D01*
X57390217Y-39806084D01*
X57410573Y-39766687D01*
X57821146Y-39980522D01*
X57830000Y-39980522D01*
X57830000Y-39774930D01*
X57458384Y-39587718D01*
X57458384Y-39442210D01*
X57830000Y-39442210D01*
X57830000Y-39250297D01*
X56835382Y-39250297D01*
X56835382Y-39583627D01*
X56724271Y-39583627D01*
X56724271Y-39139186D01*
X57941111Y-39139186D01*
X57941111Y-40881697D01*
G37*
X48766666Y-37573866D02*
X48004762Y-37573866D01*
X48385714Y-37954819D02*
X48385714Y-37192914D01*
X42195236Y-37573866D02*
X41433332Y-37573866D01*
G36*
X57941111Y-44381697D02*
G01*
X56724271Y-44381697D01*
X56724271Y-44268510D01*
X56835382Y-44268510D01*
X56991819Y-44268510D01*
X56991819Y-43793030D01*
X57242534Y-43793030D01*
X57242534Y-44201588D01*
X57394148Y-44201588D01*
X57394148Y-43793030D01*
X57674905Y-43793030D01*
X57674905Y-44270586D01*
X57830000Y-44270586D01*
X57830000Y-43600445D01*
X56835382Y-43600445D01*
X56835382Y-44268510D01*
X56724271Y-44268510D01*
X56724271Y-42854100D01*
X56835382Y-42854100D01*
X57391461Y-42920351D01*
X57430357Y-42925174D01*
X57389385Y-42931280D01*
X56835382Y-43009866D01*
X56835382Y-43147191D01*
X57393476Y-43230478D01*
X57434448Y-43236645D01*
X57392805Y-43241408D01*
X56835382Y-43309063D01*
X56835382Y-43485284D01*
X57830000Y-43347287D01*
X57830000Y-43173814D01*
X57293093Y-43087046D01*
X57242534Y-43079536D01*
X57293093Y-43072025D01*
X57830000Y-42988678D01*
X57830000Y-42815143D01*
X56835382Y-42678550D01*
X56835382Y-42854100D01*
X56724271Y-42854100D01*
X56724271Y-42567439D01*
X57941111Y-42567439D01*
X57941111Y-44381697D01*
G37*
G36*
X41784157Y-35220595D02*
G01*
X41816398Y-35233702D01*
X41843593Y-35254563D01*
X41865552Y-35282184D01*
X41881932Y-35314719D01*
X41893640Y-35353197D01*
X41900231Y-35394233D01*
X41902494Y-35438621D01*
X41902494Y-35452971D01*
X41900220Y-35498532D01*
X41893640Y-35540043D01*
X41881887Y-35578738D01*
X41865552Y-35610751D01*
X41843535Y-35638308D01*
X41816032Y-35659234D01*
X41783401Y-35672334D01*
X41742637Y-35677002D01*
X41703046Y-35672359D01*
X41670891Y-35659234D01*
X41643677Y-35638338D01*
X41621676Y-35610751D01*
X41605917Y-35578789D01*
X41594382Y-35540043D01*
X41587802Y-35498532D01*
X41585528Y-35452971D01*
X41585528Y-35438621D01*
X41587790Y-35394233D01*
X41594382Y-35353197D01*
X41605873Y-35314670D01*
X41621676Y-35282184D01*
X41643684Y-35254560D01*
X41670891Y-35233702D01*
X41703216Y-35220614D01*
X41743980Y-35215933D01*
X41784157Y-35220595D01*
G37*
G36*
X49761232Y-35940460D02*
G01*
X40456168Y-35940460D01*
X40456168Y-35360036D01*
X40567279Y-35360036D01*
X40567279Y-35815000D01*
X40757239Y-35815000D01*
X40757239Y-35362784D01*
X40759964Y-35321128D01*
X40767131Y-35290732D01*
X40779516Y-35264788D01*
X40795463Y-35245975D01*
X40815563Y-35232150D01*
X40839854Y-35223077D01*
X40898595Y-35216605D01*
X40948848Y-35222772D01*
X40989453Y-35241151D01*
X41015465Y-35262400D01*
X41036592Y-35289694D01*
X41036592Y-35815000D01*
X41227224Y-35815000D01*
X41227224Y-35438621D01*
X41394896Y-35438621D01*
X41394896Y-35452971D01*
X41400876Y-35532148D01*
X41418160Y-35602936D01*
X41446969Y-35667577D01*
X41485755Y-35722065D01*
X41534931Y-35766833D01*
X41595053Y-35801017D01*
X41639163Y-35816452D01*
X41688100Y-35826027D01*
X41742637Y-35829349D01*
X41797627Y-35826022D01*
X41846885Y-35816442D01*
X41891198Y-35801017D01*
X41951588Y-35766817D01*
X42000863Y-35722065D01*
X42040191Y-35667530D01*
X42043285Y-35660638D01*
X42252555Y-35660638D01*
X42252555Y-35815000D01*
X42855102Y-35815000D01*
X42855102Y-35660638D01*
X43930992Y-35660638D01*
X43930992Y-35815000D01*
X44533539Y-35815000D01*
X44533539Y-35660638D01*
X44323124Y-35660638D01*
X44323124Y-35659905D01*
X44758609Y-35659905D01*
X44758609Y-35815000D01*
X45417149Y-35815000D01*
X45417149Y-34820382D01*
X46379649Y-34820382D01*
X46680922Y-35815000D01*
X46876316Y-35815000D01*
X47144864Y-34926261D01*
X47291285Y-34926261D01*
X47678654Y-35815000D01*
X47878750Y-35815000D01*
X47827928Y-35705029D01*
X48324493Y-35705029D01*
X48328609Y-35739017D01*
X48340512Y-35768123D01*
X48360397Y-35793506D01*
X48386248Y-35812645D01*
X48417714Y-35824476D01*
X48456384Y-35828677D01*
X48495431Y-35824417D01*
X48526972Y-35812453D01*
X48552677Y-35793140D01*
X48572389Y-35767610D01*
X48584159Y-35738606D01*
X48588214Y-35705029D01*
X48584249Y-35671333D01*
X48572717Y-35641962D01*
X48553410Y-35615881D01*
X48528005Y-35596049D01*
X48496282Y-35583720D01*
X48456384Y-35579305D01*
X48416904Y-35583659D01*
X48385273Y-35595855D01*
X48359725Y-35615514D01*
X48340209Y-35641451D01*
X48328524Y-35670925D01*
X48324493Y-35705029D01*
X47827928Y-35705029D01*
X47749931Y-35536257D01*
X48966974Y-35536257D01*
X48973873Y-35603273D01*
X48993658Y-35660638D01*
X49025350Y-35710981D01*
X49066747Y-35752168D01*
X49116811Y-35784811D01*
X49177084Y-35809199D01*
X49242587Y-35823688D01*
X49314715Y-35828677D01*
X49377533Y-35824318D01*
X49438729Y-35811275D01*
X49496258Y-35789085D01*
X49546257Y-35758274D01*
X49588574Y-35719017D01*
X49621789Y-35670225D01*
X49637172Y-35633683D01*
X49646764Y-35592092D01*
X49650121Y-35544501D01*
X49460222Y-35544501D01*
X49457439Y-35572332D01*
X49449293Y-35597440D01*
X49435974Y-35619884D01*
X49417846Y-35638778D01*
X49396444Y-35654395D01*
X49370769Y-35666439D01*
X49342499Y-35673784D01*
X49310624Y-35676331D01*
X49274913Y-35673655D01*
X49244373Y-35666072D01*
X49217067Y-35653239D01*
X49195158Y-35636031D01*
X49178462Y-35616383D01*
X49166154Y-35592311D01*
X49158780Y-35565340D01*
X49156201Y-35534242D01*
X49159318Y-35495677D01*
X49167864Y-35465244D01*
X49182193Y-35438880D01*
X49201325Y-35418105D01*
X49225650Y-35402236D01*
X49254936Y-35390811D01*
X49287154Y-35384232D01*
X49324973Y-35381896D01*
X49428105Y-35381896D01*
X49428105Y-35234373D01*
X49324973Y-35234373D01*
X49285615Y-35231359D01*
X49254265Y-35223077D01*
X49226921Y-35209206D01*
X49206088Y-35191325D01*
X49191283Y-35171840D01*
X49180503Y-35147972D01*
X49174148Y-35121588D01*
X49171955Y-35092285D01*
X49174163Y-35063754D01*
X49180503Y-35038674D01*
X49191210Y-35015895D01*
X49206088Y-34996603D01*
X49225089Y-34981676D01*
X49249502Y-34969980D01*
X49277050Y-34962928D01*
X49310624Y-34960394D01*
X49338669Y-34962500D01*
X49364235Y-34968637D01*
X49387789Y-34978668D01*
X49407588Y-34991840D01*
X49424725Y-35009106D01*
X49437691Y-35029392D01*
X49445812Y-35052284D01*
X49448621Y-35078607D01*
X49638520Y-35078607D01*
X49632156Y-35019942D01*
X49613607Y-34967965D01*
X49584019Y-34921589D01*
X49544914Y-34881870D01*
X49497992Y-34850611D01*
X49442149Y-34826549D01*
X49381449Y-34811777D01*
X49314715Y-34806704D01*
X49242838Y-34811398D01*
X49179465Y-34824839D01*
X49121583Y-34847707D01*
X49074258Y-34878450D01*
X49035513Y-34918704D01*
X49006297Y-34967599D01*
X48988392Y-35023344D01*
X48982056Y-35090209D01*
X48984445Y-35122020D01*
X48991643Y-35153407D01*
X49003344Y-35183611D01*
X49019608Y-35212513D01*
X49040069Y-35239145D01*
X49065404Y-35264049D01*
X49094415Y-35285777D01*
X49128235Y-35304715D01*
X49088706Y-35322151D01*
X49056184Y-35343000D01*
X49028184Y-35367989D01*
X49005931Y-35395573D01*
X48988737Y-35426898D01*
X48976561Y-35461153D01*
X48969413Y-35497368D01*
X48966974Y-35536257D01*
X47749931Y-35536257D01*
X47490770Y-34975476D01*
X47990125Y-34975476D01*
X47990125Y-34820382D01*
X47291285Y-34820382D01*
X47291285Y-34926261D01*
X47144864Y-34926261D01*
X47176857Y-34820382D01*
X46965099Y-34820382D01*
X46796388Y-35470006D01*
X46779291Y-35536990D01*
X46760851Y-35469335D01*
X46591407Y-34820382D01*
X46379649Y-34820382D01*
X45417149Y-34820382D01*
X45224502Y-34820382D01*
X45224502Y-35659905D01*
X44758609Y-35659905D01*
X44323124Y-35659905D01*
X44323124Y-35230954D01*
X44533539Y-35230954D01*
X44533539Y-35075860D01*
X44131149Y-35075860D01*
X44131149Y-35660638D01*
X43930992Y-35660638D01*
X42855102Y-35660638D01*
X42644687Y-35660638D01*
X42644687Y-35452971D01*
X43079500Y-35452971D01*
X43648525Y-35452971D01*
X43648525Y-35299220D01*
X43079500Y-35299220D01*
X43079500Y-35452971D01*
X42644687Y-35452971D01*
X42644687Y-35230954D01*
X42855102Y-35230954D01*
X42855102Y-35075860D01*
X42452712Y-35075860D01*
X42452712Y-35660638D01*
X42252555Y-35660638D01*
X42043285Y-35660638D01*
X42069190Y-35602936D01*
X42086428Y-35532151D01*
X42092393Y-35452971D01*
X42092393Y-35438621D01*
X42086439Y-35360036D01*
X42069190Y-35289389D01*
X42040190Y-35224732D01*
X42000863Y-35170137D01*
X41951707Y-35125276D01*
X41891869Y-35090881D01*
X41847973Y-35075269D01*
X41798954Y-35065560D01*
X41743980Y-35062182D01*
X41689007Y-35065555D01*
X41639880Y-35075261D01*
X41595786Y-35090881D01*
X41535515Y-35125267D01*
X41485755Y-35170137D01*
X41446969Y-35224686D01*
X41418160Y-35289389D01*
X41400865Y-35360039D01*
X41394896Y-35438621D01*
X41227224Y-35438621D01*
X41227224Y-35075860D01*
X41055032Y-35075860D01*
X41043431Y-35178319D01*
X41012046Y-35140767D01*
X40975837Y-35109993D01*
X40941577Y-35089557D01*
X40904090Y-35074516D01*
X40864282Y-35065316D01*
X40821414Y-35062182D01*
X40766995Y-35066419D01*
X40718954Y-35078607D01*
X40675572Y-35099764D01*
X40638354Y-35130509D01*
X40609171Y-35170673D01*
X40586086Y-35223077D01*
X40572365Y-35282767D01*
X40567279Y-35360036D01*
X40456168Y-35360036D01*
X40456168Y-34886632D01*
X42439034Y-34886632D01*
X42442468Y-34914952D01*
X42452345Y-34938870D01*
X42468771Y-34959417D01*
X42490168Y-34974771D01*
X42516475Y-34984335D01*
X42549066Y-34987749D01*
X42572879Y-34985809D01*
X42593762Y-34980239D01*
X42612634Y-34971081D01*
X42628262Y-34959050D01*
X42640927Y-34944704D01*
X42650488Y-34927299D01*
X42656362Y-34907901D01*
X42658364Y-34886632D01*
X44117471Y-34886632D01*
X44120904Y-34914952D01*
X44130782Y-34938870D01*
X44147208Y-34959417D01*
X44168605Y-34974771D01*
X44194912Y-34984335D01*
X44227503Y-34987749D01*
X44251316Y-34985809D01*
X44272199Y-34980239D01*
X44291070Y-34971081D01*
X44306698Y-34959050D01*
X44319363Y-34944704D01*
X44328925Y-34927299D01*
X44334799Y-34907901D01*
X44336801Y-34886632D01*
X44334797Y-34865372D01*
X44328925Y-34846027D01*
X44319392Y-34828447D01*
X44306698Y-34813543D01*
X44272199Y-34793087D01*
X44251313Y-34787471D01*
X44227503Y-34785516D01*
X44194916Y-34788936D01*
X44168609Y-34798519D01*
X44147208Y-34813909D01*
X44130784Y-34834418D01*
X44120906Y-34858315D01*
X44117471Y-34886632D01*
X42658364Y-34886632D01*
X42656360Y-34865372D01*
X42650488Y-34846027D01*
X42640955Y-34828447D01*
X42628262Y-34813543D01*
X42593762Y-34793087D01*
X42572876Y-34787471D01*
X42549066Y-34785516D01*
X42516479Y-34788936D01*
X42490172Y-34798519D01*
X42468771Y-34813909D01*
X42452347Y-34834418D01*
X42442469Y-34858315D01*
X42439034Y-34886632D01*
X40456168Y-34886632D01*
X40456168Y-34674405D01*
X49761232Y-34674405D01*
X49761232Y-35940460D01*
G37*
G36*
X57955460Y-47881697D02*
G01*
X56709921Y-47881697D01*
X56709921Y-47768510D01*
X56835382Y-47768510D01*
X56991819Y-47768510D01*
X56991819Y-47293030D01*
X57242534Y-47293030D01*
X57242534Y-47701588D01*
X57394148Y-47701588D01*
X57394148Y-47293030D01*
X57674905Y-47293030D01*
X57674905Y-47770586D01*
X57830000Y-47770586D01*
X57830000Y-47100445D01*
X56835382Y-47100445D01*
X56835382Y-47768510D01*
X56709921Y-47768510D01*
X56709921Y-46582955D01*
X56821032Y-46582955D01*
X56827126Y-46662098D01*
X56844296Y-46728768D01*
X56872809Y-46788524D01*
X56910547Y-46837762D01*
X56957833Y-46877702D01*
X57015755Y-46908775D01*
X57080539Y-46929642D01*
X57155767Y-46941565D01*
X57155767Y-46750323D01*
X57112906Y-46745397D01*
X57077915Y-46736950D01*
X57046586Y-46723780D01*
X57021861Y-46706603D01*
X57002817Y-46683858D01*
X56988766Y-46655679D01*
X56980494Y-46623587D01*
X56977470Y-46582955D01*
X56982294Y-46540945D01*
X56996582Y-46505103D01*
X57016198Y-46479524D01*
X57043415Y-46457598D01*
X57075583Y-46440383D01*
X57114063Y-46426518D01*
X57183428Y-46413512D01*
X57265066Y-46409421D01*
X57400315Y-46409421D01*
X57458183Y-46411138D01*
X57506561Y-46415893D01*
X57551594Y-46424521D01*
X57588199Y-46436104D01*
X57630514Y-46458941D01*
X57661289Y-46489349D01*
X57673088Y-46508809D01*
X57681439Y-46530687D01*
X57687911Y-46581612D01*
X57685423Y-46618034D01*
X57678386Y-46649206D01*
X57665943Y-46677245D01*
X57648283Y-46700436D01*
X57625377Y-46719079D01*
X57595710Y-46733897D01*
X57561712Y-46743549D01*
X57518468Y-46748918D01*
X57518468Y-46940893D01*
X57590956Y-46930146D01*
X57653778Y-46908470D01*
X57709749Y-46875880D01*
X57756238Y-46834342D01*
X57793373Y-46783985D01*
X57821451Y-46723639D01*
X57838434Y-46657217D01*
X57844349Y-46581612D01*
X57840217Y-46521605D01*
X57828290Y-46467856D01*
X57808559Y-46417886D01*
X57782189Y-46373944D01*
X57751438Y-46337974D01*
X57714534Y-46305923D01*
X57673121Y-46278687D01*
X57627095Y-46255731D01*
X57577692Y-46238466D01*
X57521948Y-46225323D01*
X57463569Y-46217464D01*
X57400315Y-46214759D01*
X57266409Y-46214759D01*
X57207162Y-46217192D01*
X57152042Y-46224285D01*
X57099084Y-46236419D01*
X57051231Y-46252983D01*
X56997232Y-46278492D01*
X56950176Y-46310380D01*
X56908965Y-46348506D01*
X56875010Y-46390980D01*
X56852161Y-46433007D01*
X56835076Y-46479457D01*
X56824628Y-46528802D01*
X56821032Y-46582955D01*
X56709921Y-46582955D01*
X56709921Y-46103648D01*
X57955460Y-46103648D01*
X57955460Y-47881697D01*
G37*
D13*
%TO.C,J3*%
X42890000Y-36340000D02*
X42890000Y-42060000D01*
X42890000Y-42060000D02*
X45125000Y-42060000D01*
X43960000Y-36340000D02*
X42890000Y-36340000D01*
X43960000Y-36640000D02*
X43960000Y-36340000D01*
X45125000Y-36640000D02*
X43960000Y-36640000D01*
X45125000Y-36640000D02*
X46290000Y-36640000D01*
X46000000Y-36050000D02*
X46500000Y-36050000D01*
X46000000Y-36350000D02*
X46000000Y-36050000D01*
X46290000Y-36340000D02*
X47360000Y-36340000D01*
X46290000Y-36640000D02*
X46290000Y-36340000D01*
X47360000Y-36340000D02*
X47360000Y-42060000D01*
X47360000Y-42060000D02*
X45125000Y-42060000D01*
D14*
%TO.C,G\u002A\u002A\u002A*%
G36*
X47236028Y-48170271D02*
G01*
X47235383Y-48219468D01*
X47226547Y-48307956D01*
X47204559Y-48341501D01*
X47165886Y-48322364D01*
X47106987Y-48252808D01*
X47047703Y-48173402D01*
X47141865Y-48079240D01*
X47236028Y-47985077D01*
X47236028Y-48170271D01*
G37*
G36*
X47236028Y-46986720D02*
G01*
X47236028Y-47188342D01*
X47148037Y-47104041D01*
X47128614Y-47084616D01*
X47079656Y-47026229D01*
X47060047Y-46986720D01*
X47062221Y-46977348D01*
X47092821Y-46929659D01*
X47148037Y-46869399D01*
X47236028Y-46785099D01*
X47236028Y-46986720D01*
G37*
G36*
X43905559Y-48209382D02*
G01*
X44415071Y-48218591D01*
X44527686Y-48307981D01*
X44571335Y-48348330D01*
X44667443Y-48472071D01*
X44766922Y-48644295D01*
X44805731Y-48718745D01*
X44948419Y-48968270D01*
X45098180Y-49186996D01*
X45269652Y-49394854D01*
X45477474Y-49611778D01*
X45578099Y-49711811D01*
X45687463Y-49824120D01*
X45764032Y-49910374D01*
X45813563Y-49978899D01*
X45841814Y-50038022D01*
X45854543Y-50096069D01*
X45857505Y-50161366D01*
X45854793Y-50205638D01*
X45841207Y-50271314D01*
X45813266Y-50351615D01*
X45767740Y-50453635D01*
X45701396Y-50584470D01*
X45611005Y-50751217D01*
X45493331Y-50960970D01*
X45285566Y-51327598D01*
X45295916Y-53168071D01*
X45306265Y-55008545D01*
X44423341Y-55008546D01*
X43540416Y-55008545D01*
X43542837Y-53432043D01*
X43542972Y-53358683D01*
X43544042Y-53041600D01*
X43545837Y-52729266D01*
X43548268Y-52429381D01*
X43551245Y-52149646D01*
X43554677Y-51897765D01*
X43558475Y-51681439D01*
X43562546Y-51508368D01*
X43566803Y-51386258D01*
X43568597Y-51347614D01*
X43577469Y-51177207D01*
X43586856Y-51051571D01*
X43598631Y-50959068D01*
X43614670Y-50888058D01*
X43636847Y-50826904D01*
X43667038Y-50763965D01*
X43698414Y-50693651D01*
X43740557Y-50525472D01*
X43740481Y-50361486D01*
X43697232Y-50218925D01*
X43684295Y-50195406D01*
X43634760Y-50113627D01*
X43566868Y-50007924D01*
X43491349Y-49895173D01*
X43451826Y-49835739D01*
X43332637Y-49636019D01*
X43222605Y-49422541D01*
X43126871Y-49207494D01*
X43050571Y-49003066D01*
X42998847Y-48821447D01*
X42976836Y-48674823D01*
X42977548Y-48595262D01*
X42999219Y-48510615D01*
X43054396Y-48424010D01*
X43114870Y-48352896D01*
X43183190Y-48295757D01*
X43264869Y-48254939D01*
X43368929Y-48228166D01*
X43504385Y-48213165D01*
X43680255Y-48207660D01*
X43905559Y-48209382D01*
G37*
G36*
X47792794Y-42947888D02*
G01*
X48066051Y-42971168D01*
X48299635Y-43007483D01*
X48677476Y-43100355D01*
X49177159Y-43273065D01*
X49649166Y-43496217D01*
X50090766Y-43768470D01*
X50499228Y-44088482D01*
X50501407Y-44090397D01*
X50863841Y-44447852D01*
X51185235Y-44844995D01*
X51462940Y-45277173D01*
X51694309Y-45739737D01*
X51876693Y-46228034D01*
X52007443Y-46737413D01*
X52021617Y-46819876D01*
X52044144Y-47025934D01*
X52057635Y-47267334D01*
X52062211Y-47528847D01*
X52057988Y-47795248D01*
X52045091Y-48051311D01*
X52023639Y-48281808D01*
X51993751Y-48471515D01*
X51921042Y-48778137D01*
X51788575Y-49189880D01*
X51620821Y-49569100D01*
X51413229Y-49927212D01*
X51295424Y-50120169D01*
X51215668Y-50285347D01*
X51173595Y-50431795D01*
X51167285Y-50570932D01*
X51194818Y-50714185D01*
X51254273Y-50872979D01*
X51342264Y-51073457D01*
X51342264Y-53041000D01*
X51342264Y-55008545D01*
X50433026Y-55008546D01*
X49523788Y-55008545D01*
X49523441Y-53314722D01*
X49523412Y-53229813D01*
X49522981Y-52867453D01*
X49521983Y-52558317D01*
X49520315Y-52297925D01*
X49517874Y-52081801D01*
X49514560Y-51905468D01*
X49510270Y-51764447D01*
X49504902Y-51654261D01*
X49498354Y-51570432D01*
X49490526Y-51508484D01*
X49481312Y-51463938D01*
X49465782Y-51417338D01*
X49421872Y-51311663D01*
X49358840Y-51175634D01*
X49282573Y-51021788D01*
X49198961Y-50862667D01*
X49158101Y-50786673D01*
X49055131Y-50585368D01*
X48984370Y-50421317D01*
X48946349Y-50285318D01*
X48941600Y-50168170D01*
X48970656Y-50060672D01*
X49034048Y-49953621D01*
X49132311Y-49837816D01*
X49265974Y-49704056D01*
X49417783Y-49551142D01*
X49693233Y-49226668D01*
X49912122Y-48894044D01*
X50075799Y-48550136D01*
X50185613Y-48191803D01*
X50242912Y-47815914D01*
X50249049Y-47419331D01*
X50241329Y-47300074D01*
X50179313Y-46890141D01*
X50063529Y-46503626D01*
X49894138Y-46140899D01*
X49671309Y-45802332D01*
X49395203Y-45488297D01*
X49195148Y-45305765D01*
X48871937Y-45073473D01*
X48522194Y-44893015D01*
X48144140Y-44763532D01*
X47735998Y-44684160D01*
X47402967Y-44663564D01*
X47023462Y-44692490D01*
X46650204Y-44774596D01*
X46289342Y-44907087D01*
X45947022Y-45087172D01*
X45629394Y-45312056D01*
X45342604Y-45578948D01*
X45092800Y-45885052D01*
X45089331Y-45890076D01*
X45046789Y-45959863D01*
X44987024Y-46067186D01*
X44917483Y-46198350D01*
X44845612Y-46339660D01*
X44793179Y-46444056D01*
X44731719Y-46560172D01*
X44681998Y-46641209D01*
X44636218Y-46697922D01*
X44586578Y-46741066D01*
X44525280Y-46781397D01*
X44380929Y-46869399D01*
X43850684Y-46869399D01*
X43666804Y-46869049D01*
X43524001Y-46867262D01*
X43420344Y-46862972D01*
X43345894Y-46855114D01*
X43290710Y-46842621D01*
X43244856Y-46824427D01*
X43198391Y-46799469D01*
X43125009Y-46752904D01*
X43017116Y-46651781D01*
X42958192Y-46532768D01*
X42941781Y-46385451D01*
X42944930Y-46333784D01*
X42977601Y-46161839D01*
X43042332Y-45957078D01*
X43135184Y-45728624D01*
X43252221Y-45485598D01*
X43389505Y-45237123D01*
X43543099Y-44992317D01*
X43566776Y-44957248D01*
X43883080Y-44544307D01*
X44239602Y-44172995D01*
X44633493Y-43845208D01*
X45061905Y-43562839D01*
X45521991Y-43327785D01*
X46010902Y-43141941D01*
X46525791Y-43007203D01*
X46651268Y-42985186D01*
X46909101Y-42956294D01*
X47196908Y-42940449D01*
X47497276Y-42937648D01*
X47792794Y-42947888D01*
G37*
G36*
X49562147Y-47039688D02*
G01*
X49619609Y-47357608D01*
X49628668Y-47680303D01*
X49587504Y-48001961D01*
X49494298Y-48316776D01*
X49347230Y-48618941D01*
X49206158Y-48826271D01*
X48987854Y-49071993D01*
X48743073Y-49278044D01*
X48737615Y-49281954D01*
X48636187Y-49359444D01*
X48545424Y-49436731D01*
X48484391Y-49497635D01*
X48457551Y-49529778D01*
X48433299Y-49561632D01*
X48412109Y-49596123D01*
X48393774Y-49636987D01*
X48378088Y-49687958D01*
X48364844Y-49752771D01*
X48353835Y-49835161D01*
X48344855Y-49938863D01*
X48337697Y-50067612D01*
X48332155Y-50225144D01*
X48328022Y-50415191D01*
X48325091Y-50641488D01*
X48323156Y-50907773D01*
X48322012Y-51217779D01*
X48321449Y-51575240D01*
X48321264Y-51983893D01*
X48321248Y-52447471D01*
X48321248Y-55008545D01*
X47412010Y-55008545D01*
X46502772Y-55008545D01*
X46502772Y-52432806D01*
X46502714Y-52089528D01*
X46502423Y-51674346D01*
X46501830Y-51311382D01*
X46500876Y-50996935D01*
X46499500Y-50727305D01*
X46497641Y-50498790D01*
X46495239Y-50307689D01*
X46492232Y-50150301D01*
X46488561Y-50022925D01*
X46484165Y-49921860D01*
X46478982Y-49843404D01*
X46472953Y-49783857D01*
X46466017Y-49739518D01*
X46458114Y-49706685D01*
X46407295Y-49585992D01*
X46292656Y-49437088D01*
X46123690Y-49304979D01*
X45960446Y-49183692D01*
X45763867Y-48991181D01*
X45583299Y-48764493D01*
X45429253Y-48517127D01*
X45312240Y-48262586D01*
X45303832Y-48239991D01*
X45274393Y-48155221D01*
X45253919Y-48078746D01*
X45240746Y-47997176D01*
X45233212Y-47897121D01*
X45229650Y-47765189D01*
X45228398Y-47587990D01*
X45228378Y-47581320D01*
X45231465Y-47354150D01*
X45244445Y-47168743D01*
X45270945Y-47008953D01*
X45277446Y-46986562D01*
X46649423Y-46986562D01*
X46649902Y-46990170D01*
X46675261Y-47035147D01*
X46733532Y-47110114D01*
X46816854Y-47205526D01*
X46917365Y-47311841D01*
X47185304Y-47585064D01*
X46917364Y-47862518D01*
X46899700Y-47880923D01*
X46801862Y-47987288D01*
X46722355Y-48081062D01*
X46668952Y-48152671D01*
X46649423Y-48192543D01*
X46656852Y-48211032D01*
X46698801Y-48269444D01*
X46771529Y-48355333D01*
X46867904Y-48460433D01*
X46980793Y-48576482D01*
X47112346Y-48705837D01*
X47215976Y-48801792D01*
X47292600Y-48864080D01*
X47348449Y-48897750D01*
X47389753Y-48907852D01*
X47401960Y-48907629D01*
X47459371Y-48896621D01*
X47501216Y-48863733D01*
X47529779Y-48801637D01*
X47547350Y-48703007D01*
X47556214Y-48560515D01*
X47558661Y-48366834D01*
X47558661Y-47956192D01*
X47757376Y-48153384D01*
X47824021Y-48216900D01*
X47938598Y-48308483D01*
X48028119Y-48351096D01*
X48095645Y-48345845D01*
X48144234Y-48293845D01*
X48162740Y-48251929D01*
X48168412Y-48202096D01*
X48150287Y-48146898D01*
X48103575Y-48077691D01*
X48023484Y-47985832D01*
X47905221Y-47862677D01*
X47635845Y-47587990D01*
X47905222Y-47313304D01*
X47981296Y-47234112D01*
X48088667Y-47111946D01*
X48153621Y-47018167D01*
X48178545Y-46947637D01*
X48165831Y-46895217D01*
X48117864Y-46855766D01*
X48065763Y-46834009D01*
X48010501Y-46832344D01*
X47948462Y-46859621D01*
X47868912Y-46920804D01*
X47761121Y-47020862D01*
X47558661Y-47216321D01*
X47558662Y-46800885D01*
X47558209Y-46659966D01*
X47555740Y-46534376D01*
X47549962Y-46448591D01*
X47539598Y-46392283D01*
X47523370Y-46355125D01*
X47500000Y-46326790D01*
X47489876Y-46316852D01*
X47435171Y-46276831D01*
X47379922Y-46275070D01*
X47300565Y-46309532D01*
X47268664Y-46330423D01*
X47196052Y-46390388D01*
X47104310Y-46475121D01*
X47002318Y-46575387D01*
X46898956Y-46681954D01*
X46803106Y-46785590D01*
X46723647Y-46877057D01*
X46669459Y-46947126D01*
X46649423Y-46986562D01*
X45277446Y-46986562D01*
X45314590Y-46858628D01*
X45379009Y-46701623D01*
X45467825Y-46521791D01*
X45516013Y-46438289D01*
X45648550Y-46255494D01*
X45814325Y-46069649D01*
X45999473Y-45894412D01*
X46190133Y-45743442D01*
X46372445Y-45630398D01*
X46593807Y-45527279D01*
X46851378Y-45441127D01*
X47116773Y-45393090D01*
X47412010Y-45377816D01*
X47603441Y-45383308D01*
X47880830Y-45418763D01*
X48140589Y-45491142D01*
X48403137Y-45605125D01*
X48612456Y-45724936D01*
X48884647Y-45931880D01*
X49117531Y-46172635D01*
X49309288Y-46441393D01*
X49458100Y-46732347D01*
X49530984Y-46947637D01*
X49562147Y-47039688D01*
G37*
%TD*%
M02*
