%TF.GenerationSoftware,KiCad,Pcbnew,10.0.0*%
%TF.CreationDate,2026-07-15T14:57:46-04:00*%
%TF.ProjectId,lmp91000-pcb,6c6d7039-3130-4303-902d-7063622e6b69,v1.0*%
%TF.SameCoordinates,Original*%
%TF.FileFunction,Copper,L2,Inr*%
%TF.FilePolarity,Positive*%
%FSLAX46Y46*%
G04 Gerber Fmt 4.6, Leading zero omitted, Abs format (unit mm)*
G04 Created by KiCad (PCBNEW 10.0.0) date 2026-07-15 14:57:46*
%MOMM*%
%LPD*%
G01*
G04 APERTURE LIST*
G04 Aperture macros list*
%AMRoundRect*
0 Rectangle with rounded corners*
0 $1 Rounding radius*
0 $2 $3 $4 $5 $6 $7 $8 $9 X,Y pos of 4 corners*
0 Add a 4 corners polygon primitive as box body*
4,1,4,$2,$3,$4,$5,$6,$7,$8,$9,$2,$3,0*
0 Add four circle primitives for the rounded corners*
1,1,$1+$1,$2,$3*
1,1,$1+$1,$4,$5*
1,1,$1+$1,$6,$7*
1,1,$1+$1,$8,$9*
0 Add four rect primitives between the rounded corners*
20,1,$1+$1,$2,$3,$4,$5,0*
20,1,$1+$1,$4,$5,$6,$7,0*
20,1,$1+$1,$6,$7,$8,$9,0*
20,1,$1+$1,$8,$9,$2,$3,0*%
G04 Aperture macros list end*
%TA.AperFunction,ComponentPad*%
%ADD10O,1.700000X1.100000*%
%TD*%
%TA.AperFunction,ComponentPad*%
%ADD11R,1.650000X1.650000*%
%TD*%
%TA.AperFunction,ComponentPad*%
%ADD12C,1.650000*%
%TD*%
%TA.AperFunction,ComponentPad*%
%ADD13C,1.200000*%
%TD*%
%TA.AperFunction,ComponentPad*%
%ADD14RoundRect,0.200000X0.200000X0.450000X-0.200000X0.450000X-0.200000X-0.450000X0.200000X-0.450000X0*%
%TD*%
%TA.AperFunction,ComponentPad*%
%ADD15O,0.800000X1.300000*%
%TD*%
%TA.AperFunction,ViaPad*%
%ADD16C,0.600000*%
%TD*%
%TA.AperFunction,Conductor*%
%ADD17C,1.000000*%
%TD*%
G04 APERTURE END LIST*
D10*
%TO.N,GND*%
%TO.C,J2*%
X90300000Y-56180000D03*
X86500000Y-56180000D03*
X90300000Y-64820000D03*
X86500000Y-64820000D03*
%TD*%
D11*
%TO.N,/LMP/RE*%
%TO.C,J4*%
X111500000Y-57000000D03*
D12*
%TO.N,/LMP/WE*%
X111500000Y-60500000D03*
%TO.N,/LMP/CE*%
X111500000Y-64000000D03*
%TD*%
D13*
%TO.N,/LMP/CE*%
%TO.C,J5*%
X111501000Y-71000000D03*
%TO.N,/LMP/WE*%
X109501000Y-70000000D03*
%TO.N,/LMP/RE*%
X111501000Y-68999999D03*
%TD*%
D14*
%TO.N,+BATT*%
%TO.C,J3*%
X98250000Y-55000000D03*
D15*
%TO.N,GND*%
X97000000Y-55000000D03*
%TD*%
D16*
%TO.N,/LMP/CE*%
X106965000Y-68835000D03*
%TO.N,/LMP/WE*%
X105140000Y-71130000D03*
%TO.N,/LMP/RE*%
X105810000Y-70760000D03*
%TO.N,/BATT_MEAS*%
X100180000Y-63020000D03*
X93720000Y-63160000D03*
%TO.N,GND*%
X93480000Y-59820000D03*
X93480000Y-60820000D03*
%TO.N,+3V3*%
X102450000Y-56150000D03*
X103300000Y-55550001D03*
X105500000Y-63900000D03*
X97000000Y-62700000D03*
X93300000Y-71600000D03*
X104700000Y-79000000D03*
X102500000Y-65100000D03*
X103500000Y-65450000D03*
X96900000Y-69500000D03*
X87043600Y-73443600D03*
X104700000Y-55550000D03*
X89480000Y-73200000D03*
X98400000Y-62700000D03*
%TO.N,GND*%
X102600000Y-66075000D03*
X93300000Y-69100000D03*
X91900000Y-55000000D03*
X107300000Y-52750000D03*
X96800000Y-64400000D03*
X96200000Y-57500000D03*
X101400000Y-73700000D03*
X100000000Y-73000000D03*
X94100000Y-57500000D03*
X93500000Y-75000000D03*
X107200000Y-79000000D03*
X89500000Y-63250000D03*
X103900000Y-52000000D03*
X91500000Y-79000000D03*
X94095546Y-72398101D03*
X95500000Y-79000000D03*
X95200000Y-67600000D03*
X93500000Y-73600000D03*
X103900000Y-54000000D03*
X114000000Y-57000000D03*
X104000000Y-57100000D03*
X98800000Y-60500000D03*
X99500000Y-71500000D03*
X96740687Y-70711169D03*
X99200000Y-56500000D03*
X100500000Y-75000000D03*
X90200000Y-76000000D03*
X92000000Y-52000000D03*
X98800000Y-57500000D03*
X102000000Y-77000000D03*
X95400000Y-72800000D03*
X91500000Y-77000000D03*
X108500000Y-57000000D03*
X98000000Y-73000000D03*
X106000000Y-62000000D03*
X91500000Y-75000000D03*
X113600000Y-71400000D03*
X113500000Y-74500000D03*
X108500000Y-60500000D03*
X103100000Y-62000000D03*
X100850000Y-72000000D03*
X93500000Y-77000000D03*
X103900000Y-53000000D03*
X102000000Y-79000000D03*
X98400000Y-66000000D03*
X100000000Y-60500000D03*
X101500000Y-59000000D03*
X97600000Y-60500000D03*
X91500000Y-73000000D03*
X95500000Y-77000000D03*
X95200000Y-66000000D03*
X104500000Y-59000000D03*
X102000000Y-75000000D03*
X106425000Y-66075000D03*
X96830000Y-71940000D03*
X90350000Y-69800000D03*
X97600000Y-57500000D03*
X89500000Y-57750000D03*
X95200000Y-64400000D03*
X94800000Y-71300000D03*
X100500000Y-79000000D03*
X98400000Y-67600000D03*
X100500000Y-77000000D03*
X88250000Y-73550000D03*
X109800000Y-71600000D03*
X95500000Y-70300000D03*
X93500000Y-79000000D03*
X98400000Y-64400000D03*
X109600000Y-74900000D03*
X103500000Y-79000000D03*
X96800000Y-66000000D03*
X100000000Y-54200000D03*
X95500000Y-75000000D03*
X98000000Y-71000000D03*
X96800000Y-67600000D03*
X102800000Y-67800000D03*
%TO.N,/IMU_INT1*%
X86250000Y-72750000D03*
X92000000Y-65200000D03*
%TO.N,/PWR_BTN*%
X92000000Y-64400000D03*
X106900000Y-51100000D03*
%TO.N,/BATT_MEAS*%
X94100000Y-55000000D03*
X92000000Y-63000000D03*
%TO.N,Net-(U5-C2)*%
X102926154Y-70800000D03*
X105241405Y-73882167D03*
%TO.N,/SWDIO*%
X101250000Y-67750000D03*
X102750000Y-73000000D03*
%TO.N,/RESETn*%
X106000000Y-79000000D03*
X94800000Y-69100000D03*
%TO.N,/SWCLK*%
X102000000Y-68500000D03*
X106000000Y-76100000D03*
%TO.N,/SWV{slash}SWO*%
X102000000Y-67000000D03*
X107270000Y-76100000D03*
%TO.N,/LDO_EN*%
X96700000Y-52400000D03*
X92600000Y-63700000D03*
%TO.N,/C1*%
X103805019Y-70805019D03*
X107041405Y-73882167D03*
%TD*%
%TO.N,/LMP/RE*%
D17*
X113500000Y-59000000D02*
X111500000Y-57000000D01*
X111501000Y-68999999D02*
X113500000Y-67000999D01*
X113500000Y-67000999D02*
X113500000Y-59000000D01*
%TO.N,/LMP/WE*%
X109501000Y-62499000D02*
X111500000Y-60500000D01*
X109501000Y-70000000D02*
X109501000Y-62499000D01*
%TD*%
%TA.AperFunction,Conductor*%
%TO.N,GND*%
G36*
X106582803Y-50505345D02*
G01*
X106590642Y-50507892D01*
X106640142Y-50543856D01*
X106659050Y-50602046D01*
X106640146Y-50660233D01*
X106637671Y-50663640D01*
X106607104Y-50691174D01*
X106605647Y-50692015D01*
X106604322Y-50692781D01*
X106592689Y-50699497D01*
X106499492Y-50792694D01*
X106433610Y-50906805D01*
X106433608Y-50906809D01*
X106414538Y-50977975D01*
X106414539Y-50977976D01*
X106399500Y-51034106D01*
X106399500Y-51165891D01*
X106421618Y-51248442D01*
X106433608Y-51293189D01*
X106433610Y-51293193D01*
X106499494Y-51407307D01*
X106499496Y-51407309D01*
X106499498Y-51407311D01*
X106499500Y-51407314D01*
X106592686Y-51500500D01*
X106592688Y-51500501D01*
X106592690Y-51500503D01*
X106593237Y-51500898D01*
X106595239Y-51501975D01*
X106639207Y-51527359D01*
X106650040Y-51533614D01*
X106671634Y-51557596D01*
X106705944Y-51566174D01*
X106707548Y-51566588D01*
X106834108Y-51600500D01*
X106834110Y-51600500D01*
X106965890Y-51600500D01*
X106965892Y-51600500D01*
X107093186Y-51566392D01*
X107093188Y-51566390D01*
X107093190Y-51566390D01*
X107201190Y-51504035D01*
X107204067Y-51502639D01*
X107204853Y-51502122D01*
X107209862Y-51499028D01*
X107211161Y-51498277D01*
X107216519Y-51491294D01*
X107300500Y-51407314D01*
X107366392Y-51293186D01*
X107400500Y-51165892D01*
X107400500Y-51034108D01*
X107366392Y-50906814D01*
X107366390Y-50906811D01*
X107366390Y-50906809D01*
X107366383Y-50906798D01*
X107366066Y-50906094D01*
X107364812Y-50904076D01*
X107300503Y-50792690D01*
X107300501Y-50792688D01*
X107300500Y-50792686D01*
X107207314Y-50699500D01*
X107196186Y-50693075D01*
X107180176Y-50675294D01*
X107166597Y-50667453D01*
X107160221Y-50653130D01*
X107155247Y-50647606D01*
X107148855Y-50627942D01*
X107148714Y-50627282D01*
X107141714Y-50611556D01*
X107154438Y-50551709D01*
X107199908Y-50510771D01*
X107203759Y-50509056D01*
X107244020Y-50500500D01*
X109885320Y-50500500D01*
X109915908Y-50505343D01*
X109928595Y-50509466D01*
X109978095Y-50545427D01*
X109978096Y-50545428D01*
X109981091Y-50549550D01*
X110000000Y-50607740D01*
X110000000Y-53750000D01*
X111250000Y-55000000D01*
X114384820Y-55000000D01*
X114415408Y-55004843D01*
X114428095Y-55008966D01*
X114477595Y-55044927D01*
X114477596Y-55044928D01*
X114480591Y-55049050D01*
X114499500Y-55107240D01*
X114499500Y-74885319D01*
X114494654Y-74915912D01*
X114490532Y-74928598D01*
X114454580Y-74978089D01*
X114450459Y-74981084D01*
X114392271Y-75000000D01*
X111250000Y-75000000D01*
X110000000Y-76250000D01*
X110000000Y-76250001D01*
X110000000Y-79384819D01*
X109995154Y-79415412D01*
X109991032Y-79428098D01*
X109955080Y-79477589D01*
X109950959Y-79480584D01*
X109892771Y-79499500D01*
X106463001Y-79499500D01*
X106432409Y-79494655D01*
X106432406Y-79494654D01*
X106422005Y-79491274D01*
X106372506Y-79455312D01*
X106353598Y-79397121D01*
X106368183Y-79345399D01*
X106371196Y-79340482D01*
X106385597Y-79322215D01*
X106400500Y-79307314D01*
X106426778Y-79261799D01*
X106466390Y-79193190D01*
X106466390Y-79193188D01*
X106466392Y-79193186D01*
X106500500Y-79065892D01*
X106500500Y-78934108D01*
X106466392Y-78806814D01*
X106466390Y-78806811D01*
X106466390Y-78806809D01*
X106466383Y-78806798D01*
X106466066Y-78806094D01*
X106464812Y-78804076D01*
X106400503Y-78692690D01*
X106400501Y-78692688D01*
X106400500Y-78692686D01*
X106307314Y-78599500D01*
X106307311Y-78599498D01*
X106307309Y-78599496D01*
X106307308Y-78599495D01*
X106193197Y-78533612D01*
X106193188Y-78533608D01*
X106193177Y-78533605D01*
X106192056Y-78533305D01*
X106192055Y-78533305D01*
X106065892Y-78499500D01*
X106065890Y-78499500D01*
X105934109Y-78499500D01*
X105934108Y-78499500D01*
X105895154Y-78509937D01*
X105856199Y-78520375D01*
X105856198Y-78520374D01*
X105806807Y-78533609D01*
X105806805Y-78533610D01*
X105692694Y-78599492D01*
X105599492Y-78692694D01*
X105533610Y-78806805D01*
X105533608Y-78806809D01*
X105521901Y-78850498D01*
X105521902Y-78850499D01*
X105499500Y-78934108D01*
X105499500Y-79065894D01*
X105504970Y-79086310D01*
X105504971Y-79086310D01*
X105533610Y-79193194D01*
X105599494Y-79307307D01*
X105599496Y-79307309D01*
X105599498Y-79307311D01*
X105599500Y-79307314D01*
X105611599Y-79319413D01*
X105629804Y-79344472D01*
X105634053Y-79352812D01*
X105634769Y-79354217D01*
X105644336Y-79414649D01*
X105616555Y-79469164D01*
X105569679Y-79495418D01*
X105564084Y-79496762D01*
X105540961Y-79499500D01*
X105163001Y-79499500D01*
X105132409Y-79494655D01*
X105132406Y-79494654D01*
X105122005Y-79491274D01*
X105072506Y-79455312D01*
X105053598Y-79397121D01*
X105068183Y-79345399D01*
X105071196Y-79340482D01*
X105085597Y-79322215D01*
X105100500Y-79307314D01*
X105126778Y-79261799D01*
X105166390Y-79193190D01*
X105166390Y-79193188D01*
X105166392Y-79193186D01*
X105200500Y-79065892D01*
X105200500Y-78934108D01*
X105166392Y-78806814D01*
X105166390Y-78806811D01*
X105166390Y-78806809D01*
X105166383Y-78806798D01*
X105166066Y-78806094D01*
X105164812Y-78804076D01*
X105100503Y-78692690D01*
X105100501Y-78692688D01*
X105100500Y-78692686D01*
X105007314Y-78599500D01*
X105007311Y-78599498D01*
X105007309Y-78599496D01*
X104989921Y-78589457D01*
X104950476Y-78566683D01*
X104929442Y-78543322D01*
X104843799Y-78520375D01*
X104843798Y-78520374D01*
X104786766Y-78505093D01*
X104765892Y-78499500D01*
X104765891Y-78499500D01*
X104634109Y-78499500D01*
X104634108Y-78499500D01*
X104595154Y-78509937D01*
X104556199Y-78520375D01*
X104556198Y-78520374D01*
X104506807Y-78533609D01*
X104506805Y-78533610D01*
X104392694Y-78599492D01*
X104299492Y-78692694D01*
X104233610Y-78806805D01*
X104233608Y-78806809D01*
X104221901Y-78850498D01*
X104221902Y-78850499D01*
X104199500Y-78934108D01*
X104199500Y-79065894D01*
X104204970Y-79086310D01*
X104204971Y-79086310D01*
X104233610Y-79193194D01*
X104299494Y-79307307D01*
X104299496Y-79307309D01*
X104299498Y-79307311D01*
X104299500Y-79307314D01*
X104311599Y-79319413D01*
X104329804Y-79344472D01*
X104334053Y-79352812D01*
X104334769Y-79354217D01*
X104344336Y-79414649D01*
X104316555Y-79469164D01*
X104269679Y-79495418D01*
X104264084Y-79496762D01*
X104240961Y-79499500D01*
X100114680Y-79499500D01*
X100084087Y-79494654D01*
X100071401Y-79490532D01*
X100021901Y-79454568D01*
X100021894Y-79454558D01*
X100018900Y-79450436D01*
X100000000Y-79392256D01*
X100000000Y-78442542D01*
X107794200Y-78442542D01*
X107794200Y-78589457D01*
X107794829Y-78592619D01*
X107794829Y-78592621D01*
X107814733Y-78692686D01*
X107822860Y-78733541D01*
X107822860Y-78733543D01*
X107877648Y-78865815D01*
X107878035Y-78866810D01*
X107878051Y-78867106D01*
X107878533Y-78868452D01*
X107908858Y-78913836D01*
X107908875Y-78913860D01*
X107960699Y-78991420D01*
X108064580Y-79095301D01*
X108186731Y-79176920D01*
X108322458Y-79233140D01*
X108466545Y-79261800D01*
X108466547Y-79261800D01*
X108613453Y-79261800D01*
X108613455Y-79261800D01*
X108757542Y-79233140D01*
X108893269Y-79176920D01*
X109015420Y-79095301D01*
X109119301Y-78991420D01*
X109200920Y-78869269D01*
X109257140Y-78733542D01*
X109285800Y-78589455D01*
X109285800Y-78442545D01*
X109257140Y-78298458D01*
X109200921Y-78162733D01*
X109200921Y-78162732D01*
X109180585Y-78132298D01*
X109119301Y-78040580D01*
X109015420Y-77936699D01*
X108894726Y-77856053D01*
X108893459Y-77855174D01*
X108893267Y-77855078D01*
X108757542Y-77798860D01*
X108613459Y-77770200D01*
X108613457Y-77770200D01*
X108613455Y-77770200D01*
X108466545Y-77770200D01*
X108466542Y-77770200D01*
X108466539Y-77770200D01*
X108340492Y-77795272D01*
X108340487Y-77795273D01*
X108322458Y-77798860D01*
X108322456Y-77798860D01*
X108190228Y-77853630D01*
X108189186Y-77854035D01*
X108188890Y-77854051D01*
X108187549Y-77854531D01*
X108064580Y-77936698D01*
X107960698Y-78040580D01*
X107878531Y-78163549D01*
X107877214Y-78167231D01*
X107823505Y-78296896D01*
X107823504Y-78296899D01*
X107822860Y-78298456D01*
X107822860Y-78298458D01*
X107794200Y-78442542D01*
X100000000Y-78442542D01*
X100000000Y-77426539D01*
X102714200Y-77426539D01*
X102714200Y-77426542D01*
X102714200Y-77573457D01*
X102742860Y-77717541D01*
X102742860Y-77717543D01*
X102797648Y-77849815D01*
X102798035Y-77850810D01*
X102798051Y-77851106D01*
X102798532Y-77852450D01*
X102799078Y-77853267D01*
X102839749Y-77914134D01*
X102880699Y-77975420D01*
X102984580Y-78079301D01*
X103063895Y-78132298D01*
X103107546Y-78161465D01*
X103111218Y-78162778D01*
X103242458Y-78217140D01*
X103386545Y-78245800D01*
X103386547Y-78245800D01*
X103533453Y-78245800D01*
X103533455Y-78245800D01*
X103677542Y-78217140D01*
X103813269Y-78160920D01*
X103935420Y-78079301D01*
X104039301Y-77975420D01*
X104120920Y-77853269D01*
X104177140Y-77717542D01*
X104205800Y-77573455D01*
X104205800Y-77426545D01*
X104177140Y-77282458D01*
X104120921Y-77146733D01*
X104120921Y-77146732D01*
X104100585Y-77116298D01*
X104039301Y-77024580D01*
X103935420Y-76920699D01*
X103814726Y-76840053D01*
X103813459Y-76839174D01*
X103813267Y-76839078D01*
X103677542Y-76782860D01*
X103533459Y-76754200D01*
X103533457Y-76754200D01*
X103533455Y-76754200D01*
X103386545Y-76754200D01*
X103386542Y-76754200D01*
X103386539Y-76754200D01*
X103260492Y-76779272D01*
X103260487Y-76779273D01*
X103242458Y-76782860D01*
X103242456Y-76782860D01*
X103110228Y-76837630D01*
X103109186Y-76838035D01*
X103108890Y-76838051D01*
X103107549Y-76838531D01*
X102984580Y-76920698D01*
X102880698Y-77024580D01*
X102798608Y-77147433D01*
X102797655Y-77150150D01*
X102797432Y-77150705D01*
X102742860Y-77282456D01*
X102742860Y-77282458D01*
X102741073Y-77291439D01*
X102741072Y-77291443D01*
X102714200Y-77426539D01*
X100000000Y-77426539D01*
X100000000Y-76034108D01*
X105499500Y-76034108D01*
X105499500Y-76165892D01*
X105522037Y-76250001D01*
X105533609Y-76293190D01*
X105599496Y-76407309D01*
X105599498Y-76407311D01*
X105599500Y-76407314D01*
X105692686Y-76500500D01*
X105692688Y-76500501D01*
X105692690Y-76500503D01*
X105693237Y-76500898D01*
X105695239Y-76501975D01*
X105701553Y-76505620D01*
X105750040Y-76533614D01*
X105771634Y-76557596D01*
X105805944Y-76566174D01*
X105807548Y-76566588D01*
X105934108Y-76600500D01*
X105934110Y-76600500D01*
X106065890Y-76600500D01*
X106065892Y-76600500D01*
X106193186Y-76566392D01*
X106193188Y-76566390D01*
X106193190Y-76566390D01*
X106301190Y-76504035D01*
X106304067Y-76502639D01*
X106304853Y-76502122D01*
X106309862Y-76499028D01*
X106311161Y-76498277D01*
X106316519Y-76491294D01*
X106400500Y-76407314D01*
X106466392Y-76293186D01*
X106500500Y-76165892D01*
X106500500Y-76034108D01*
X106482292Y-75966155D01*
X106754438Y-75966155D01*
X106771072Y-76009833D01*
X106770347Y-76027676D01*
X106769500Y-76034107D01*
X106769500Y-76034108D01*
X106769500Y-76165892D01*
X106792037Y-76250001D01*
X106803609Y-76293190D01*
X106869496Y-76407309D01*
X106869498Y-76407311D01*
X106869500Y-76407314D01*
X106962686Y-76500500D01*
X106962688Y-76500501D01*
X106962690Y-76500503D01*
X106963237Y-76500898D01*
X106965239Y-76501975D01*
X106971553Y-76505620D01*
X107020040Y-76533614D01*
X107041634Y-76557596D01*
X107075944Y-76566174D01*
X107077548Y-76566588D01*
X107204108Y-76600500D01*
X107204110Y-76600500D01*
X107335890Y-76600500D01*
X107335892Y-76600500D01*
X107463186Y-76566392D01*
X107463188Y-76566390D01*
X107463190Y-76566390D01*
X107571190Y-76504035D01*
X107574066Y-76502640D01*
X107574848Y-76502125D01*
X107579861Y-76499029D01*
X107581159Y-76498279D01*
X107586518Y-76491295D01*
X107614111Y-76463701D01*
X107639169Y-76445496D01*
X107648917Y-76440529D01*
X107709350Y-76430963D01*
X107763864Y-76458744D01*
X107790118Y-76505620D01*
X107791462Y-76511215D01*
X107794200Y-76534338D01*
X107794200Y-76557459D01*
X107820958Y-76691979D01*
X107820958Y-76691982D01*
X107822859Y-76701542D01*
X107844671Y-76754200D01*
X107879078Y-76837266D01*
X107879078Y-76837267D01*
X107919749Y-76898134D01*
X107960699Y-76959420D01*
X108064580Y-77063301D01*
X108143895Y-77116298D01*
X108187546Y-77145465D01*
X108191218Y-77146778D01*
X108322458Y-77201140D01*
X108466545Y-77229800D01*
X108466547Y-77229800D01*
X108613453Y-77229800D01*
X108613455Y-77229800D01*
X108757542Y-77201140D01*
X108893269Y-77144920D01*
X109015420Y-77063301D01*
X109119301Y-76959420D01*
X109200920Y-76837269D01*
X109257140Y-76701542D01*
X109285800Y-76557455D01*
X109285800Y-76410545D01*
X109257140Y-76266458D01*
X109215483Y-76165890D01*
X109215482Y-76165887D01*
X109202781Y-76135221D01*
X109201466Y-76131547D01*
X109180587Y-76100300D01*
X109180584Y-76100297D01*
X109165465Y-76077670D01*
X109119301Y-76008580D01*
X109015420Y-75904699D01*
X108894726Y-75824053D01*
X108893459Y-75823174D01*
X108893267Y-75823078D01*
X108757542Y-75766860D01*
X108613459Y-75738200D01*
X108613457Y-75738200D01*
X108613455Y-75738200D01*
X108466545Y-75738200D01*
X108466542Y-75738200D01*
X108466539Y-75738200D01*
X108340492Y-75763272D01*
X108340487Y-75763273D01*
X108322458Y-75766860D01*
X108322456Y-75766860D01*
X108190228Y-75821630D01*
X108189186Y-75822035D01*
X108188890Y-75822051D01*
X108187549Y-75822531D01*
X108064580Y-75904698D01*
X108064576Y-75904701D01*
X108064576Y-75904702D01*
X107960702Y-76008576D01*
X107960700Y-76008579D01*
X107950158Y-76024356D01*
X107929134Y-76047097D01*
X107920187Y-76054150D01*
X107862783Y-76075327D01*
X107803896Y-76058718D01*
X107803137Y-76058211D01*
X107769651Y-76020268D01*
X107768022Y-76017018D01*
X107760900Y-75998280D01*
X107736393Y-75906818D01*
X107736392Y-75906814D01*
X107735171Y-75904699D01*
X107670503Y-75792690D01*
X107670501Y-75792688D01*
X107670500Y-75792686D01*
X107577314Y-75699500D01*
X107577311Y-75699498D01*
X107577309Y-75699496D01*
X107577302Y-75699492D01*
X107520476Y-75666683D01*
X107499442Y-75643322D01*
X107413799Y-75620375D01*
X107413798Y-75620374D01*
X107356766Y-75605093D01*
X107335892Y-75599500D01*
X107335891Y-75599500D01*
X107204109Y-75599500D01*
X107204108Y-75599500D01*
X107165154Y-75609937D01*
X107126199Y-75620375D01*
X107126198Y-75620374D01*
X107076807Y-75633609D01*
X107076805Y-75633610D01*
X106962694Y-75699492D01*
X106869492Y-75792694D01*
X106803609Y-75906808D01*
X106800753Y-75914383D01*
X106798666Y-75913596D01*
X106774282Y-75957032D01*
X106754438Y-75966155D01*
X106482292Y-75966155D01*
X106466392Y-75906814D01*
X106466391Y-75906813D01*
X106466391Y-75906811D01*
X106465173Y-75904702D01*
X106418613Y-75824057D01*
X106401976Y-75795240D01*
X106400900Y-75793241D01*
X106400503Y-75792690D01*
X106400501Y-75792688D01*
X106400500Y-75792686D01*
X106307314Y-75699500D01*
X106307311Y-75699498D01*
X106307309Y-75699496D01*
X106307302Y-75699492D01*
X106250476Y-75666683D01*
X106229442Y-75643322D01*
X106143799Y-75620375D01*
X106143798Y-75620374D01*
X106086766Y-75605093D01*
X106065892Y-75599500D01*
X106065891Y-75599500D01*
X105934109Y-75599500D01*
X105934108Y-75599500D01*
X105895154Y-75609937D01*
X105856199Y-75620375D01*
X105856198Y-75620374D01*
X105806807Y-75633609D01*
X105806805Y-75633610D01*
X105692694Y-75699492D01*
X105599492Y-75792694D01*
X105534221Y-75905747D01*
X105534220Y-75905749D01*
X105533609Y-75906809D01*
X105533608Y-75906814D01*
X105499500Y-76034108D01*
X100000000Y-76034108D01*
X100000000Y-73816275D01*
X104740905Y-73816275D01*
X104740905Y-73948059D01*
X104770984Y-74060318D01*
X104775014Y-74075357D01*
X104840901Y-74189476D01*
X104840903Y-74189478D01*
X104840905Y-74189481D01*
X104934091Y-74282667D01*
X104934093Y-74282668D01*
X104934095Y-74282670D01*
X104934642Y-74283065D01*
X104936644Y-74284142D01*
X104980612Y-74309526D01*
X104991445Y-74315781D01*
X105013039Y-74339763D01*
X105047349Y-74348341D01*
X105048953Y-74348755D01*
X105175513Y-74382667D01*
X105175515Y-74382667D01*
X105307295Y-74382667D01*
X105307297Y-74382667D01*
X105434591Y-74348559D01*
X105434593Y-74348557D01*
X105434595Y-74348557D01*
X105542595Y-74286202D01*
X105545472Y-74284806D01*
X105546258Y-74284289D01*
X105551267Y-74281195D01*
X105552566Y-74280444D01*
X105557924Y-74273461D01*
X105641905Y-74189481D01*
X105707797Y-74075353D01*
X105741905Y-73948059D01*
X105741905Y-73816275D01*
X106540905Y-73816275D01*
X106540905Y-73948059D01*
X106570984Y-74060318D01*
X106575014Y-74075357D01*
X106640901Y-74189476D01*
X106640903Y-74189478D01*
X106640905Y-74189481D01*
X106734091Y-74282667D01*
X106734093Y-74282668D01*
X106734095Y-74282670D01*
X106734642Y-74283065D01*
X106736644Y-74284142D01*
X106780612Y-74309526D01*
X106791445Y-74315781D01*
X106813039Y-74339763D01*
X106847349Y-74348341D01*
X106848953Y-74348755D01*
X106975513Y-74382667D01*
X106975515Y-74382667D01*
X107107295Y-74382667D01*
X107107297Y-74382667D01*
X107234591Y-74348559D01*
X107234593Y-74348557D01*
X107234595Y-74348557D01*
X107342595Y-74286202D01*
X107345472Y-74284806D01*
X107346258Y-74284289D01*
X107351267Y-74281195D01*
X107352566Y-74280444D01*
X107357924Y-74273461D01*
X107441905Y-74189481D01*
X107507797Y-74075353D01*
X107541905Y-73948059D01*
X107541905Y-73816275D01*
X107507797Y-73688981D01*
X107507795Y-73688978D01*
X107507795Y-73688976D01*
X107507788Y-73688965D01*
X107507471Y-73688261D01*
X107506217Y-73686243D01*
X107441908Y-73574857D01*
X107441906Y-73574855D01*
X107441905Y-73574853D01*
X107348719Y-73481667D01*
X107348716Y-73481665D01*
X107348714Y-73481663D01*
X107348707Y-73481659D01*
X107291881Y-73448850D01*
X107270847Y-73425489D01*
X107185204Y-73402542D01*
X107185203Y-73402541D01*
X107128171Y-73387260D01*
X107107297Y-73381667D01*
X107107296Y-73381667D01*
X106975514Y-73381667D01*
X106975513Y-73381667D01*
X106939599Y-73391290D01*
X106897604Y-73402542D01*
X106897603Y-73402541D01*
X106848212Y-73415776D01*
X106848210Y-73415777D01*
X106734099Y-73481659D01*
X106640900Y-73574858D01*
X106575012Y-73688979D01*
X106558420Y-73750908D01*
X106558420Y-73750909D01*
X106540905Y-73816275D01*
X105741905Y-73816275D01*
X105707797Y-73688981D01*
X105707795Y-73688978D01*
X105707795Y-73688976D01*
X105707622Y-73688676D01*
X105707547Y-73688384D01*
X105706217Y-73686243D01*
X105641908Y-73574857D01*
X105641906Y-73574855D01*
X105641905Y-73574853D01*
X105548719Y-73481667D01*
X105548716Y-73481665D01*
X105548714Y-73481663D01*
X105548707Y-73481659D01*
X105491881Y-73448850D01*
X105470847Y-73425489D01*
X105385204Y-73402542D01*
X105385203Y-73402541D01*
X105328171Y-73387260D01*
X105307297Y-73381667D01*
X105307296Y-73381667D01*
X105175514Y-73381667D01*
X105175513Y-73381667D01*
X105139599Y-73391290D01*
X105097604Y-73402542D01*
X105097603Y-73402541D01*
X105048212Y-73415776D01*
X105048210Y-73415777D01*
X104934099Y-73481659D01*
X104840900Y-73574858D01*
X104775012Y-73688979D01*
X104760615Y-73742713D01*
X104760614Y-73742718D01*
X104758420Y-73750909D01*
X104740905Y-73816275D01*
X100000000Y-73816275D01*
X100000000Y-73500001D01*
X100000000Y-73500000D01*
X99999999Y-73500000D01*
X96000001Y-73500000D01*
X96000000Y-73500000D01*
X96000000Y-73500001D01*
X96000000Y-79384819D01*
X95995154Y-79415412D01*
X95991032Y-79428098D01*
X95955080Y-79477589D01*
X95950959Y-79480584D01*
X95892771Y-79499500D01*
X90114680Y-79499500D01*
X90084087Y-79494654D01*
X90071401Y-79490532D01*
X90021901Y-79454568D01*
X90021894Y-79454558D01*
X90018900Y-79450436D01*
X90000000Y-79392256D01*
X90000000Y-76250001D01*
X90000000Y-76250000D01*
X88750000Y-75000000D01*
X88749999Y-75000000D01*
X85615180Y-75000000D01*
X85584587Y-74995154D01*
X85571901Y-74991032D01*
X85522401Y-74955068D01*
X85522394Y-74955058D01*
X85519400Y-74950936D01*
X85500500Y-74892756D01*
X85500500Y-72738336D01*
X85725855Y-72738336D01*
X85743875Y-72789485D01*
X85748653Y-72809458D01*
X85749500Y-72815891D01*
X85759415Y-72852896D01*
X85783610Y-72943194D01*
X85849494Y-73057307D01*
X85849496Y-73057309D01*
X85849498Y-73057311D01*
X85849500Y-73057314D01*
X85942686Y-73150500D01*
X85942688Y-73150501D01*
X85942690Y-73150503D01*
X85943237Y-73150898D01*
X85945247Y-73151979D01*
X86000040Y-73183614D01*
X86021634Y-73207596D01*
X86055944Y-73216174D01*
X86057548Y-73216588D01*
X86184108Y-73250500D01*
X86184110Y-73250500D01*
X86315890Y-73250500D01*
X86315892Y-73250500D01*
X86416629Y-73223507D01*
X86447424Y-73220271D01*
X86458801Y-73220867D01*
X86515921Y-73242794D01*
X86549244Y-73294104D01*
X86550506Y-73298813D01*
X86550507Y-73350061D01*
X86543100Y-73377705D01*
X86543100Y-73509491D01*
X86567484Y-73600499D01*
X86577208Y-73636789D01*
X86577210Y-73636793D01*
X86643094Y-73750907D01*
X86643095Y-73750908D01*
X86643096Y-73750909D01*
X86643098Y-73750911D01*
X86643100Y-73750914D01*
X86736286Y-73844100D01*
X86736288Y-73844101D01*
X86736290Y-73844103D01*
X86736837Y-73844498D01*
X86738839Y-73845575D01*
X86782807Y-73870959D01*
X86793640Y-73877214D01*
X86815234Y-73901196D01*
X86849544Y-73909774D01*
X86851148Y-73910188D01*
X86977708Y-73944100D01*
X86977710Y-73944100D01*
X87109490Y-73944100D01*
X87109492Y-73944100D01*
X87236786Y-73909992D01*
X87236788Y-73909990D01*
X87236790Y-73909990D01*
X87344790Y-73847635D01*
X87347667Y-73846239D01*
X87348453Y-73845722D01*
X87353462Y-73842628D01*
X87354761Y-73841877D01*
X87360119Y-73834894D01*
X87444100Y-73750914D01*
X87444103Y-73750909D01*
X87444104Y-73750908D01*
X87509990Y-73636790D01*
X87509990Y-73636788D01*
X87509992Y-73636786D01*
X87544100Y-73509492D01*
X87544100Y-73377708D01*
X87509992Y-73250414D01*
X87492115Y-73219451D01*
X87492115Y-73219450D01*
X87467675Y-73177119D01*
X87467674Y-73177116D01*
X87445571Y-73138833D01*
X87444498Y-73136838D01*
X87444103Y-73136290D01*
X87444101Y-73136288D01*
X87444100Y-73136286D01*
X87441922Y-73134108D01*
X88979500Y-73134108D01*
X88979500Y-73265892D01*
X88980600Y-73269997D01*
X88980600Y-73269999D01*
X88999545Y-73340700D01*
X88999545Y-73340701D01*
X89013607Y-73393186D01*
X89013608Y-73393187D01*
X89013609Y-73393190D01*
X89079496Y-73507309D01*
X89079498Y-73507311D01*
X89079500Y-73507314D01*
X89172686Y-73600500D01*
X89172688Y-73600501D01*
X89172690Y-73600503D01*
X89173237Y-73600898D01*
X89175239Y-73601975D01*
X89219207Y-73627359D01*
X89230040Y-73633614D01*
X89251634Y-73657596D01*
X89285944Y-73666174D01*
X89287548Y-73666588D01*
X89414108Y-73700500D01*
X89414110Y-73700500D01*
X89545890Y-73700500D01*
X89545892Y-73700500D01*
X89673186Y-73666392D01*
X89673188Y-73666390D01*
X89673190Y-73666390D01*
X89781190Y-73604035D01*
X89784067Y-73602639D01*
X89784853Y-73602122D01*
X89789862Y-73599028D01*
X89791161Y-73598277D01*
X89796519Y-73591294D01*
X89880500Y-73507314D01*
X89895310Y-73481663D01*
X89946390Y-73393190D01*
X89946390Y-73393188D01*
X89946392Y-73393186D01*
X89980500Y-73265892D01*
X89980500Y-73134108D01*
X89946392Y-73006814D01*
X89904415Y-72934108D01*
X102249500Y-72934108D01*
X102249500Y-73065891D01*
X102272170Y-73150502D01*
X102283608Y-73193189D01*
X102283610Y-73193193D01*
X102349494Y-73307307D01*
X102349496Y-73307309D01*
X102349498Y-73307311D01*
X102349500Y-73307314D01*
X102442686Y-73400500D01*
X102442688Y-73400501D01*
X102442690Y-73400503D01*
X102443237Y-73400898D01*
X102445239Y-73401975D01*
X102485967Y-73425489D01*
X102500040Y-73433614D01*
X102521634Y-73457596D01*
X102555944Y-73466174D01*
X102557548Y-73466588D01*
X102684108Y-73500500D01*
X102684110Y-73500500D01*
X102815890Y-73500500D01*
X102815892Y-73500500D01*
X102943186Y-73466392D01*
X102943188Y-73466390D01*
X102943190Y-73466390D01*
X103051190Y-73404035D01*
X103054067Y-73402639D01*
X103054853Y-73402122D01*
X103059862Y-73399028D01*
X103061161Y-73398277D01*
X103066519Y-73391294D01*
X103150500Y-73307314D01*
X103183302Y-73250500D01*
X103216390Y-73193190D01*
X103216390Y-73193188D01*
X103216392Y-73193186D01*
X103250500Y-73065892D01*
X103250500Y-72934108D01*
X103216392Y-72806814D01*
X103216390Y-72806811D01*
X103216390Y-72806809D01*
X103216383Y-72806798D01*
X103216066Y-72806094D01*
X103214812Y-72804076D01*
X103150503Y-72692690D01*
X103150501Y-72692688D01*
X103150500Y-72692686D01*
X103057314Y-72599500D01*
X103057311Y-72599498D01*
X103057309Y-72599496D01*
X103057302Y-72599492D01*
X103000476Y-72566683D01*
X102979442Y-72543322D01*
X102893799Y-72520375D01*
X102893798Y-72520374D01*
X102836766Y-72505093D01*
X102815892Y-72499500D01*
X102815891Y-72499500D01*
X102684109Y-72499500D01*
X102684108Y-72499500D01*
X102645154Y-72509937D01*
X102606199Y-72520375D01*
X102606198Y-72520374D01*
X102556807Y-72533609D01*
X102556805Y-72533610D01*
X102442694Y-72599492D01*
X102349492Y-72692694D01*
X102283610Y-72806805D01*
X102283608Y-72806809D01*
X102271259Y-72852894D01*
X102271260Y-72852895D01*
X102249500Y-72934108D01*
X89904415Y-72934108D01*
X89880500Y-72892686D01*
X89787314Y-72799500D01*
X89787311Y-72799498D01*
X89787309Y-72799496D01*
X89787302Y-72799492D01*
X89730476Y-72766683D01*
X89709442Y-72743322D01*
X89623799Y-72720375D01*
X89623798Y-72720374D01*
X89566766Y-72705093D01*
X89545892Y-72699500D01*
X89545891Y-72699500D01*
X89414109Y-72699500D01*
X89414108Y-72699500D01*
X89381594Y-72708212D01*
X89336199Y-72720375D01*
X89336198Y-72720374D01*
X89286807Y-72733609D01*
X89286805Y-72733610D01*
X89172694Y-72799492D01*
X89079492Y-72892694D01*
X89014221Y-73005747D01*
X89014220Y-73005749D01*
X89013609Y-73006809D01*
X89013608Y-73006814D01*
X88979500Y-73134108D01*
X87441922Y-73134108D01*
X87350914Y-73043100D01*
X87350911Y-73043098D01*
X87350909Y-73043096D01*
X87294076Y-73010283D01*
X87273042Y-72986922D01*
X87187399Y-72963975D01*
X87187398Y-72963974D01*
X87130366Y-72948693D01*
X87109492Y-72943100D01*
X87109491Y-72943100D01*
X86977711Y-72943100D01*
X86977708Y-72943100D01*
X86961493Y-72947444D01*
X86941316Y-72952849D01*
X86941316Y-72952850D01*
X86899801Y-72963974D01*
X86876976Y-72970090D01*
X86846166Y-72973326D01*
X86841091Y-72973060D01*
X86834790Y-72972730D01*
X86777670Y-72950798D01*
X86744354Y-72899495D01*
X86743093Y-72894790D01*
X86743092Y-72843537D01*
X86750500Y-72815892D01*
X86750500Y-72684108D01*
X86716392Y-72556814D01*
X86716390Y-72556811D01*
X86716390Y-72556809D01*
X86716383Y-72556798D01*
X86716066Y-72556094D01*
X86714812Y-72554076D01*
X86650503Y-72442690D01*
X86650501Y-72442688D01*
X86650500Y-72442686D01*
X86557314Y-72349500D01*
X86557311Y-72349498D01*
X86557309Y-72349496D01*
X86557302Y-72349492D01*
X86500476Y-72316683D01*
X86479442Y-72293322D01*
X86393799Y-72270375D01*
X86393798Y-72270374D01*
X86336766Y-72255093D01*
X86315892Y-72249500D01*
X86315891Y-72249500D01*
X86184109Y-72249500D01*
X86184108Y-72249500D01*
X86145154Y-72259937D01*
X86106199Y-72270375D01*
X86106198Y-72270374D01*
X86056807Y-72283609D01*
X86056805Y-72283610D01*
X85942694Y-72349492D01*
X85849492Y-72442694D01*
X85783610Y-72556805D01*
X85783608Y-72556809D01*
X85772169Y-72599498D01*
X85772170Y-72599499D01*
X85749500Y-72684108D01*
X85748653Y-72690542D01*
X85744655Y-72698923D01*
X85744655Y-72708212D01*
X85731756Y-72725965D01*
X85725855Y-72738336D01*
X85500500Y-72738336D01*
X85500500Y-71534106D01*
X92799500Y-71534106D01*
X92799500Y-71534108D01*
X92799500Y-71665892D01*
X92811157Y-71709396D01*
X92833609Y-71793190D01*
X92833610Y-71793192D01*
X92833611Y-71793195D01*
X92899494Y-71907307D01*
X92899496Y-71907309D01*
X92899498Y-71907311D01*
X92899500Y-71907314D01*
X92992686Y-72000500D01*
X92992688Y-72000501D01*
X92992690Y-72000503D01*
X92993237Y-72000898D01*
X92995239Y-72001975D01*
X93039207Y-72027359D01*
X93050040Y-72033614D01*
X93071634Y-72057596D01*
X93105944Y-72066174D01*
X93107548Y-72066588D01*
X93234108Y-72100500D01*
X93234110Y-72100500D01*
X93365890Y-72100500D01*
X93365892Y-72100500D01*
X93493186Y-72066392D01*
X93493188Y-72066390D01*
X93493190Y-72066390D01*
X93601190Y-72004035D01*
X93604067Y-72002639D01*
X93604853Y-72002122D01*
X93609862Y-71999028D01*
X93611161Y-71998277D01*
X93616519Y-71991294D01*
X93700500Y-71907314D01*
X93700503Y-71907309D01*
X93766390Y-71793190D01*
X93766390Y-71793188D01*
X93766392Y-71793186D01*
X93800500Y-71665892D01*
X93800500Y-71534108D01*
X93766392Y-71406814D01*
X93766390Y-71406811D01*
X93766390Y-71406809D01*
X93766383Y-71406798D01*
X93766066Y-71406094D01*
X93764812Y-71404076D01*
X93700503Y-71292690D01*
X93700501Y-71292688D01*
X93700500Y-71292686D01*
X93607314Y-71199500D01*
X93607311Y-71199498D01*
X93607309Y-71199496D01*
X93601063Y-71195890D01*
X93550476Y-71166683D01*
X93529442Y-71143322D01*
X93443799Y-71120375D01*
X93443798Y-71120374D01*
X93386766Y-71105093D01*
X93365892Y-71099500D01*
X93365891Y-71099500D01*
X93234109Y-71099500D01*
X93234108Y-71099500D01*
X93204945Y-71107314D01*
X93156199Y-71120375D01*
X93156198Y-71120374D01*
X93106807Y-71133609D01*
X93106805Y-71133610D01*
X92992694Y-71199492D01*
X92899492Y-71292694D01*
X92833610Y-71406805D01*
X92833608Y-71406809D01*
X92814538Y-71477975D01*
X92814539Y-71477976D01*
X92799500Y-71534106D01*
X85500500Y-71534106D01*
X85500500Y-70734108D01*
X102425654Y-70734108D01*
X102425654Y-70865891D01*
X102449043Y-70953185D01*
X102459762Y-70993189D01*
X102459764Y-70993193D01*
X102525648Y-71107307D01*
X102525650Y-71107309D01*
X102525652Y-71107311D01*
X102525654Y-71107314D01*
X102618840Y-71200500D01*
X102618842Y-71200501D01*
X102618844Y-71200503D01*
X102619391Y-71200898D01*
X102621393Y-71201975D01*
X102631237Y-71207658D01*
X102676194Y-71233614D01*
X102697788Y-71257596D01*
X102732098Y-71266174D01*
X102733702Y-71266588D01*
X102860262Y-71300500D01*
X102860264Y-71300500D01*
X102992044Y-71300500D01*
X102992046Y-71300500D01*
X103119340Y-71266392D01*
X103119342Y-71266390D01*
X103119344Y-71266390D01*
X103227344Y-71204035D01*
X103230220Y-71202640D01*
X103231002Y-71202125D01*
X103236015Y-71199029D01*
X103237314Y-71198278D01*
X103242673Y-71191294D01*
X103281989Y-71151977D01*
X103307043Y-71133775D01*
X103318930Y-71127718D01*
X103379358Y-71118148D01*
X103384396Y-71118946D01*
X103438907Y-71146722D01*
X103497705Y-71205519D01*
X103498256Y-71205917D01*
X103500258Y-71206994D01*
X103529596Y-71223932D01*
X103555059Y-71238633D01*
X103576653Y-71262615D01*
X103610963Y-71271193D01*
X103612567Y-71271607D01*
X103739127Y-71305519D01*
X103739129Y-71305519D01*
X103870909Y-71305519D01*
X103870911Y-71305519D01*
X103998205Y-71271411D01*
X103998207Y-71271409D01*
X103998209Y-71271409D01*
X104106209Y-71209054D01*
X104109086Y-71207658D01*
X104109872Y-71207141D01*
X104114881Y-71204047D01*
X104116180Y-71203296D01*
X104121538Y-71196313D01*
X104205519Y-71112333D01*
X104224855Y-71078842D01*
X104233362Y-71064108D01*
X104639500Y-71064108D01*
X104639500Y-71195892D01*
X104658390Y-71266390D01*
X104673609Y-71323190D01*
X104673610Y-71323192D01*
X104673611Y-71323195D01*
X104739494Y-71437307D01*
X104739496Y-71437309D01*
X104739498Y-71437311D01*
X104739500Y-71437314D01*
X104832686Y-71530500D01*
X104832688Y-71530501D01*
X104832690Y-71530503D01*
X104833237Y-71530898D01*
X104835239Y-71531975D01*
X104838936Y-71534109D01*
X104890040Y-71563614D01*
X104911634Y-71587596D01*
X104945944Y-71596174D01*
X104947548Y-71596588D01*
X105074108Y-71630500D01*
X105074110Y-71630500D01*
X105205890Y-71630500D01*
X105205892Y-71630500D01*
X105333186Y-71596392D01*
X105333188Y-71596390D01*
X105333190Y-71596390D01*
X105441190Y-71534035D01*
X105444067Y-71532639D01*
X105444853Y-71532122D01*
X105449862Y-71529028D01*
X105451161Y-71528277D01*
X105456519Y-71521294D01*
X105540500Y-71437314D01*
X105596745Y-71339893D01*
X105599420Y-71335529D01*
X105610802Y-71317991D01*
X105610803Y-71317992D01*
X105621455Y-71301578D01*
X105668977Y-71263068D01*
X105673735Y-71261240D01*
X105734831Y-71258014D01*
X105744108Y-71260500D01*
X105744109Y-71260500D01*
X105875890Y-71260500D01*
X105875892Y-71260500D01*
X106003186Y-71226392D01*
X106003188Y-71226390D01*
X106003190Y-71226390D01*
X106111190Y-71164035D01*
X106114067Y-71162639D01*
X106114853Y-71162122D01*
X106119862Y-71159028D01*
X106121161Y-71158277D01*
X106126519Y-71151294D01*
X106210500Y-71067314D01*
X106210503Y-71067309D01*
X106276390Y-70953190D01*
X106276390Y-70953188D01*
X106276392Y-70953186D01*
X106284975Y-70921155D01*
X110700500Y-70921155D01*
X110700500Y-71078844D01*
X110711394Y-71133608D01*
X110724699Y-71200500D01*
X110729360Y-71223932D01*
X110729360Y-71223934D01*
X110729361Y-71223937D01*
X110731262Y-71233499D01*
X110791600Y-71379169D01*
X110791603Y-71379174D01*
X110791609Y-71379185D01*
X110844312Y-71458059D01*
X110879211Y-71510289D01*
X110879214Y-71510292D01*
X110879218Y-71510297D01*
X110956518Y-71587596D01*
X110990711Y-71621789D01*
X111056713Y-71665890D01*
X111121814Y-71709390D01*
X111121825Y-71709396D01*
X111175638Y-71731685D01*
X111267503Y-71769737D01*
X111422158Y-71800500D01*
X111422159Y-71800500D01*
X111579841Y-71800500D01*
X111579842Y-71800500D01*
X111734497Y-71769737D01*
X111880179Y-71709394D01*
X112011289Y-71621789D01*
X112122789Y-71510289D01*
X112210394Y-71379179D01*
X112270737Y-71233497D01*
X112301500Y-71078842D01*
X112301500Y-70921158D01*
X112270737Y-70766503D01*
X112210795Y-70621788D01*
X112210396Y-70620825D01*
X112210392Y-70620818D01*
X112210393Y-70620818D01*
X112171511Y-70562628D01*
X112122789Y-70489711D01*
X112011292Y-70378214D01*
X112011289Y-70378211D01*
X111952049Y-70338628D01*
X111880185Y-70290609D01*
X111880174Y-70290603D01*
X111880169Y-70290600D01*
X111734498Y-70230263D01*
X111579844Y-70199500D01*
X111579842Y-70199500D01*
X111422158Y-70199500D01*
X111422155Y-70199500D01*
X111422154Y-70199500D01*
X111357680Y-70212325D01*
X111277065Y-70228361D01*
X111277058Y-70228361D01*
X111267499Y-70230262D01*
X111121829Y-70290600D01*
X111121806Y-70290613D01*
X110990711Y-70378210D01*
X110879210Y-70489711D01*
X110791613Y-70620806D01*
X110791600Y-70620829D01*
X110731264Y-70766496D01*
X110731264Y-70766497D01*
X110731263Y-70766499D01*
X110731263Y-70766501D01*
X110731263Y-70766503D01*
X110700500Y-70921155D01*
X106284975Y-70921155D01*
X106310500Y-70825892D01*
X106310500Y-70694108D01*
X106276392Y-70566814D01*
X106276390Y-70566810D01*
X106276390Y-70566809D01*
X106211621Y-70454626D01*
X106211296Y-70454045D01*
X106211274Y-70453936D01*
X106210796Y-70453048D01*
X106210608Y-70452795D01*
X106210501Y-70452688D01*
X106210500Y-70452686D01*
X106117314Y-70359500D01*
X106117311Y-70359498D01*
X106117309Y-70359496D01*
X106089295Y-70343322D01*
X106060476Y-70326683D01*
X106039442Y-70303322D01*
X105953799Y-70280375D01*
X105953798Y-70280374D01*
X105896766Y-70265093D01*
X105875892Y-70259500D01*
X105875891Y-70259500D01*
X105744109Y-70259500D01*
X105744108Y-70259500D01*
X105705154Y-70269937D01*
X105666199Y-70280375D01*
X105666198Y-70280374D01*
X105616807Y-70293609D01*
X105616805Y-70293610D01*
X105502694Y-70359492D01*
X105409495Y-70452691D01*
X105353096Y-70550377D01*
X105350376Y-70554815D01*
X105328516Y-70588459D01*
X105280957Y-70626953D01*
X105280954Y-70626954D01*
X105276196Y-70628779D01*
X105215125Y-70631973D01*
X105205896Y-70629500D01*
X105205892Y-70629500D01*
X105074108Y-70629500D01*
X105044826Y-70637346D01*
X104996199Y-70650375D01*
X104996198Y-70650374D01*
X104946806Y-70663609D01*
X104832694Y-70729492D01*
X104739492Y-70822694D01*
X104673608Y-70936809D01*
X104673330Y-70937545D01*
X104672784Y-70939886D01*
X104654502Y-71008118D01*
X104639500Y-71064108D01*
X104233362Y-71064108D01*
X104265688Y-71008119D01*
X104271409Y-70998209D01*
X104271409Y-70998207D01*
X104271411Y-70998205D01*
X104305519Y-70870911D01*
X104305519Y-70739127D01*
X104271411Y-70611833D01*
X104271409Y-70611830D01*
X104271409Y-70611828D01*
X104271402Y-70611817D01*
X104271085Y-70611113D01*
X104269831Y-70609095D01*
X104205522Y-70497709D01*
X104205520Y-70497707D01*
X104205519Y-70497705D01*
X104112333Y-70404519D01*
X104112330Y-70404517D01*
X104112328Y-70404515D01*
X104068457Y-70379186D01*
X104055495Y-70371702D01*
X104034461Y-70348341D01*
X103948818Y-70325394D01*
X103948817Y-70325393D01*
X103891785Y-70310112D01*
X103870911Y-70304519D01*
X103870910Y-70304519D01*
X103739128Y-70304519D01*
X103739127Y-70304519D01*
X103700173Y-70314956D01*
X103661218Y-70325394D01*
X103661217Y-70325393D01*
X103611825Y-70338628D01*
X103500441Y-70402936D01*
X103500436Y-70402940D01*
X103497709Y-70404515D01*
X103497708Y-70404516D01*
X103497705Y-70404518D01*
X103497705Y-70404519D01*
X103485917Y-70416306D01*
X103485895Y-70416327D01*
X103449185Y-70453037D01*
X103424129Y-70471242D01*
X103412244Y-70477298D01*
X103351812Y-70486870D01*
X103351808Y-70486869D01*
X103346772Y-70486072D01*
X103292265Y-70458296D01*
X103233466Y-70399498D01*
X103176630Y-70366683D01*
X103155596Y-70343322D01*
X103069953Y-70320375D01*
X103069952Y-70320374D01*
X103006310Y-70303322D01*
X102992046Y-70299500D01*
X102992045Y-70299500D01*
X102860263Y-70299500D01*
X102860262Y-70299500D01*
X102821308Y-70309937D01*
X102782353Y-70320375D01*
X102782352Y-70320374D01*
X102732961Y-70333609D01*
X102732959Y-70333610D01*
X102618848Y-70399492D01*
X102525646Y-70492694D01*
X102459764Y-70606805D01*
X102459763Y-70606806D01*
X102455748Y-70621792D01*
X102425654Y-70734108D01*
X85500500Y-70734108D01*
X85500500Y-69034108D01*
X94299500Y-69034108D01*
X94299500Y-69165892D01*
X94300543Y-69169784D01*
X94300543Y-69169785D01*
X94308130Y-69198100D01*
X94333610Y-69293194D01*
X94399494Y-69407307D01*
X94399496Y-69407309D01*
X94399498Y-69407311D01*
X94399500Y-69407314D01*
X94492686Y-69500500D01*
X94492688Y-69500501D01*
X94492690Y-69500503D01*
X94493237Y-69500898D01*
X94495239Y-69501975D01*
X94509638Y-69510288D01*
X94550040Y-69533614D01*
X94571634Y-69557596D01*
X94605944Y-69566174D01*
X94607548Y-69566588D01*
X94734108Y-69600500D01*
X94734110Y-69600500D01*
X94865890Y-69600500D01*
X94865892Y-69600500D01*
X94993186Y-69566392D01*
X94993188Y-69566390D01*
X94993190Y-69566390D01*
X95101190Y-69504035D01*
X95104067Y-69502639D01*
X95104853Y-69502122D01*
X95109862Y-69499028D01*
X95111161Y-69498277D01*
X95116519Y-69491294D01*
X95173708Y-69434106D01*
X96399500Y-69434106D01*
X96399500Y-69434108D01*
X96399500Y-69565892D01*
X96403207Y-69579730D01*
X96413338Y-69617540D01*
X96413339Y-69617540D01*
X96413339Y-69617541D01*
X96433609Y-69693190D01*
X96433610Y-69693192D01*
X96433611Y-69693195D01*
X96499494Y-69807307D01*
X96499496Y-69807309D01*
X96499498Y-69807311D01*
X96499500Y-69807314D01*
X96592686Y-69900500D01*
X96592688Y-69900501D01*
X96592690Y-69900503D01*
X96593237Y-69900898D01*
X96595239Y-69901975D01*
X96628466Y-69921158D01*
X96650040Y-69933614D01*
X96671634Y-69957596D01*
X96705944Y-69966174D01*
X96707548Y-69966588D01*
X96834108Y-70000500D01*
X96834110Y-70000500D01*
X96965890Y-70000500D01*
X96965892Y-70000500D01*
X97093186Y-69966392D01*
X97093188Y-69966390D01*
X97093190Y-69966390D01*
X97171538Y-69921155D01*
X108700500Y-69921155D01*
X108700500Y-70078844D01*
X108700611Y-70079402D01*
X108700611Y-70079404D01*
X108729361Y-70223933D01*
X108729361Y-70223937D01*
X108731262Y-70233499D01*
X108791600Y-70379169D01*
X108791603Y-70379174D01*
X108791609Y-70379185D01*
X108844312Y-70458059D01*
X108879211Y-70510289D01*
X108990711Y-70621789D01*
X109053299Y-70663609D01*
X109121814Y-70709390D01*
X109121825Y-70709396D01*
X109175638Y-70731685D01*
X109267503Y-70769737D01*
X109422158Y-70800500D01*
X109422159Y-70800500D01*
X109579841Y-70800500D01*
X109579842Y-70800500D01*
X109734497Y-70769737D01*
X109880179Y-70709394D01*
X110011289Y-70621789D01*
X110122789Y-70510289D01*
X110210394Y-70379179D01*
X110270737Y-70233497D01*
X110301500Y-70078842D01*
X110301500Y-69921158D01*
X110299367Y-69910440D01*
X110297639Y-69885246D01*
X110297650Y-69885062D01*
X110297834Y-69881968D01*
X110259695Y-69605417D01*
X110259499Y-69603897D01*
X110218633Y-69264065D01*
X110217958Y-69254763D01*
X110217524Y-69237639D01*
X110206723Y-68811332D01*
X110205843Y-68807307D01*
X110203786Y-68797902D01*
X110201500Y-68776751D01*
X110201500Y-63898991D01*
X110474500Y-63898991D01*
X110474500Y-63898994D01*
X110474500Y-64101005D01*
X110513908Y-64299124D01*
X110513910Y-64299130D01*
X110515946Y-64304046D01*
X110591212Y-64485754D01*
X110681163Y-64620375D01*
X110703439Y-64653714D01*
X110703442Y-64653718D01*
X110846282Y-64796558D01*
X111014244Y-64908786D01*
X111200873Y-64986091D01*
X111398997Y-65025500D01*
X111398998Y-65025500D01*
X111601002Y-65025500D01*
X111601003Y-65025500D01*
X111799127Y-64986091D01*
X111985756Y-64908786D01*
X112153718Y-64796558D01*
X112296558Y-64653718D01*
X112408786Y-64485756D01*
X112486091Y-64299127D01*
X112525500Y-64101003D01*
X112525500Y-63898997D01*
X112486091Y-63700873D01*
X112408786Y-63514244D01*
X112296558Y-63346282D01*
X112249772Y-63299496D01*
X112153726Y-63203449D01*
X112153720Y-63203444D01*
X112153718Y-63203442D01*
X112149315Y-63200500D01*
X112102720Y-63169366D01*
X111985762Y-63091216D01*
X111985753Y-63091212D01*
X111799132Y-63013911D01*
X111799133Y-63013911D01*
X111799130Y-63013910D01*
X111799124Y-63013908D01*
X111700064Y-62994204D01*
X111601007Y-62974500D01*
X111601005Y-62974500D01*
X111601003Y-62974500D01*
X111398997Y-62974500D01*
X111398994Y-62974500D01*
X111398991Y-62974500D01*
X111250404Y-63004056D01*
X111200875Y-63013908D01*
X111200869Y-63013910D01*
X111200866Y-63013911D01*
X111014244Y-63091212D01*
X110846288Y-63203436D01*
X110703436Y-63346288D01*
X110591212Y-63514244D01*
X110513911Y-63700866D01*
X110513908Y-63700876D01*
X110474500Y-63898991D01*
X110201500Y-63898991D01*
X110201500Y-62845845D01*
X110206344Y-62815256D01*
X110209087Y-62806814D01*
X110213891Y-62792025D01*
X110238040Y-62752616D01*
X110812446Y-62178209D01*
X110829027Y-62164866D01*
X110840415Y-62157570D01*
X111019457Y-61985239D01*
X111023712Y-61981377D01*
X111164502Y-61860901D01*
X111170400Y-61856233D01*
X111260413Y-61790471D01*
X111266545Y-61786335D01*
X111352140Y-61733189D01*
X111358956Y-61729325D01*
X111603189Y-61603466D01*
X111971438Y-61416159D01*
X111972732Y-61415495D01*
X111972931Y-61415392D01*
X111972935Y-61415387D01*
X111977398Y-61413080D01*
X111977499Y-61413276D01*
X111981508Y-61411159D01*
X111981465Y-61411079D01*
X111985747Y-61408789D01*
X111985756Y-61408786D01*
X112153718Y-61296558D01*
X112296558Y-61153718D01*
X112408786Y-60985756D01*
X112486091Y-60799127D01*
X112525500Y-60601003D01*
X112525500Y-60398997D01*
X112486091Y-60200873D01*
X112408786Y-60014244D01*
X112296558Y-59846282D01*
X112153718Y-59703442D01*
X112153714Y-59703439D01*
X112153711Y-59703436D01*
X112042896Y-59629392D01*
X112030391Y-59613530D01*
X111985762Y-59591216D01*
X111985755Y-59591213D01*
X111799130Y-59513910D01*
X111799124Y-59513908D01*
X111700064Y-59494204D01*
X111601007Y-59474500D01*
X111601005Y-59474500D01*
X111601003Y-59474500D01*
X111398997Y-59474500D01*
X111398994Y-59474500D01*
X111398991Y-59474500D01*
X111250404Y-59504056D01*
X111200875Y-59513908D01*
X111200869Y-59513910D01*
X111200866Y-59513911D01*
X111014244Y-59591212D01*
X110846288Y-59703436D01*
X110703436Y-59846288D01*
X110591213Y-60014242D01*
X110590514Y-60015551D01*
X110586001Y-60024205D01*
X110586044Y-60024227D01*
X110398337Y-60393257D01*
X110398338Y-60393258D01*
X110396193Y-60397476D01*
X110396191Y-60397477D01*
X110395066Y-60399691D01*
X110394960Y-60399915D01*
X110297810Y-60592158D01*
X110293953Y-60599086D01*
X110201585Y-60750407D01*
X110194659Y-60760334D01*
X110063027Y-60926353D01*
X110057275Y-60932981D01*
X109841282Y-61160664D01*
X109833925Y-61172160D01*
X109820545Y-61188795D01*
X108956882Y-62052460D01*
X108880222Y-62167191D01*
X108827421Y-62294666D01*
X108827420Y-62294672D01*
X108810543Y-62379518D01*
X108800500Y-62430005D01*
X108800500Y-68778956D01*
X108798283Y-68799789D01*
X108795345Y-68813437D01*
X108790045Y-69152654D01*
X108789748Y-69158927D01*
X108771764Y-69385876D01*
X108771185Y-69391286D01*
X108742631Y-69603038D01*
X108742591Y-69603333D01*
X108704158Y-69882013D01*
X108704158Y-69882022D01*
X108704345Y-69885062D01*
X108703957Y-69890790D01*
X108704509Y-69893206D01*
X108704326Y-69901913D01*
X108700500Y-69921155D01*
X97171538Y-69921155D01*
X97201190Y-69904035D01*
X97204067Y-69902639D01*
X97204853Y-69902122D01*
X97209862Y-69899028D01*
X97211161Y-69898277D01*
X97216519Y-69891294D01*
X97300500Y-69807314D01*
X97324062Y-69766503D01*
X97366390Y-69693190D01*
X97366390Y-69693188D01*
X97366392Y-69693186D01*
X97400500Y-69565892D01*
X97400500Y-69434108D01*
X97366392Y-69306814D01*
X97366390Y-69306811D01*
X97366390Y-69306809D01*
X97366383Y-69306798D01*
X97366066Y-69306094D01*
X97364812Y-69304076D01*
X97300503Y-69192690D01*
X97300501Y-69192688D01*
X97300500Y-69192686D01*
X97207314Y-69099500D01*
X97207311Y-69099498D01*
X97207309Y-69099496D01*
X97207302Y-69099492D01*
X97150476Y-69066683D01*
X97129442Y-69043322D01*
X97043799Y-69020375D01*
X97043798Y-69020374D01*
X96986766Y-69005093D01*
X96965892Y-68999500D01*
X96965891Y-68999500D01*
X96834109Y-68999500D01*
X96834108Y-68999500D01*
X96795154Y-69009937D01*
X96756199Y-69020375D01*
X96756198Y-69020374D01*
X96706807Y-69033609D01*
X96706805Y-69033610D01*
X96592694Y-69099492D01*
X96499492Y-69192694D01*
X96433610Y-69306805D01*
X96433608Y-69306809D01*
X96414538Y-69377975D01*
X96414539Y-69377976D01*
X96399500Y-69434106D01*
X95173708Y-69434106D01*
X95200500Y-69407314D01*
X95216741Y-69379184D01*
X95217357Y-69378118D01*
X95232309Y-69352218D01*
X95258525Y-69306814D01*
X95266387Y-69293194D01*
X95266392Y-69293186D01*
X95300500Y-69165892D01*
X95300500Y-69034108D01*
X95266392Y-68906814D01*
X95266390Y-68906811D01*
X95266390Y-68906809D01*
X95266383Y-68906798D01*
X95266066Y-68906094D01*
X95264812Y-68904076D01*
X95200503Y-68792690D01*
X95200501Y-68792688D01*
X95200500Y-68792686D01*
X95107314Y-68699500D01*
X95107311Y-68699498D01*
X95107309Y-68699496D01*
X95096380Y-68693186D01*
X95050476Y-68666683D01*
X95029442Y-68643322D01*
X94943799Y-68620375D01*
X94943798Y-68620374D01*
X94886766Y-68605093D01*
X94865892Y-68599500D01*
X94865891Y-68599500D01*
X94734109Y-68599500D01*
X94734108Y-68599500D01*
X94695154Y-68609937D01*
X94656199Y-68620375D01*
X94656198Y-68620374D01*
X94606807Y-68633609D01*
X94606805Y-68633610D01*
X94492694Y-68699492D01*
X94399495Y-68792691D01*
X94333608Y-68906810D01*
X94333608Y-68906811D01*
X94331572Y-68914410D01*
X94331571Y-68914414D01*
X94329765Y-68921157D01*
X94299500Y-69034108D01*
X85500500Y-69034108D01*
X85500500Y-67684108D01*
X100749500Y-67684108D01*
X100749500Y-67815892D01*
X100749501Y-67815894D01*
X100751008Y-67821519D01*
X100750946Y-67822018D01*
X100751277Y-67823420D01*
X100752095Y-67825576D01*
X100759934Y-67854834D01*
X100783609Y-67943190D01*
X100783610Y-67943192D01*
X100783611Y-67943195D01*
X100849494Y-68057307D01*
X100849496Y-68057309D01*
X100849498Y-68057311D01*
X100849500Y-68057314D01*
X100942686Y-68150500D01*
X100942688Y-68150501D01*
X100942690Y-68150503D01*
X100943237Y-68150898D01*
X100945247Y-68151979D01*
X101000040Y-68183614D01*
X101021634Y-68207596D01*
X101055944Y-68216174D01*
X101057548Y-68216588D01*
X101184108Y-68250500D01*
X101184110Y-68250500D01*
X101315890Y-68250500D01*
X101315891Y-68250500D01*
X101315892Y-68250500D01*
X101385936Y-68231731D01*
X101416734Y-68228495D01*
X101428109Y-68229091D01*
X101485231Y-68251018D01*
X101518554Y-68302331D01*
X101519815Y-68307037D01*
X101519816Y-68358282D01*
X101499500Y-68434105D01*
X101499500Y-68565891D01*
X101514216Y-68620813D01*
X101533609Y-68693190D01*
X101533610Y-68693193D01*
X101599494Y-68807307D01*
X101599496Y-68807309D01*
X101599498Y-68807311D01*
X101599500Y-68807314D01*
X101692686Y-68900500D01*
X101692688Y-68900501D01*
X101692690Y-68900503D01*
X101693237Y-68900898D01*
X101695239Y-68901975D01*
X101703614Y-68906810D01*
X101750040Y-68933614D01*
X101771634Y-68957596D01*
X101805944Y-68966174D01*
X101807548Y-68966588D01*
X101934108Y-69000500D01*
X101934110Y-69000500D01*
X102065890Y-69000500D01*
X102065892Y-69000500D01*
X102193186Y-68966392D01*
X102193188Y-68966390D01*
X102193190Y-68966390D01*
X102301190Y-68904035D01*
X102304067Y-68902639D01*
X102304853Y-68902122D01*
X102309862Y-68899028D01*
X102311161Y-68898277D01*
X102316519Y-68891294D01*
X102400500Y-68807314D01*
X102422558Y-68769108D01*
X106464500Y-68769108D01*
X106464500Y-68900894D01*
X106469929Y-68921157D01*
X106469930Y-68921157D01*
X106498610Y-69028194D01*
X106564494Y-69142307D01*
X106564496Y-69142309D01*
X106564498Y-69142311D01*
X106564500Y-69142314D01*
X106657686Y-69235500D01*
X106657688Y-69235501D01*
X106657690Y-69235503D01*
X106658237Y-69235898D01*
X106660239Y-69236975D01*
X106693422Y-69256133D01*
X106715040Y-69268614D01*
X106736634Y-69292596D01*
X106770944Y-69301174D01*
X106772548Y-69301588D01*
X106899108Y-69335500D01*
X106899110Y-69335500D01*
X107030890Y-69335500D01*
X107030892Y-69335500D01*
X107158186Y-69301392D01*
X107158188Y-69301390D01*
X107158190Y-69301390D01*
X107266190Y-69239035D01*
X107269067Y-69237639D01*
X107269853Y-69237122D01*
X107274862Y-69234028D01*
X107276161Y-69233277D01*
X107281519Y-69226294D01*
X107365500Y-69142314D01*
X107402146Y-69078841D01*
X107431390Y-69028190D01*
X107431390Y-69028188D01*
X107431392Y-69028186D01*
X107465500Y-68900892D01*
X107465500Y-68769108D01*
X107431392Y-68641814D01*
X107431390Y-68641811D01*
X107431390Y-68641809D01*
X107431383Y-68641798D01*
X107431066Y-68641094D01*
X107429812Y-68639076D01*
X107365503Y-68527690D01*
X107365501Y-68527688D01*
X107365500Y-68527686D01*
X107272314Y-68434500D01*
X107272311Y-68434498D01*
X107272309Y-68434496D01*
X107271632Y-68434105D01*
X107215476Y-68401683D01*
X107194442Y-68378322D01*
X107108799Y-68355375D01*
X107108798Y-68355374D01*
X107051766Y-68340093D01*
X107030892Y-68334500D01*
X107030891Y-68334500D01*
X106899109Y-68334500D01*
X106899108Y-68334500D01*
X106860154Y-68344937D01*
X106821199Y-68355375D01*
X106821198Y-68355374D01*
X106771807Y-68368609D01*
X106771805Y-68368610D01*
X106657694Y-68434492D01*
X106564495Y-68527691D01*
X106498609Y-68641808D01*
X106484842Y-68693190D01*
X106464500Y-68769108D01*
X102422558Y-68769108D01*
X102466392Y-68693186D01*
X102500500Y-68565892D01*
X102500500Y-68434108D01*
X102466392Y-68306814D01*
X102466390Y-68306811D01*
X102466390Y-68306809D01*
X102466383Y-68306798D01*
X102466066Y-68306094D01*
X102464812Y-68304076D01*
X102400503Y-68192690D01*
X102400501Y-68192688D01*
X102400500Y-68192686D01*
X102307314Y-68099500D01*
X102307311Y-68099498D01*
X102307309Y-68099496D01*
X102250476Y-68066683D01*
X102229442Y-68043322D01*
X102139123Y-68019122D01*
X102139122Y-68019121D01*
X102085513Y-68004757D01*
X102065892Y-67999500D01*
X102065891Y-67999500D01*
X101934106Y-67999500D01*
X101864066Y-68018266D01*
X101833265Y-68021503D01*
X101821889Y-68020907D01*
X101764768Y-67998981D01*
X101731444Y-67947670D01*
X101730177Y-67942939D01*
X101730183Y-67891712D01*
X101743585Y-67841700D01*
X101750500Y-67815892D01*
X101750500Y-67684108D01*
X101731730Y-67614059D01*
X101728494Y-67583263D01*
X101729090Y-67571885D01*
X101751017Y-67514766D01*
X101802329Y-67481444D01*
X101807045Y-67480181D01*
X101858285Y-67480183D01*
X101895155Y-67490062D01*
X101934105Y-67500499D01*
X101934107Y-67500500D01*
X101934108Y-67500500D01*
X101934111Y-67500500D01*
X102065890Y-67500500D01*
X102065892Y-67500500D01*
X102193186Y-67466392D01*
X102193188Y-67466390D01*
X102193190Y-67466390D01*
X102301190Y-67404035D01*
X102304067Y-67402639D01*
X102304853Y-67402122D01*
X102309862Y-67399028D01*
X102311161Y-67398277D01*
X102316519Y-67391294D01*
X102400500Y-67307314D01*
X102420701Y-67272325D01*
X102466390Y-67193190D01*
X102466390Y-67193188D01*
X102466392Y-67193186D01*
X102500500Y-67065892D01*
X102500500Y-66934108D01*
X102466392Y-66806814D01*
X102466390Y-66806811D01*
X102466390Y-66806809D01*
X102466383Y-66806798D01*
X102466066Y-66806094D01*
X102464812Y-66804076D01*
X102400503Y-66692690D01*
X102400501Y-66692688D01*
X102400500Y-66692686D01*
X102307314Y-66599500D01*
X102307311Y-66599498D01*
X102307309Y-66599496D01*
X102307302Y-66599492D01*
X102250476Y-66566683D01*
X102229442Y-66543322D01*
X102143799Y-66520375D01*
X102143798Y-66520374D01*
X102086766Y-66505093D01*
X102065892Y-66499500D01*
X102065891Y-66499500D01*
X101934109Y-66499500D01*
X101934108Y-66499500D01*
X101895154Y-66509937D01*
X101856199Y-66520375D01*
X101856198Y-66520374D01*
X101806807Y-66533609D01*
X101806805Y-66533610D01*
X101692694Y-66599492D01*
X101599492Y-66692694D01*
X101533608Y-66806809D01*
X101533330Y-66807545D01*
X101532784Y-66809886D01*
X101499500Y-66934108D01*
X101499500Y-67065894D01*
X101518266Y-67135933D01*
X101521503Y-67166735D01*
X101520907Y-67178109D01*
X101498981Y-67235230D01*
X101447672Y-67268553D01*
X101442967Y-67269814D01*
X101391716Y-67269816D01*
X101353084Y-67259465D01*
X101315892Y-67249500D01*
X101315891Y-67249500D01*
X101184109Y-67249500D01*
X101184108Y-67249500D01*
X101145940Y-67259727D01*
X101106199Y-67270375D01*
X101106198Y-67270374D01*
X101056807Y-67283609D01*
X101056805Y-67283610D01*
X100942694Y-67349492D01*
X100849492Y-67442694D01*
X100784247Y-67555702D01*
X100784246Y-67555704D01*
X100783609Y-67556809D01*
X100783608Y-67556814D01*
X100749500Y-67684108D01*
X85500500Y-67684108D01*
X85500500Y-62934108D01*
X91499500Y-62934108D01*
X91499500Y-63065892D01*
X91500600Y-63069997D01*
X91500600Y-63069999D01*
X91526427Y-63166389D01*
X91533608Y-63193189D01*
X91533610Y-63193193D01*
X91599494Y-63307307D01*
X91599496Y-63307309D01*
X91599498Y-63307311D01*
X91599500Y-63307314D01*
X91692686Y-63400500D01*
X91692688Y-63400501D01*
X91692690Y-63400503D01*
X91693237Y-63400898D01*
X91695239Y-63401975D01*
X91727331Y-63420503D01*
X91750040Y-63433614D01*
X91771634Y-63457596D01*
X91805944Y-63466174D01*
X91807548Y-63466588D01*
X91934108Y-63500500D01*
X91934110Y-63500500D01*
X91990601Y-63500500D01*
X92021186Y-63505342D01*
X92032890Y-63509145D01*
X92082391Y-63545105D01*
X92101268Y-63600715D01*
X92101531Y-63610780D01*
X92099547Y-63627569D01*
X92100346Y-63627674D01*
X92099500Y-63634104D01*
X92099500Y-63765891D01*
X92100347Y-63772323D01*
X92099178Y-63772476D01*
X92101087Y-63790538D01*
X92100443Y-63802823D01*
X92078516Y-63859944D01*
X92029702Y-63892561D01*
X92020049Y-63895421D01*
X91991926Y-63899500D01*
X91934108Y-63899500D01*
X91895154Y-63909937D01*
X91856199Y-63920375D01*
X91856198Y-63920374D01*
X91806807Y-63933609D01*
X91806805Y-63933610D01*
X91692694Y-63999492D01*
X91599492Y-64092694D01*
X91533608Y-64206809D01*
X91533330Y-64207545D01*
X91532784Y-64209886D01*
X91507932Y-64302639D01*
X91499500Y-64334108D01*
X91499500Y-64465892D01*
X91529579Y-64578151D01*
X91529580Y-64578153D01*
X91533609Y-64593191D01*
X91533610Y-64593193D01*
X91599491Y-64707301D01*
X91599499Y-64707313D01*
X91599500Y-64707314D01*
X91611095Y-64718910D01*
X91629299Y-64743967D01*
X91635355Y-64755853D01*
X91644926Y-64816285D01*
X91644926Y-64816287D01*
X91644129Y-64821318D01*
X91616355Y-64875828D01*
X91599506Y-64892678D01*
X91599501Y-64892683D01*
X91599497Y-64892689D01*
X91599491Y-64892697D01*
X91533610Y-65006805D01*
X91533608Y-65006809D01*
X91522169Y-65049498D01*
X91522170Y-65049499D01*
X91513010Y-65083687D01*
X91499500Y-65134108D01*
X91499500Y-65265892D01*
X91529579Y-65378151D01*
X91533609Y-65393190D01*
X91599496Y-65507309D01*
X91599498Y-65507311D01*
X91599500Y-65507314D01*
X91692686Y-65600500D01*
X91692688Y-65600501D01*
X91692690Y-65600503D01*
X91693237Y-65600898D01*
X91695239Y-65601975D01*
X91739207Y-65627359D01*
X91750040Y-65633614D01*
X91771634Y-65657596D01*
X91805944Y-65666174D01*
X91807548Y-65666588D01*
X91934108Y-65700500D01*
X91934110Y-65700500D01*
X92065890Y-65700500D01*
X92065892Y-65700500D01*
X92193186Y-65666392D01*
X92193188Y-65666390D01*
X92193190Y-65666390D01*
X92301190Y-65604035D01*
X92304067Y-65602639D01*
X92304853Y-65602122D01*
X92309862Y-65599028D01*
X92311161Y-65598277D01*
X92316519Y-65591294D01*
X92400500Y-65507314D01*
X92405596Y-65498487D01*
X92466390Y-65393190D01*
X92466390Y-65393188D01*
X92466392Y-65393186D01*
X92500500Y-65265892D01*
X92500500Y-65134108D01*
X92473705Y-65034108D01*
X101999500Y-65034108D01*
X101999500Y-65165891D01*
X102023860Y-65256808D01*
X102033609Y-65293191D01*
X102033610Y-65293193D01*
X102099494Y-65407307D01*
X102099496Y-65407309D01*
X102099498Y-65407311D01*
X102099500Y-65407314D01*
X102192686Y-65500500D01*
X102192688Y-65500501D01*
X102192690Y-65500503D01*
X102193237Y-65500898D01*
X102195239Y-65501975D01*
X102219341Y-65515890D01*
X102250040Y-65533614D01*
X102271634Y-65557596D01*
X102305944Y-65566174D01*
X102307548Y-65566588D01*
X102434108Y-65600500D01*
X102434110Y-65600500D01*
X102565890Y-65600500D01*
X102565892Y-65600500D01*
X102693186Y-65566392D01*
X102693188Y-65566390D01*
X102693190Y-65566390D01*
X102801190Y-65504035D01*
X102804066Y-65502640D01*
X102804848Y-65502125D01*
X102809861Y-65499029D01*
X102811161Y-65498278D01*
X102816522Y-65491291D01*
X102823304Y-65484508D01*
X102848354Y-65466311D01*
X102858502Y-65461140D01*
X102918933Y-65451566D01*
X102973442Y-65479334D01*
X102976888Y-65482779D01*
X103002522Y-65527170D01*
X103033610Y-65643194D01*
X103099494Y-65757307D01*
X103099496Y-65757309D01*
X103099498Y-65757311D01*
X103099500Y-65757314D01*
X103192686Y-65850500D01*
X103192688Y-65850501D01*
X103192690Y-65850503D01*
X103193237Y-65850898D01*
X103195239Y-65851975D01*
X103239207Y-65877359D01*
X103250040Y-65883614D01*
X103271634Y-65907596D01*
X103305944Y-65916174D01*
X103307548Y-65916588D01*
X103434108Y-65950500D01*
X103434110Y-65950500D01*
X103565890Y-65950500D01*
X103565892Y-65950500D01*
X103693186Y-65916392D01*
X103693188Y-65916390D01*
X103693190Y-65916390D01*
X103801190Y-65854035D01*
X103804067Y-65852639D01*
X103804853Y-65852122D01*
X103809862Y-65849028D01*
X103811161Y-65848277D01*
X103816519Y-65841294D01*
X103900500Y-65757314D01*
X103953120Y-65666174D01*
X103966390Y-65643190D01*
X103966390Y-65643188D01*
X103966392Y-65643186D01*
X104000500Y-65515892D01*
X104000500Y-65384108D01*
X103966392Y-65256814D01*
X103966390Y-65256811D01*
X103966390Y-65256809D01*
X103966387Y-65256805D01*
X103966066Y-65256094D01*
X103964812Y-65254076D01*
X103900503Y-65142690D01*
X103900501Y-65142688D01*
X103900500Y-65142686D01*
X103807314Y-65049500D01*
X103807311Y-65049498D01*
X103807309Y-65049496D01*
X103807300Y-65049491D01*
X103750476Y-65016683D01*
X103729442Y-64993322D01*
X103643799Y-64970375D01*
X103643798Y-64970374D01*
X103586766Y-64955093D01*
X103565892Y-64949500D01*
X103565891Y-64949500D01*
X103434109Y-64949500D01*
X103434108Y-64949500D01*
X103395154Y-64959937D01*
X103356199Y-64970375D01*
X103356198Y-64970374D01*
X103306807Y-64983609D01*
X103306805Y-64983610D01*
X103192697Y-65049491D01*
X103192689Y-65049497D01*
X103192686Y-65049498D01*
X103176698Y-65065486D01*
X103151645Y-65083687D01*
X103141495Y-65088859D01*
X103081063Y-65098432D01*
X103026547Y-65070655D01*
X103023090Y-65067198D01*
X102997477Y-65022827D01*
X102966393Y-64906818D01*
X102966392Y-64906814D01*
X102966390Y-64906811D01*
X102966390Y-64906809D01*
X102966385Y-64906800D01*
X102966065Y-64906093D01*
X102964812Y-64904076D01*
X102900503Y-64792690D01*
X102900501Y-64792688D01*
X102900500Y-64792686D01*
X102807314Y-64699500D01*
X102807311Y-64699498D01*
X102807309Y-64699496D01*
X102807302Y-64699492D01*
X102750476Y-64666683D01*
X102729442Y-64643322D01*
X102643799Y-64620375D01*
X102643798Y-64620374D01*
X102586766Y-64605093D01*
X102565892Y-64599500D01*
X102565891Y-64599500D01*
X102434109Y-64599500D01*
X102434108Y-64599500D01*
X102395154Y-64609937D01*
X102356199Y-64620375D01*
X102356198Y-64620374D01*
X102306807Y-64633609D01*
X102306805Y-64633610D01*
X102192694Y-64699492D01*
X102099492Y-64792694D01*
X102033610Y-64906805D01*
X102033608Y-64906809D01*
X102022169Y-64949498D01*
X102022170Y-64949499D01*
X101999500Y-65034108D01*
X92473705Y-65034108D01*
X92466392Y-65006814D01*
X92466390Y-65006811D01*
X92466390Y-65006809D01*
X92466387Y-65006804D01*
X92466297Y-65006467D01*
X92464812Y-65004076D01*
X92400503Y-64892690D01*
X92400501Y-64892688D01*
X92400500Y-64892686D01*
X92388897Y-64881083D01*
X92370697Y-64856031D01*
X92364639Y-64844141D01*
X92355071Y-64783718D01*
X92355868Y-64778683D01*
X92383643Y-64724170D01*
X92400500Y-64707314D01*
X92400503Y-64707309D01*
X92466390Y-64593190D01*
X92466390Y-64593188D01*
X92466392Y-64593186D01*
X92500500Y-64465892D01*
X92500500Y-64334108D01*
X92500499Y-64334107D01*
X92499653Y-64327676D01*
X92500871Y-64327515D01*
X92498912Y-64309466D01*
X92499557Y-64297173D01*
X92521483Y-64240055D01*
X92570305Y-64207435D01*
X92579962Y-64204574D01*
X92608074Y-64200500D01*
X92665890Y-64200500D01*
X92665892Y-64200500D01*
X92793186Y-64166392D01*
X92793188Y-64166390D01*
X92793190Y-64166390D01*
X92901190Y-64104035D01*
X92904067Y-64102639D01*
X92904853Y-64102122D01*
X92909862Y-64099028D01*
X92911161Y-64098277D01*
X92916519Y-64091294D01*
X93000500Y-64007314D01*
X93000503Y-64007309D01*
X93066390Y-63893190D01*
X93066390Y-63893188D01*
X93066392Y-63893186D01*
X93082222Y-63834108D01*
X104999500Y-63834108D01*
X104999500Y-63965894D01*
X105010597Y-64007306D01*
X105010597Y-64007308D01*
X105010598Y-64007308D01*
X105010598Y-64007309D01*
X105033609Y-64093190D01*
X105033610Y-64093192D01*
X105033611Y-64093195D01*
X105099494Y-64207307D01*
X105099496Y-64207309D01*
X105099498Y-64207311D01*
X105099500Y-64207314D01*
X105192686Y-64300500D01*
X105192688Y-64300501D01*
X105192690Y-64300503D01*
X105193237Y-64300898D01*
X105195239Y-64301975D01*
X105208206Y-64309461D01*
X105250040Y-64333614D01*
X105271634Y-64357596D01*
X105305944Y-64366174D01*
X105307548Y-64366588D01*
X105434108Y-64400500D01*
X105434110Y-64400500D01*
X105565890Y-64400500D01*
X105565892Y-64400500D01*
X105693186Y-64366392D01*
X105693188Y-64366390D01*
X105693190Y-64366390D01*
X105801190Y-64304035D01*
X105804067Y-64302639D01*
X105804853Y-64302122D01*
X105809862Y-64299028D01*
X105811161Y-64298277D01*
X105816519Y-64291294D01*
X105900500Y-64207314D01*
X105904434Y-64200500D01*
X105966390Y-64093190D01*
X105966390Y-64093188D01*
X105966392Y-64093186D01*
X106000500Y-63965892D01*
X106000500Y-63834108D01*
X105966392Y-63706814D01*
X105966390Y-63706811D01*
X105966390Y-63706809D01*
X105966383Y-63706798D01*
X105966066Y-63706094D01*
X105964812Y-63704076D01*
X105901036Y-63593614D01*
X105900503Y-63592690D01*
X105900501Y-63592688D01*
X105900500Y-63592686D01*
X105807314Y-63499500D01*
X105807311Y-63499498D01*
X105807309Y-63499496D01*
X105784957Y-63486591D01*
X105750476Y-63466683D01*
X105729442Y-63443322D01*
X105643799Y-63420375D01*
X105643798Y-63420374D01*
X105586766Y-63405093D01*
X105565892Y-63399500D01*
X105565891Y-63399500D01*
X105434109Y-63399500D01*
X105434108Y-63399500D01*
X105395154Y-63409937D01*
X105356199Y-63420375D01*
X105356198Y-63420374D01*
X105306807Y-63433609D01*
X105306805Y-63433610D01*
X105192694Y-63499492D01*
X105099492Y-63592694D01*
X105033610Y-63706804D01*
X105017778Y-63765892D01*
X104999500Y-63834108D01*
X93082222Y-63834108D01*
X93100500Y-63765892D01*
X93100500Y-63634108D01*
X93066392Y-63506814D01*
X93066390Y-63506811D01*
X93066390Y-63506809D01*
X93066383Y-63506798D01*
X93066066Y-63506094D01*
X93064812Y-63504076D01*
X93000503Y-63392690D01*
X93000501Y-63392688D01*
X93000500Y-63392686D01*
X92907314Y-63299500D01*
X92907311Y-63299498D01*
X92907309Y-63299496D01*
X92850476Y-63266683D01*
X92829442Y-63243321D01*
X92723405Y-63214910D01*
X92723401Y-63214909D01*
X92716969Y-63213186D01*
X92665892Y-63199500D01*
X92603084Y-63199500D01*
X92596822Y-63198698D01*
X92593034Y-63196907D01*
X92578801Y-63194653D01*
X92567099Y-63190850D01*
X92542680Y-63173106D01*
X92541505Y-63172551D01*
X92541233Y-63172055D01*
X92517601Y-63154883D01*
X92506774Y-63122989D01*
X92503304Y-63118212D01*
X92501404Y-63107168D01*
X92498731Y-63099292D01*
X92498724Y-63099028D01*
X92498595Y-63094108D01*
X93219500Y-63094108D01*
X93219500Y-63225892D01*
X93241317Y-63307314D01*
X93253609Y-63353190D01*
X93253610Y-63353192D01*
X93253611Y-63353195D01*
X93319494Y-63467307D01*
X93319496Y-63467309D01*
X93319498Y-63467311D01*
X93319500Y-63467314D01*
X93412686Y-63560500D01*
X93412688Y-63560501D01*
X93412690Y-63560503D01*
X93413237Y-63560898D01*
X93415239Y-63561975D01*
X93459207Y-63587359D01*
X93470040Y-63593614D01*
X93491634Y-63617596D01*
X93525944Y-63626174D01*
X93527548Y-63626588D01*
X93654108Y-63660500D01*
X93654110Y-63660500D01*
X93785890Y-63660500D01*
X93785892Y-63660500D01*
X93913186Y-63626392D01*
X93913188Y-63626390D01*
X93913190Y-63626390D01*
X94021190Y-63564035D01*
X94024067Y-63562639D01*
X94024853Y-63562122D01*
X94029862Y-63559028D01*
X94031161Y-63558277D01*
X94036519Y-63551294D01*
X94120500Y-63467314D01*
X94121032Y-63466392D01*
X94186390Y-63353190D01*
X94186390Y-63353188D01*
X94186392Y-63353186D01*
X94220500Y-63225892D01*
X94220500Y-63094108D01*
X94186392Y-62966814D01*
X94186390Y-62966811D01*
X94186390Y-62966809D01*
X94186383Y-62966798D01*
X94186066Y-62966094D01*
X94184812Y-62964076D01*
X94120503Y-62852690D01*
X94120501Y-62852688D01*
X94120500Y-62852686D01*
X94027314Y-62759500D01*
X94027311Y-62759498D01*
X94027309Y-62759496D01*
X94015389Y-62752614D01*
X93970476Y-62726683D01*
X93949442Y-62703322D01*
X93863799Y-62680375D01*
X93863798Y-62680374D01*
X93806766Y-62665093D01*
X93785892Y-62659500D01*
X93785891Y-62659500D01*
X93654109Y-62659500D01*
X93654108Y-62659500D01*
X93615154Y-62669937D01*
X93576199Y-62680375D01*
X93576198Y-62680374D01*
X93526807Y-62693609D01*
X93526805Y-62693610D01*
X93412694Y-62759492D01*
X93319492Y-62852694D01*
X93253610Y-62966805D01*
X93253609Y-62966807D01*
X93242755Y-63007312D01*
X93242756Y-63007313D01*
X93240988Y-63013911D01*
X93219500Y-63094108D01*
X92498595Y-63094108D01*
X92498468Y-63089260D01*
X92500464Y-63072435D01*
X92499652Y-63072329D01*
X92500500Y-63065892D01*
X92500500Y-62934109D01*
X92500500Y-62934108D01*
X92466392Y-62806814D01*
X92466390Y-62806811D01*
X92466390Y-62806809D01*
X92466383Y-62806798D01*
X92466066Y-62806094D01*
X92464812Y-62804076D01*
X92400503Y-62692690D01*
X92400501Y-62692688D01*
X92400500Y-62692686D01*
X92341922Y-62634108D01*
X96499500Y-62634108D01*
X96499500Y-62765893D01*
X96501129Y-62771972D01*
X96501129Y-62771974D01*
X96501130Y-62771974D01*
X96533609Y-62893190D01*
X96533610Y-62893192D01*
X96533611Y-62893195D01*
X96599494Y-63007307D01*
X96599496Y-63007309D01*
X96599498Y-63007311D01*
X96599500Y-63007314D01*
X96692686Y-63100500D01*
X96692688Y-63100501D01*
X96692690Y-63100503D01*
X96693237Y-63100898D01*
X96695239Y-63101975D01*
X96723363Y-63118212D01*
X96750040Y-63133614D01*
X96771634Y-63157596D01*
X96805944Y-63166174D01*
X96807548Y-63166588D01*
X96934108Y-63200500D01*
X96934110Y-63200500D01*
X97065890Y-63200500D01*
X97065892Y-63200500D01*
X97193186Y-63166392D01*
X97193188Y-63166390D01*
X97193190Y-63166390D01*
X97301190Y-63104035D01*
X97304067Y-63102639D01*
X97304853Y-63102122D01*
X97309862Y-63099028D01*
X97311161Y-63098277D01*
X97316519Y-63091294D01*
X97400500Y-63007314D01*
X97423884Y-62966812D01*
X97466390Y-62893190D01*
X97466390Y-62893188D01*
X97466392Y-62893186D01*
X97500500Y-62765892D01*
X97500500Y-62634108D01*
X97899500Y-62634108D01*
X97899500Y-62765892D01*
X97901130Y-62771974D01*
X97933609Y-62893190D01*
X97933610Y-62893192D01*
X97933611Y-62893195D01*
X97999494Y-63007307D01*
X97999496Y-63007309D01*
X97999498Y-63007311D01*
X97999500Y-63007314D01*
X98092686Y-63100500D01*
X98092688Y-63100501D01*
X98092690Y-63100503D01*
X98093237Y-63100898D01*
X98095239Y-63101975D01*
X98123363Y-63118212D01*
X98150040Y-63133614D01*
X98171634Y-63157596D01*
X98205944Y-63166174D01*
X98207548Y-63166588D01*
X98334108Y-63200500D01*
X98334110Y-63200500D01*
X98465890Y-63200500D01*
X98465892Y-63200500D01*
X98593186Y-63166392D01*
X98593188Y-63166390D01*
X98593190Y-63166390D01*
X98701190Y-63104035D01*
X98704067Y-63102639D01*
X98704853Y-63102122D01*
X98709862Y-63099028D01*
X98711161Y-63098277D01*
X98716519Y-63091294D01*
X98800500Y-63007314D01*
X98800503Y-63007309D01*
X98831219Y-62954108D01*
X99679500Y-62954108D01*
X99679500Y-63085892D01*
X99683414Y-63100500D01*
X99701068Y-63166389D01*
X99713608Y-63213189D01*
X99713610Y-63213193D01*
X99779494Y-63327307D01*
X99779496Y-63327309D01*
X99779498Y-63327311D01*
X99779500Y-63327314D01*
X99872686Y-63420500D01*
X99872688Y-63420501D01*
X99872690Y-63420503D01*
X99873237Y-63420898D01*
X99875239Y-63421975D01*
X99895392Y-63433610D01*
X99930040Y-63453614D01*
X99951634Y-63477596D01*
X99985944Y-63486174D01*
X99987548Y-63486588D01*
X100114108Y-63520500D01*
X100114110Y-63520500D01*
X100245890Y-63520500D01*
X100245892Y-63520500D01*
X100373186Y-63486392D01*
X100373188Y-63486390D01*
X100373190Y-63486390D01*
X100481190Y-63424035D01*
X100484067Y-63422639D01*
X100484853Y-63422122D01*
X100489862Y-63419028D01*
X100491161Y-63418277D01*
X100496519Y-63411294D01*
X100580500Y-63327314D01*
X100592050Y-63307309D01*
X100646390Y-63213190D01*
X100646390Y-63213188D01*
X100646392Y-63213186D01*
X100680500Y-63085892D01*
X100680500Y-62954108D01*
X100646392Y-62826814D01*
X100646390Y-62826811D01*
X100646390Y-62826809D01*
X100646383Y-62826798D01*
X100646066Y-62826094D01*
X100644812Y-62824076D01*
X100580503Y-62712690D01*
X100580501Y-62712688D01*
X100580500Y-62712686D01*
X100487314Y-62619500D01*
X100487311Y-62619498D01*
X100487309Y-62619496D01*
X100452675Y-62599500D01*
X100430476Y-62586683D01*
X100409442Y-62563322D01*
X100323799Y-62540375D01*
X100323798Y-62540374D01*
X100266766Y-62525093D01*
X100245892Y-62519500D01*
X100245891Y-62519500D01*
X100114109Y-62519500D01*
X100114108Y-62519500D01*
X100075154Y-62529937D01*
X100036199Y-62540375D01*
X100036198Y-62540374D01*
X99986807Y-62553609D01*
X99986805Y-62553610D01*
X99872694Y-62619492D01*
X99779495Y-62712691D01*
X99713609Y-62826808D01*
X99706675Y-62852688D01*
X99695824Y-62893186D01*
X99679500Y-62954108D01*
X98831219Y-62954108D01*
X98863545Y-62898119D01*
X98863546Y-62898118D01*
X98863616Y-62897997D01*
X98863842Y-62897603D01*
X98865817Y-62894179D01*
X98865820Y-62894180D01*
X98865876Y-62894076D01*
X98866392Y-62893186D01*
X98900500Y-62765892D01*
X98900500Y-62634108D01*
X98866392Y-62506814D01*
X98866390Y-62506811D01*
X98866390Y-62506809D01*
X98866383Y-62506798D01*
X98866066Y-62506094D01*
X98864812Y-62504076D01*
X98800503Y-62392690D01*
X98800501Y-62392688D01*
X98800500Y-62392686D01*
X98707314Y-62299500D01*
X98707311Y-62299498D01*
X98707309Y-62299496D01*
X98698943Y-62294666D01*
X98650476Y-62266683D01*
X98629442Y-62243322D01*
X98543799Y-62220375D01*
X98543798Y-62220374D01*
X98486766Y-62205093D01*
X98465892Y-62199500D01*
X98465891Y-62199500D01*
X98334109Y-62199500D01*
X98334108Y-62199500D01*
X98295154Y-62209937D01*
X98256199Y-62220375D01*
X98256198Y-62220374D01*
X98206807Y-62233609D01*
X98206805Y-62233610D01*
X98092694Y-62299492D01*
X97999492Y-62392694D01*
X97933610Y-62506805D01*
X97933608Y-62506809D01*
X97926427Y-62533607D01*
X97926428Y-62533608D01*
X97899710Y-62633322D01*
X97899710Y-62633324D01*
X97899500Y-62634108D01*
X97500500Y-62634108D01*
X97466392Y-62506814D01*
X97466390Y-62506811D01*
X97466390Y-62506809D01*
X97466217Y-62506509D01*
X97466142Y-62506217D01*
X97464812Y-62504076D01*
X97400503Y-62392690D01*
X97400501Y-62392688D01*
X97400500Y-62392686D01*
X97307314Y-62299500D01*
X97307311Y-62299498D01*
X97307309Y-62299496D01*
X97298943Y-62294666D01*
X97250476Y-62266683D01*
X97229442Y-62243322D01*
X97143799Y-62220375D01*
X97143798Y-62220374D01*
X97086766Y-62205093D01*
X97065892Y-62199500D01*
X97065891Y-62199500D01*
X96934109Y-62199500D01*
X96934108Y-62199500D01*
X96895154Y-62209937D01*
X96856199Y-62220375D01*
X96856198Y-62220374D01*
X96806807Y-62233609D01*
X96806805Y-62233610D01*
X96692694Y-62299492D01*
X96599492Y-62392694D01*
X96533610Y-62506805D01*
X96533608Y-62506809D01*
X96526427Y-62533607D01*
X96526428Y-62533608D01*
X96499500Y-62634108D01*
X92341922Y-62634108D01*
X92307314Y-62599500D01*
X92307311Y-62599498D01*
X92307309Y-62599496D01*
X92307302Y-62599492D01*
X92250476Y-62566683D01*
X92229442Y-62543321D01*
X92140534Y-62519500D01*
X92140533Y-62519499D01*
X92085891Y-62504858D01*
X92065892Y-62499500D01*
X92065891Y-62499500D01*
X91934109Y-62499500D01*
X91934108Y-62499500D01*
X91918335Y-62503726D01*
X91859466Y-62519499D01*
X91859466Y-62519500D01*
X91806809Y-62533609D01*
X91806807Y-62533609D01*
X91806803Y-62533611D01*
X91692694Y-62599492D01*
X91599492Y-62692694D01*
X91534221Y-62805747D01*
X91534220Y-62805749D01*
X91533609Y-62806809D01*
X91533608Y-62806814D01*
X91499500Y-62934108D01*
X85500500Y-62934108D01*
X85500500Y-56084108D01*
X101949500Y-56084108D01*
X101949500Y-56215892D01*
X101979579Y-56328151D01*
X101983609Y-56343190D01*
X102049496Y-56457309D01*
X102049498Y-56457311D01*
X102049500Y-56457314D01*
X102142686Y-56550500D01*
X102142688Y-56550501D01*
X102142690Y-56550503D01*
X102143237Y-56550898D01*
X102145239Y-56551975D01*
X102189207Y-56577359D01*
X102200040Y-56583614D01*
X102221634Y-56607596D01*
X102255944Y-56616174D01*
X102257548Y-56616588D01*
X102384108Y-56650500D01*
X102384110Y-56650500D01*
X102515890Y-56650500D01*
X102515892Y-56650500D01*
X102643186Y-56616392D01*
X102643188Y-56616390D01*
X102643190Y-56616390D01*
X102751190Y-56554035D01*
X102754067Y-56552639D01*
X102754853Y-56552122D01*
X102759862Y-56549028D01*
X102761161Y-56548277D01*
X102766519Y-56541294D01*
X102850500Y-56457314D01*
X102916392Y-56343186D01*
X102950500Y-56215892D01*
X102950500Y-56155245D01*
X110474500Y-56155245D01*
X110474500Y-57844753D01*
X110474501Y-57844758D01*
X110486132Y-57903227D01*
X110486133Y-57903231D01*
X110530448Y-57969552D01*
X110596769Y-58013867D01*
X110619000Y-58018289D01*
X110641228Y-58022711D01*
X110641231Y-58022711D01*
X110649159Y-58024288D01*
X110651324Y-58024861D01*
X110653514Y-58025217D01*
X110655081Y-58025500D01*
X110655252Y-58025500D01*
X111119164Y-58025500D01*
X111131360Y-58026254D01*
X111140220Y-58027353D01*
X111151842Y-58030992D01*
X111283420Y-58045129D01*
X111284202Y-58045227D01*
X111284789Y-58045501D01*
X111301779Y-58049056D01*
X111433235Y-58090509D01*
X111448860Y-58096949D01*
X111604983Y-58177512D01*
X111616858Y-58184738D01*
X111801653Y-58315829D01*
X111810145Y-58322582D01*
X112003995Y-58494895D01*
X112008227Y-58498884D01*
X112167393Y-58658050D01*
X112168118Y-58658784D01*
X112273495Y-58766380D01*
X112273995Y-58766894D01*
X112398563Y-58895943D01*
X112398707Y-58896092D01*
X112400065Y-58897487D01*
X112400154Y-58897578D01*
X112400186Y-58897610D01*
X112413034Y-58906271D01*
X112427700Y-58918357D01*
X112759417Y-59250074D01*
X112777622Y-59275132D01*
X112788709Y-59296891D01*
X112799500Y-59341837D01*
X112799500Y-66654152D01*
X112794654Y-66684746D01*
X112787106Y-66707975D01*
X112762955Y-66747385D01*
X111869076Y-67641262D01*
X111852789Y-67654418D01*
X111841049Y-67662000D01*
X111661101Y-67836414D01*
X111661098Y-67836417D01*
X111597436Y-67898120D01*
X111592790Y-67902346D01*
X111419597Y-68050105D01*
X111415363Y-68053521D01*
X111410392Y-68057311D01*
X111245308Y-68183162D01*
X111020972Y-68353120D01*
X111020963Y-68353129D01*
X111018958Y-68355398D01*
X110999793Y-68372140D01*
X110990721Y-68378202D01*
X110990711Y-68378209D01*
X110879210Y-68489710D01*
X110791613Y-68620805D01*
X110791600Y-68620828D01*
X110731262Y-68766498D01*
X110729361Y-68776061D01*
X110729361Y-68776063D01*
X110700500Y-68921151D01*
X110700500Y-68921154D01*
X110700500Y-69078843D01*
X110724222Y-69198100D01*
X110729361Y-69223932D01*
X110729361Y-69223936D01*
X110731262Y-69233498D01*
X110791600Y-69379168D01*
X110791603Y-69379173D01*
X110791609Y-69379184D01*
X110844312Y-69458058D01*
X110879211Y-69510288D01*
X110879215Y-69510292D01*
X110879218Y-69510296D01*
X110935097Y-69566174D01*
X110990711Y-69621788D01*
X111068876Y-69674016D01*
X111121814Y-69709389D01*
X111121825Y-69709395D01*
X111175638Y-69731684D01*
X111180296Y-69733613D01*
X111180299Y-69733615D01*
X111223494Y-69751507D01*
X111267503Y-69769736D01*
X111422158Y-69800499D01*
X111422159Y-69800499D01*
X111579841Y-69800499D01*
X111579842Y-69800499D01*
X111734497Y-69769736D01*
X111880179Y-69709393D01*
X112011289Y-69621788D01*
X112122789Y-69510288D01*
X112128860Y-69501200D01*
X112145457Y-69482160D01*
X112147909Y-69479984D01*
X112164530Y-69458046D01*
X112224306Y-69379144D01*
X112316501Y-69257451D01*
X112317444Y-69256228D01*
X112528846Y-68987033D01*
X112534924Y-68980003D01*
X112840536Y-68658504D01*
X112847949Y-68646939D01*
X112861291Y-68630363D01*
X114044109Y-67447547D01*
X114044109Y-67447546D01*
X114044114Y-67447542D01*
X114120775Y-67332810D01*
X114173580Y-67205327D01*
X114200500Y-67069993D01*
X114200500Y-66932005D01*
X114200500Y-58931007D01*
X114173580Y-58795672D01*
X114120775Y-58668189D01*
X114044114Y-58553457D01*
X113417598Y-57926941D01*
X113406269Y-57913382D01*
X113399224Y-57903231D01*
X113396068Y-57898683D01*
X113267035Y-57774132D01*
X113266459Y-57773571D01*
X113148918Y-57658254D01*
X113148246Y-57657589D01*
X112983575Y-57492918D01*
X112980603Y-57489813D01*
X112887463Y-57388212D01*
X112883375Y-57383459D01*
X112772012Y-57245362D01*
X112766830Y-57238321D01*
X112673680Y-57099291D01*
X112667697Y-57089094D01*
X112598583Y-56953308D01*
X112592631Y-56938905D01*
X112548438Y-56802359D01*
X112545026Y-56788443D01*
X112535842Y-56734270D01*
X112534619Y-56723482D01*
X112531106Y-56662808D01*
X112526484Y-56630301D01*
X112525500Y-56616372D01*
X112525500Y-56155251D01*
X112525499Y-56155250D01*
X112525498Y-56155241D01*
X112522712Y-56141236D01*
X112522712Y-56141232D01*
X112517155Y-56113298D01*
X112513867Y-56096769D01*
X112469552Y-56030448D01*
X112469543Y-56030442D01*
X112448518Y-56016393D01*
X112448518Y-56016392D01*
X112403235Y-55986135D01*
X112403229Y-55986131D01*
X112403025Y-55986063D01*
X112401488Y-55985786D01*
X112344768Y-55974503D01*
X112344758Y-55974501D01*
X112344753Y-55974500D01*
X112344750Y-55974500D01*
X112344748Y-55974500D01*
X110655252Y-55974500D01*
X110655251Y-55974500D01*
X110655245Y-55974500D01*
X110596778Y-55986130D01*
X110596763Y-55986135D01*
X110530454Y-56030442D01*
X110530442Y-56030454D01*
X110486135Y-56096763D01*
X110486130Y-56096778D01*
X110474500Y-56155245D01*
X102950500Y-56155245D01*
X102950500Y-56113298D01*
X102955343Y-56082712D01*
X102959465Y-56070023D01*
X102968682Y-56057335D01*
X102969407Y-56055107D01*
X102971301Y-56053730D01*
X102995423Y-56020524D01*
X102996005Y-56020101D01*
X103054221Y-56001270D01*
X103103593Y-56014533D01*
X103106814Y-56016393D01*
X103234108Y-56050501D01*
X103365892Y-56050501D01*
X103493186Y-56016393D01*
X103505955Y-56009021D01*
X103518132Y-56001991D01*
X103562141Y-55976581D01*
X103607309Y-55950504D01*
X103607309Y-55950503D01*
X103607314Y-55950501D01*
X103607316Y-55950498D01*
X103609853Y-55949034D01*
X103609853Y-55949033D01*
X103609863Y-55949028D01*
X103611161Y-55948278D01*
X103616519Y-55941295D01*
X103700500Y-55857315D01*
X103700503Y-55857310D01*
X103766390Y-55743191D01*
X103766390Y-55743189D01*
X103766392Y-55743187D01*
X103800500Y-55615893D01*
X103800500Y-55484109D01*
X103800500Y-55484108D01*
X104199500Y-55484108D01*
X104199500Y-55615892D01*
X104202286Y-55626288D01*
X104211472Y-55660573D01*
X104233610Y-55743194D01*
X104299494Y-55857307D01*
X104299496Y-55857309D01*
X104299498Y-55857311D01*
X104299500Y-55857314D01*
X104392686Y-55950500D01*
X104392688Y-55950501D01*
X104392690Y-55950503D01*
X104393241Y-55950900D01*
X104395240Y-55951976D01*
X104505332Y-56015538D01*
X104505337Y-56015539D01*
X104506814Y-56016392D01*
X104634108Y-56050500D01*
X104765892Y-56050500D01*
X104893186Y-56016392D01*
X104900878Y-56011951D01*
X105001184Y-55954038D01*
X105004062Y-55952642D01*
X105004846Y-55952126D01*
X105009863Y-55949027D01*
X105011161Y-55948277D01*
X105016519Y-55941294D01*
X105100500Y-55857314D01*
X105108946Y-55842686D01*
X105166390Y-55743190D01*
X105166391Y-55743187D01*
X105166392Y-55743186D01*
X105200500Y-55615892D01*
X105200500Y-55484108D01*
X105166392Y-55356814D01*
X105166390Y-55356810D01*
X105166390Y-55356809D01*
X105101621Y-55244626D01*
X105101296Y-55244045D01*
X105101274Y-55243936D01*
X105100796Y-55243048D01*
X105100608Y-55242795D01*
X105100501Y-55242688D01*
X105100500Y-55242686D01*
X105007314Y-55149500D01*
X105007311Y-55149498D01*
X105007309Y-55149496D01*
X105007302Y-55149492D01*
X104950476Y-55116683D01*
X104929442Y-55093322D01*
X104843799Y-55070375D01*
X104843798Y-55070374D01*
X104786766Y-55055093D01*
X104765892Y-55049500D01*
X104765891Y-55049500D01*
X104634109Y-55049500D01*
X104634108Y-55049500D01*
X104595154Y-55059937D01*
X104556199Y-55070375D01*
X104556198Y-55070374D01*
X104506807Y-55083609D01*
X104506805Y-55083610D01*
X104392694Y-55149492D01*
X104299492Y-55242694D01*
X104233610Y-55356805D01*
X104233608Y-55356809D01*
X104221901Y-55400498D01*
X104221902Y-55400499D01*
X104202094Y-55474425D01*
X104199500Y-55484108D01*
X103800500Y-55484108D01*
X103766392Y-55356815D01*
X103766390Y-55356812D01*
X103766390Y-55356810D01*
X103766217Y-55356510D01*
X103766142Y-55356218D01*
X103764812Y-55354077D01*
X103700503Y-55242691D01*
X103700501Y-55242689D01*
X103700500Y-55242687D01*
X103607314Y-55149501D01*
X103607311Y-55149499D01*
X103607309Y-55149497D01*
X103607300Y-55149492D01*
X103550476Y-55116684D01*
X103529442Y-55093322D01*
X103436451Y-55068407D01*
X103436450Y-55068406D01*
X103384797Y-55054566D01*
X103365892Y-55049501D01*
X103365891Y-55049501D01*
X103234109Y-55049501D01*
X103234108Y-55049501D01*
X103219198Y-55053496D01*
X103163549Y-55068406D01*
X103163549Y-55068407D01*
X103106809Y-55083610D01*
X103106807Y-55083610D01*
X103106803Y-55083612D01*
X102992694Y-55149493D01*
X102899492Y-55242695D01*
X102833608Y-55356810D01*
X102833331Y-55357544D01*
X102832783Y-55359891D01*
X102802095Y-55474425D01*
X102801277Y-55476579D01*
X102799500Y-55484109D01*
X102799500Y-55586701D01*
X102794653Y-55617300D01*
X102791732Y-55626288D01*
X102755765Y-55675785D01*
X102697573Y-55694689D01*
X102671957Y-55691316D01*
X102593799Y-55670375D01*
X102593798Y-55670374D01*
X102536766Y-55655093D01*
X102515892Y-55649500D01*
X102515891Y-55649500D01*
X102384109Y-55649500D01*
X102384108Y-55649500D01*
X102345154Y-55659937D01*
X102306199Y-55670375D01*
X102306198Y-55670374D01*
X102256807Y-55683609D01*
X102256805Y-55683610D01*
X102142694Y-55749492D01*
X102049492Y-55842694D01*
X101983611Y-55956803D01*
X101983609Y-55956807D01*
X101983609Y-55956809D01*
X101969619Y-56009021D01*
X101969619Y-56009022D01*
X101969618Y-56009021D01*
X101953273Y-56070026D01*
X101949500Y-56084108D01*
X85500500Y-56084108D01*
X85500500Y-55114680D01*
X85505343Y-55084094D01*
X85505501Y-55083609D01*
X85509465Y-55071405D01*
X85545423Y-55021906D01*
X85546022Y-55021471D01*
X85549563Y-55018900D01*
X85607743Y-55000000D01*
X88749999Y-55000000D01*
X88750000Y-55000000D01*
X88815892Y-54934108D01*
X93599500Y-54934108D01*
X93599500Y-55065892D01*
X93600600Y-55069997D01*
X93600600Y-55069998D01*
X93621903Y-55149501D01*
X93621902Y-55149501D01*
X93633608Y-55193186D01*
X93633609Y-55193190D01*
X93699496Y-55307309D01*
X93699498Y-55307311D01*
X93699500Y-55307314D01*
X93792686Y-55400500D01*
X93792688Y-55400501D01*
X93792690Y-55400503D01*
X93793237Y-55400898D01*
X93795239Y-55401975D01*
X93839207Y-55427359D01*
X93850040Y-55433614D01*
X93871634Y-55457596D01*
X93905944Y-55466174D01*
X93907548Y-55466588D01*
X94034108Y-55500500D01*
X94034110Y-55500500D01*
X94165890Y-55500500D01*
X94165892Y-55500500D01*
X94293186Y-55466392D01*
X94293188Y-55466390D01*
X94293190Y-55466390D01*
X94401190Y-55404035D01*
X94404067Y-55402639D01*
X94404853Y-55402122D01*
X94409862Y-55399028D01*
X94411161Y-55398277D01*
X94416519Y-55391294D01*
X94500500Y-55307314D01*
X94536339Y-55245240D01*
X94566390Y-55193190D01*
X94566391Y-55193187D01*
X94566392Y-55193186D01*
X94600500Y-55065892D01*
X94600500Y-54934108D01*
X94566392Y-54806814D01*
X94566390Y-54806811D01*
X94566390Y-54806809D01*
X94566383Y-54806798D01*
X94566066Y-54806094D01*
X94564812Y-54804076D01*
X94500503Y-54692690D01*
X94500501Y-54692688D01*
X94500500Y-54692686D01*
X94407314Y-54599500D01*
X94407311Y-54599498D01*
X94407308Y-54599495D01*
X94376055Y-54581451D01*
X94350476Y-54566683D01*
X94329443Y-54543323D01*
X94293189Y-54533609D01*
X94293191Y-54533609D01*
X94236731Y-54518481D01*
X94236728Y-54518480D01*
X94236713Y-54518476D01*
X97649500Y-54518476D01*
X97649500Y-55482237D01*
X97650081Y-55485190D01*
X97664352Y-55575298D01*
X97664362Y-55575322D01*
X97721948Y-55688339D01*
X97721950Y-55688342D01*
X97811658Y-55778050D01*
X97924696Y-55835646D01*
X98018481Y-55850500D01*
X98481518Y-55850499D01*
X98481520Y-55850499D01*
X98481521Y-55850498D01*
X98530826Y-55842690D01*
X98567617Y-55836863D01*
X98571499Y-55836558D01*
X98571504Y-55836557D01*
X98579146Y-55835037D01*
X98583064Y-55834416D01*
X98592838Y-55826711D01*
X98688342Y-55778050D01*
X98778050Y-55688342D01*
X98835646Y-55575304D01*
X98850500Y-55481519D01*
X98850499Y-54518482D01*
X98850499Y-54518481D01*
X98850499Y-54518478D01*
X98850498Y-54518476D01*
X98836865Y-54432389D01*
X98836559Y-54428505D01*
X98836556Y-54428492D01*
X98836553Y-54428477D01*
X98835649Y-54424713D01*
X98835647Y-54424700D01*
X98835646Y-54424698D01*
X98835646Y-54424696D01*
X98778050Y-54311658D01*
X98688342Y-54221950D01*
X98634243Y-54194385D01*
X98609652Y-54169793D01*
X98481525Y-54149500D01*
X98481522Y-54149500D01*
X98018479Y-54149500D01*
X98018473Y-54149500D01*
X98018424Y-54149508D01*
X98018061Y-54149566D01*
X97924700Y-54164352D01*
X97924676Y-54164362D01*
X97811661Y-54221947D01*
X97721948Y-54311660D01*
X97664354Y-54424693D01*
X97649500Y-54518476D01*
X94236713Y-54518476D01*
X94206787Y-54510457D01*
X94165892Y-54499500D01*
X94165891Y-54499500D01*
X94034109Y-54499500D01*
X94034108Y-54499500D01*
X94019138Y-54503510D01*
X93963269Y-54518480D01*
X93963269Y-54518481D01*
X93906809Y-54533609D01*
X93906807Y-54533609D01*
X93906803Y-54533611D01*
X93792694Y-54599492D01*
X93699492Y-54692694D01*
X93634221Y-54805747D01*
X93634220Y-54805749D01*
X93633609Y-54806809D01*
X93633608Y-54806814D01*
X93599500Y-54934108D01*
X88815892Y-54934108D01*
X90000000Y-53750000D01*
X90000000Y-52334108D01*
X96199500Y-52334108D01*
X96199500Y-52465892D01*
X96200600Y-52469997D01*
X96200600Y-52469999D01*
X96208639Y-52500000D01*
X96233610Y-52593194D01*
X96299494Y-52707307D01*
X96299496Y-52707309D01*
X96299498Y-52707311D01*
X96299500Y-52707314D01*
X96392686Y-52800500D01*
X96392688Y-52800501D01*
X96392690Y-52800503D01*
X96393237Y-52800898D01*
X96395239Y-52801975D01*
X96439207Y-52827359D01*
X96450040Y-52833614D01*
X96471634Y-52857596D01*
X96505944Y-52866174D01*
X96507548Y-52866588D01*
X96634108Y-52900500D01*
X96634110Y-52900500D01*
X96765890Y-52900500D01*
X96765892Y-52900500D01*
X96893186Y-52866392D01*
X96893188Y-52866390D01*
X96893190Y-52866390D01*
X97001190Y-52804035D01*
X97004067Y-52802639D01*
X97004853Y-52802122D01*
X97009862Y-52799028D01*
X97011161Y-52798277D01*
X97016519Y-52791294D01*
X97100500Y-52707314D01*
X97100504Y-52707307D01*
X97166390Y-52593190D01*
X97166390Y-52593188D01*
X97166392Y-52593186D01*
X97200500Y-52465892D01*
X97200500Y-52334108D01*
X97166392Y-52206814D01*
X97166390Y-52206811D01*
X97166390Y-52206809D01*
X97166383Y-52206798D01*
X97166066Y-52206094D01*
X97164812Y-52204076D01*
X97100503Y-52092690D01*
X97100501Y-52092688D01*
X97100500Y-52092686D01*
X97007314Y-51999500D01*
X97007311Y-51999498D01*
X97007309Y-51999496D01*
X97007302Y-51999492D01*
X96950476Y-51966683D01*
X96929442Y-51943322D01*
X96843799Y-51920375D01*
X96843798Y-51920374D01*
X96786766Y-51905093D01*
X96765892Y-51899500D01*
X96765891Y-51899500D01*
X96634109Y-51899500D01*
X96634108Y-51899500D01*
X96595154Y-51909937D01*
X96556199Y-51920375D01*
X96556198Y-51920374D01*
X96506807Y-51933609D01*
X96506805Y-51933610D01*
X96392694Y-51999492D01*
X96299492Y-52092694D01*
X96234221Y-52205747D01*
X96234220Y-52205749D01*
X96233609Y-52206809D01*
X96233608Y-52206814D01*
X96199500Y-52334108D01*
X90000000Y-52334108D01*
X90000000Y-50615180D01*
X90004843Y-50584594D01*
X90008965Y-50571905D01*
X90044923Y-50522406D01*
X90045522Y-50521971D01*
X90049063Y-50519400D01*
X90107243Y-50500500D01*
X106552211Y-50500500D01*
X106582803Y-50505345D01*
G37*
%TD.AperFunction*%
%TD*%
%TA.AperFunction,Conductor*%
%TO.N,/LMP/RE*%
G36*
X112318759Y-56664558D02*
G01*
X112325084Y-56670897D01*
X112325950Y-56674687D01*
X112330431Y-56752078D01*
X112330434Y-56752106D01*
X112346114Y-56844594D01*
X112346115Y-56844599D01*
X112395581Y-56997437D01*
X112404527Y-57025079D01*
X112492821Y-57198548D01*
X112492824Y-57198552D01*
X112598981Y-57356996D01*
X112603597Y-57363885D01*
X112603602Y-57363891D01*
X112729454Y-57519956D01*
X112729465Y-57519969D01*
X112862957Y-57665587D01*
X112862972Y-57665603D01*
X113123401Y-57921104D01*
X113253348Y-58046538D01*
X113256920Y-58054749D01*
X113253640Y-58063082D01*
X113253495Y-58063229D01*
X112563229Y-58753495D01*
X112554956Y-58756922D01*
X112546683Y-58753495D01*
X112546562Y-58753372D01*
X112421104Y-58623401D01*
X112421075Y-58623371D01*
X112421075Y-58623370D01*
X112270653Y-58469781D01*
X112173769Y-58370856D01*
X111934180Y-58157886D01*
X111800745Y-58063229D01*
X111718285Y-58004733D01*
X111718274Y-58004726D01*
X111519920Y-57902369D01*
X111519918Y-57902368D01*
X111334676Y-57843955D01*
X111334670Y-57843954D01*
X111173797Y-57826668D01*
X111165937Y-57822377D01*
X111163414Y-57813785D01*
X111164231Y-57810575D01*
X111497438Y-57003783D01*
X111503759Y-56997448D01*
X112309806Y-56664549D01*
X112318759Y-56664558D01*
G37*
%TD.AperFunction*%
%TD*%
%TA.AperFunction,Conductor*%
%TO.N,/LMP/RE*%
G36*
X112000489Y-67809691D02*
G01*
X112691385Y-68500587D01*
X112694812Y-68508860D01*
X112691592Y-68516921D01*
X112376087Y-68848830D01*
X112154237Y-69131329D01*
X111984109Y-69355887D01*
X111976381Y-69360412D01*
X111967718Y-69358148D01*
X111967676Y-69358116D01*
X111501532Y-69001653D01*
X111499345Y-68999466D01*
X111142882Y-68533322D01*
X111140579Y-68524669D01*
X111145068Y-68516921D01*
X111369681Y-68346753D01*
X111546605Y-68211876D01*
X111733523Y-68052407D01*
X111733533Y-68052396D01*
X111733538Y-68052393D01*
X111798672Y-67989261D01*
X111984075Y-67809561D01*
X111992399Y-67806265D01*
X112000489Y-67809691D01*
G37*
%TD.AperFunction*%
%TD*%
%TA.AperFunction,Conductor*%
%TO.N,/LMP/WE*%
G36*
X110782739Y-60116604D02*
G01*
X110782938Y-60116707D01*
X111497561Y-60497616D01*
X111502383Y-60502438D01*
X111883292Y-61217061D01*
X111884159Y-61225973D01*
X111878470Y-61232889D01*
X111878271Y-61232992D01*
X111509358Y-61420637D01*
X111509331Y-61420652D01*
X111254036Y-61552213D01*
X111148420Y-61617791D01*
X111148420Y-61617792D01*
X111039758Y-61697180D01*
X111039752Y-61697184D01*
X110917168Y-61802081D01*
X110883353Y-61831018D01*
X110720030Y-61988216D01*
X110697907Y-62009510D01*
X110689569Y-62012778D01*
X110681520Y-62009353D01*
X109990587Y-61318420D01*
X109987160Y-61310147D01*
X109990370Y-61302097D01*
X110215666Y-61064608D01*
X110367274Y-60873395D01*
X110475715Y-60695743D01*
X110579347Y-60490671D01*
X110579352Y-60490673D01*
X110579358Y-60490648D01*
X110767008Y-60121726D01*
X110773812Y-60115907D01*
X110782739Y-60116604D01*
G37*
%TD.AperFunction*%
%TD*%
%TA.AperFunction,Conductor*%
%TO.N,/LMP/WE*%
G36*
X109997866Y-68808560D02*
G01*
X110001289Y-68816537D01*
X110012889Y-69274333D01*
X110012888Y-69274333D01*
X110055773Y-69630957D01*
X110094261Y-69910042D01*
X110091997Y-69918705D01*
X110084269Y-69923230D01*
X110084217Y-69923237D01*
X109502546Y-70000793D01*
X109499454Y-70000793D01*
X108917782Y-69923237D01*
X108910034Y-69918747D01*
X108907731Y-69910094D01*
X108924683Y-69787169D01*
X108946231Y-69630928D01*
X108975961Y-69410463D01*
X108975962Y-69410455D01*
X108995369Y-69165540D01*
X108995370Y-69165533D01*
X109000820Y-68816649D01*
X109004376Y-68808432D01*
X109012519Y-68805133D01*
X109989593Y-68805133D01*
X109997866Y-68808560D01*
G37*
%TD.AperFunction*%
%TD*%
M02*
